<?xml version="1.0" encoding="UTF-8"?>
<svg version="1.1" xmlns="http://www.w3.org/2000/svg" width="500" height="500">
<path d="M0 0 C10.55178308 8.85906825 18.69549762 22.06067246 20.29296875 35.9375 C20.5028441 38.78340969 20.65355865 41.58846928 20.73046875 44.4375 C20.76495117 45.11804443 20.79943359 45.79858887 20.83496094 46.49975586 C20.94417859 60.68680833 13.84197771 75.19139353 8.60546875 88.125 C7.62343941 90.57484561 6.64416661 93.0257817 5.66508484 95.47680664 C4.9742989 97.20582658 4.28264573 98.93450026 3.59016418 100.6628418 C0.83627489 107.54487648 -1.86536391 114.44645907 -4.55078125 121.35546875 C-4.95488724 122.39408554 -5.35899323 123.43270233 -5.77534485 124.50279236 C-7.37521245 128.61552652 -8.97474605 132.72837598 -10.56820679 136.84359741 C-11.67744204 139.70698036 -12.7914168 142.5684803 -13.90625 145.4296875 C-14.23173828 146.27399826 -14.55722656 147.11830902 -14.89257812 147.98820496 C-18.64861479 157.60202312 -21.96366964 165.56581919 -31.58203125 170.375 C-37.2172875 171.38934613 -41.85926707 170.89691602 -46.95703125 168.25 C-51.35196759 164.55425808 -55.04683043 160.93681325 -56.02001953 155.04150391 C-56.49634326 146.93345468 -53.52621025 140.07477755 -50.55133057 132.71176147 C-49.55745811 130.25167526 -48.5850177 127.78396876 -47.61669922 125.3137207 C-45.33619678 119.51253271 -43.02244342 113.72482563 -40.70703125 107.9375 C-37.48862167 99.88852055 -34.27511493 91.83771106 -31.08048439 83.77926254 C-29.83903182 80.65016993 -28.59167919 77.52368117 -27.33099365 74.40228271 C-25.9060148 70.87023285 -24.49666112 67.33228398 -23.08984375 63.79296875 C-22.66133118 62.7433345 -22.2328186 61.69370026 -21.7913208 60.61225891 C-18.83801061 53.11822483 -16.33430862 45.5798187 -18.83203125 37.625 C-20.96407393 32.83996304 -24.11522041 29.98664806 -28.45703125 27.125 C-34.15460291 25.04319497 -38.69482894 25.1395577 -44.33203125 27.375 C-56.56607973 35.58728082 -61.68388042 52.78338286 -66.3671875 66 C-70.35384705 77.09765251 -74.6115437 88.07752867 -78.94168091 99.04498291 C-80.25078512 102.36082457 -81.55636936 105.6780343 -82.86108398 108.99560547 C-84.63944481 113.51742685 -86.41875782 118.03887148 -88.19873047 122.56005859 C-91.41788494 130.74070524 -94.62038436 138.92781597 -97.81570435 147.11779785 C-98.45092895 148.74590769 -99.08640615 150.373919 -99.72213745 152.00183105 C-103.72893908 162.26221266 -107.711358 172.53176266 -111.67578125 182.80859375 C-112.95615169 186.12389325 -114.23672066 189.43911602 -115.51730347 192.7543335 C-116.73112458 195.90045321 -117.94096708 199.04808228 -119.15063477 202.19580078 C-136.94920432 248.37900334 -136.94920432 248.37900334 -158.70703125 258.9375 C-174.62805782 264.82584198 -189.3353772 265.81478669 -205.36328125 259.49609375 C-219.47873046 252.88331265 -230.50506849 242.40263845 -236.640625 227.96484375 C-244.07348824 206.86422467 -239.10948833 189.22472783 -230.95703125 169.375 C-230.28573089 167.71214438 -229.61583994 166.04871917 -228.94726562 164.38476562 C-227.56204323 160.94033219 -226.17089062 157.49838709 -224.77539062 154.05810547 C-221.84471074 146.81988752 -218.98867425 139.55240904 -216.13079834 132.28521729 C-214.58403798 128.35418741 -213.03201421 124.42523686 -211.48046875 120.49609375 C-210.85643698 118.91520511 -210.23241358 117.33431317 -209.60839844 115.75341797 C-208.31774143 112.48407051 -207.02669859 109.21487575 -205.73535156 105.94580078 C-205.24303291 104.69946365 -205.24303291 104.69946365 -204.74076843 103.427948 C-204.07959556 101.7543399 -203.41831082 100.08077599 -202.75691223 98.40725708 C-201.14884483 94.33763895 -199.54316486 90.26711374 -197.94311523 86.19433594 C-195.26216553 79.37446729 -192.56793856 72.56401654 -189.765625 65.79296875 C-189.12246338 64.21793579 -189.12246338 64.21793579 -188.46630859 62.61108398 C-187.70626472 60.75438767 -186.93329996 58.90288746 -186.14306641 57.05883789 C-183.56943888 50.72079052 -182.25809221 44.23536649 -184.50195312 37.57958984 C-186.81541644 32.3515171 -189.96721007 29.45962288 -194.95703125 26.6875 C-201.71171267 24.84531416 -207.5547538 25.50642219 -213.70703125 28.9375 C-219.49299033 33.4345078 -221.43826083 39.64996451 -224.08203125 46.3125 C-224.60493914 47.6053421 -225.12856097 48.89789563 -225.65283203 50.19018555 C-230.39608739 61.94084916 -234.91990534 73.77922861 -239.44165039 85.61645508 C-245.04564342 100.2793408 -250.7707316 114.89334717 -256.51953125 129.5 C-256.98890106 130.69281586 -257.45827087 131.88563171 -257.94186401 133.11459351 C-259.8308599 137.91512131 -261.71985645 142.71564882 -263.60920715 147.51603699 C-267.76401125 158.07524105 -271.89922743 168.64204325 -276.02954102 179.21084595 C-277.13254952 182.031856 -278.23689956 184.85233667 -279.34179688 187.67260742 C-280.05990188 189.50569424 -280.7780009 191.33878341 -281.49609375 193.171875 C-281.84540955 194.06352859 -282.19472534 194.95518219 -282.55462646 195.87385559 C-284.68714859 201.32101848 -286.80867114 206.77233154 -288.9226532 212.22671509 C-290.29272514 215.75793348 -291.66917937 219.28664228 -293.04690552 222.81488037 C-293.68467328 224.45261341 -294.31960197 226.09145549 -294.9513855 227.73150635 C-302.95483487 248.50101249 -302.95483487 248.50101249 -309.33203125 252.4375 C-315.0239968 254.83242136 -321.2314677 255.24881446 -327.046875 253.0546875 C-331.83890784 250.35972676 -334.79470665 247.09105274 -336.70703125 241.9375 C-339.92787787 230.261931 -332.41836977 217.30910162 -328.08340454 206.52432251 C-326.40740574 202.3528206 -324.7497264 198.17402853 -323.08984375 193.99609375 C-322.73584 193.10613205 -322.38183624 192.21617035 -322.0171051 191.29924011 C-317.78407681 180.6422358 -313.65443162 169.94535923 -309.51953125 159.25 C-302.06743959 139.98802833 -294.55282813 120.7512788 -287.00195312 101.52783203 C-282.69608971 90.56473008 -278.40103925 79.59763694 -274.1309967 68.62052917 C-270.66910085 59.72117543 -267.1950183 50.82666005 -263.70703125 41.9375 C-263.22637207 40.7112793 -262.74571289 39.48505859 -262.25048828 38.22167969 C-261.03842441 35.1433511 -259.81391932 32.07043864 -258.58203125 29 C-258.10503784 27.78606567 -258.10503784 27.78606567 -257.6184082 26.54760742 C-251.36622809 11.15877525 -241.62705852 -0.5528456 -226.70703125 -8.0625 C-211.07240128 -14.2515629 -195.8167285 -14.83651526 -180.05078125 -8.62109375 C-164.83793315 -1.49420513 -153.69442316 10.06514823 -147.67578125 25.84375 C-143.60363261 38.84835371 -143.90400698 51.42293795 -148.30078125 64.19921875 C-148.69807434 65.36993423 -148.69807434 65.36993423 -149.10339355 66.56430054 C-151.88009215 74.63039458 -154.99183872 82.55708383 -158.16793823 90.47271729 C-159.63186454 94.12133294 -161.08449971 97.77441615 -162.53794861 101.42721558 C-163.32750603 103.411416 -164.11760611 105.39540056 -164.90821838 107.37918091 C-170.50111253 121.42144703 -176.00422065 135.49915962 -181.52001953 149.57183838 C-182.85117109 152.96744487 -184.18315486 156.36272323 -185.515625 159.7578125 C-185.94237518 160.84571075 -186.36912537 161.93360901 -186.80880737 163.05447388 C-189.03637746 168.72304536 -191.28260413 174.38348716 -193.55517578 180.03417969 C-194.01626236 181.18103241 -194.47734894 182.32788513 -194.95240784 183.50949097 C-195.83286136 185.69564803 -196.71566584 187.88086022 -197.60118103 190.06497192 C-197.99455154 191.04110443 -198.38792206 192.01723694 -198.79321289 193.02294922 C-199.13969376 193.87831268 -199.48617462 194.73367615 -199.84315491 195.61495972 C-201.96452328 201.31828005 -202.89690837 207.25793434 -200.98828125 213.16015625 C-198.54947756 218.42128518 -195.54750653 221.35945818 -190.45703125 224.1875 C-183.77448746 226.01001194 -178.20384164 225.13622416 -171.84765625 222.59375 C-165.86691222 217.96631301 -163.27319379 209.90908155 -160.6953125 203.0546875 C-160.32987839 202.10417511 -159.96444427 201.15366272 -159.5879364 200.17434692 C-158.39095761 197.05655051 -157.20541056 193.934533 -156.01953125 190.8125 C-155.17480101 188.60769993 -154.32908173 186.40327856 -153.48242188 184.19921875 C-152.17643842 180.79917272 -150.87103134 177.3989191 -149.56863403 173.99749756 C-145.69865932 163.89221755 -141.76294643 153.81348808 -137.80786133 143.74127197 C-131.57439323 127.8648679 -125.38693112 111.97104171 -119.2303772 96.06466675 C-116.09955634 87.97891571 -112.96088478 79.89620943 -109.82275391 71.81329346 C-108.72809451 68.9917909 -107.63532422 66.16956319 -106.54296875 63.34716797 C-104.85622846 58.9909891 -103.16141455 54.63803256 -101.46054077 50.28735352 C-100.84865671 48.71873956 -100.23932336 47.1491274 -99.63296509 45.57836914 C-96.57690178 37.66643131 -93.34021132 29.91448394 -89.5625 22.31640625 C-89.24497269 21.67702621 -88.92744537 21.03764618 -88.60029602 20.37889099 C-80.29263231 4.0574582 -70.32608519 -7.06884689 -52.95703125 -13.4375 C-34.02829847 -17.13756093 -15.10198347 -11.50627312 0 0 Z " fill="#E30B15" transform="translate(365.70703125,132.0625)"/>
<path d="M0 0 C3.65877649 3.16323114 5.27030733 6.10559416 6.16259766 10.7409668 C6.88617721 22.0231777 1.76213079 32.02565808 -2.39453125 42.24609375 C-3.24509865 44.38054541 -4.09360693 46.51581862 -4.94018555 48.65185547 C-6.74685755 53.20314255 -8.56432564 57.74991131 -10.38916016 62.29394531 C-13.3701193 69.72947607 -16.29955173 77.18460328 -19.21875 84.64453125 C-19.71426345 85.91028249 -20.2097875 87.17602957 -20.70532227 88.44177246 C-21.44152522 90.32240236 -22.17768332 92.20304974 -22.91369247 94.08375549 C-26.273841 102.66865197 -29.64678797 111.24845823 -33.03759766 119.82128906 C-34.40416115 123.28022093 -35.74907547 126.7452278 -37.06005859 130.22558594 C-37.32461349 130.9171579 -37.5891684 131.60872986 -37.86174011 132.32125854 C-38.52467196 134.05737635 -39.17644373 135.79774547 -39.8269043 137.53857422 C-42.95294776 143.94725428 -46.93758096 147.49824921 -53.65234375 149.859375 C-58.77229047 151.10497398 -62.86501285 150.83287146 -67.50390625 148.25390625 C-72.91111748 144.44517717 -76.02170528 140.81993249 -77.33203125 134.24609375 C-77.63027521 129.35442318 -76.43564124 125.39193438 -74.75 120.8671875 C-74.48173401 120.12848923 -74.21346802 119.38979095 -73.93707275 118.62870789 C-70.96376561 110.51725312 -67.78262507 102.48585996 -64.57928467 94.46310425 C-62.71651271 89.79716251 -60.86495759 85.12676562 -59.01171875 80.45703125 C-58.62621857 79.48646286 -58.24071838 78.51589447 -57.84353638 77.51591492 C-53.40609062 66.33660544 -49.02359446 55.13587256 -44.64453125 43.93359375 C-44.08795837 42.51054428 -44.08795837 42.51054428 -43.5201416 41.05874634 C-42.7955165 39.20601079 -42.07115124 37.35317359 -41.34706116 35.50022888 C-40.65228654 33.72354051 -39.95638004 31.94729428 -39.25926208 30.17152405 C-37.5846506 25.89905938 -35.93551895 21.61974532 -34.33520508 17.31884766 C-33.87055344 16.08413475 -33.87055344 16.08413475 -33.39651489 14.82447815 C-32.81873055 13.28612266 -32.24890506 11.74474269 -31.68893433 10.19981384 C-28.9256548 2.88448978 -25.10378137 -0.5459913 -18.33203125 -4.00390625 C-11.42303428 -5.13190576 -5.7582867 -4.05723594 0 0 Z " fill="#E40B15" transform="translate(465.26953125,152.50390625)"/>
<path d="M0 0 C0.33 0 0.66 0 1 0 C1.08226668 3.04386724 0.97608217 5.07175348 0 8 C-1.32 7.67 -2.64 7.34 -4 7 C-3.67 8.98 -3.34 10.96 -3 13 C-4.19882813 13.31130859 -4.19882813 13.31130859 -5.421875 13.62890625 C-8.2687385 14.76117262 -8.2687385 14.76117262 -8.890625 17.71484375 C-9.00921875 18.77832031 -9.1278125 19.84179688 -9.25 20.9375 C-9.9789675 26.93690249 -9.9789675 26.93690249 -11 30 C-11.99 30 -12.98 30 -14 30 C-14.185625 31.0828125 -14.185625 31.0828125 -14.375 32.1875 C-15.60201392 37.70906264 -18.15790118 42.168432 -21 47 C-22 45 -22 45 -21.19897461 42.37719727 C-20.77108643 41.28463623 -20.34319824 40.1920752 -19.90234375 39.06640625 C-19.42990234 37.85919922 -18.95746094 36.65199219 -18.47070312 35.40820312 C-18.0918396 34.45892944 -18.0918396 34.45892944 -17.70532227 33.49047852 C-16.95451854 31.60523304 -16.21950525 29.71442372 -15.48632812 27.82226562 C-11.55339381 17.86620299 -7.44278011 7.86808183 0 0 Z " fill="#DA3943" transform="translate(121,137)"/>
<path d="M0 0 C0.99 0 1.98 0 3 0 C0.54339947 7.63096841 -2.28854073 15.08971911 -5.1875 22.5625 C-5.88262695 24.36170898 -5.88262695 24.36170898 -6.59179688 26.19726562 C-7.72602525 29.1322277 -8.86213485 32.0664464 -10 35 C-10.66 35 -11.32 35 -12 35 C-12.33 32.69 -12.66 30.38 -13 28 C-12.34 28 -11.68 28 -11 28 C-10.87625 27.2575 -10.7525 26.515 -10.625 25.75 C-10.04513299 23.19858515 -9.26291261 21.2732427 -8 19 C-7.34 19 -6.68 19 -6 19 C-6.061875 17.453125 -6.061875 17.453125 -6.125 15.875 C-5.9807894 11.4044714 -4.98943912 7.97887824 -3 4 C-2.01 4 -1.02 4 0 4 C0 2.68 0 1.36 0 0 Z " fill="#DA2F38" transform="translate(143,166)"/>
<path d="M0 0 C1.11083984 1.66113281 1.11083984 1.66113281 2 4 C1.40087891 6.56542969 1.40087891 6.56542969 0.2265625 9.421875 C-0.1859375 10.44667969 -0.5984375 11.47148437 -1.0234375 12.52734375 C-1.46945312 13.59082031 -1.91546875 14.65429688 -2.375 15.75 C-2.81328125 16.82894531 -3.2515625 17.90789062 -3.703125 19.01953125 C-4.7884413 21.68563433 -5.88775458 24.34504424 -7 27 C-7.33 27 -7.66 27 -8 27 C-8 25.35 -8 23.7 -8 22 C-8.66 22 -9.32 22 -10 22 C-11.125 16.375 -11.125 16.375 -10 13 C-7.9375 11.8125 -7.9375 11.8125 -6 11 C-5.67 11.33 -5.34 11.66 -5 12 C-4.67 11.34 -4.34 10.68 -4 10 C-3.34 10 -2.68 10 -2 10 C-2.04125 9.0925 -2.0825 8.185 -2.125 7.25 C-2.00468444 4.1217954 -1.6085292 2.61385994 0 0 Z " fill="#E01D2A" transform="translate(259,293)"/>
<path d="M0 0 C1.58927373 5.09239119 -0.36380125 9.09140374 -2 14 C-2.66 14 -3.32 14 -4 14 C-3.95875 15.093125 -3.9175 16.18625 -3.875 17.3125 C-4 21 -4 21 -6 24 C-6.66 24 -7.32 24 -8 24 C-8 26.31 -8 28.62 -8 31 C-8.66 31 -9.32 31 -10 31 C-10.66 34.3 -11.32 37.6 -12 41 C-12.66 41 -13.32 41 -14 41 C-13.47422883 35.17957109 -12.2700533 30.39043016 -10.05859375 25 C-9.6278933 23.91827515 -9.6278933 23.91827515 -9.18849182 22.81469727 C-8.28027338 20.53949557 -7.35916259 18.26978409 -6.4375 16 C-5.81489101 14.44696076 -5.19313799 12.89357807 -4.57226562 11.33984375 C-3.05803657 7.5558562 -1.53223216 3.77673148 0 0 Z " fill="#D6454A" transform="translate(141,286)"/>
<path d="M0 0 C0.66 0 1.32 0 2 0 C-0.18067409 7.94300145 -3.08106048 15.502923 -6.1875 23.125 C-6.88262695 24.84589844 -6.88262695 24.84589844 -7.59179688 26.6015625 C-8.72391166 29.40267125 -9.86004534 32.20207482 -11 35 C-12.09436179 30.86490287 -12.07127804 27.27668213 -12 23 C-11.34 23 -10.68 23 -10 23 C-9.67 22.01 -9.34 21.02 -9 20 C-8.34 20 -7.68 20 -7 20 C-7 18.35 -7 16.7 -7 15 C-6.34 15 -5.68 15 -5 15 C-5.33 13.02 -5.66 11.04 -6 9 C-5.01 9 -4.02 9 -3 9 C-3 7.68 -3 6.36 -3 5 C-2.34 5 -1.68 5 -1 5 C-0.67 3.35 -0.34 1.7 0 0 Z " fill="#D8424B" transform="translate(462,189)"/>
<path d="M0 0 C0.474375 0.474375 0.94875 0.94875 1.4375 1.4375 C0.4475 1.7675 -0.5425 2.0975 -1.5625 2.4375 C-1.5625 1.7775 -1.5625 1.1175 -1.5625 0.4375 C-10.35026523 0.73552437 -10.35026523 0.73552437 -17.5625 5.4375 C-20.375 5.6875 -20.375 5.6875 -22.5625 5.4375 C-22.5625 6.7575 -22.5625 8.0775 -22.5625 9.4375 C-24.5425 10.4275 -24.5425 10.4275 -26.5625 11.4375 C-25.29454177 5.52036157 -22.3945635 2.73023526 -17.5625 -0.5625 C-11.92428156 -3.38160922 -5.41311356 -3.300679 0 0 Z " fill="#D90D19" transform="translate(461.5625,150.5625)"/>
<path d="M0 0 C0 0.33 0 0.66 0 1 C-3.96 0.67 -7.92 0.34 -12 0 C-12 -0.66 -12 -1.32 -12 -2 C-15.81248345 -2.02936502 -19.62493726 -2.04692035 -23.4375 -2.0625 C-24.50677734 -2.07087891 -25.57605469 -2.07925781 -26.67773438 -2.08789062 C-32.87624228 -2.10684631 -38.8549481 -1.82063259 -45 -1 C-31.73430152 -9.84379899 -13.85172099 -4.48898365 0 0 Z " fill="#D9535A" transform="translate(351,123)"/>
<path d="M0 0 C0.33 0 0.66 0 1 0 C0.61020794 6.55925943 -0.42113193 11.94526627 -3 18 C-3.66 18 -4.32 18 -5 18 C-5 19.98 -5 21.96 -5 24 C-5.66 24 -6.32 24 -7 24 C-7.2165625 25.1446875 -7.2165625 25.1446875 -7.4375 26.3125 C-8 29 -8 29 -9 32 C-10.485 32.495 -10.485 32.495 -12 33 C-9.88804509 25.43137471 -7.22216627 18.17004844 -4.3125 10.875 C-3.68891602 9.2971875 -3.68891602 9.2971875 -3.05273438 7.6875 C-2.03880049 5.12352925 -1.02117166 2.56109468 0 0 Z " fill="#D83641" transform="translate(180,187)"/>
<path d="M0 0 C0.76503679 2.86398387 1.30890618 5.68475192 1.6875 8.625 C1.79449219 9.40101563 1.90148437 10.17703125 2.01171875 10.9765625 C2 13 2 13 0 15 C-0.99 15 -1.98 15 -3 15 C-3 15.66 -3 16.32 -3 17 C-3.66 17 -4.32 17 -5 17 C-4.67 20.96 -4.34 24.92 -4 29 C-6.92694022 24.60958967 -6.75979769 21.16029263 -6 16 C-4.38971262 10.52844344 -2.19234169 5.25901013 0 0 Z " fill="#DD3F47" transform="translate(316,263)"/>
<path d="M0 0 C0.99 0.33 1.98 0.66 3 1 C2.79503906 1.60328125 2.59007812 2.2065625 2.37890625 2.828125 C2.10949219 3.62734375 1.84007812 4.4265625 1.5625 5.25 C1.29566406 6.03890625 1.02882812 6.8278125 0.75390625 7.640625 C-1.96184132 16.13964848 -1.57291743 22.81206422 2 31 C1.34 31.33 0.68 31.66 0 32 C0 31.34 0 30.68 0 30 C-0.99 29.67 -1.98 29.34 -3 29 C-4.66663557 21.08348105 -4.65825224 13.64247519 -2 6 C-1.34 6 -0.68 6 0 6 C0 4.02 0 2.04 0 0 Z " fill="#D7474D" transform="translate(165,320)"/>
<path d="M0 0 C0.99 0.33 1.98 0.66 3 1 C1.0173911 8.06512428 -1.407044 14.83726835 -4.1875 21.625 C-4.73954102 22.98818359 -4.73954102 22.98818359 -5.30273438 24.37890625 C-6.19783479 26.58759559 -7.0969535 28.79455048 -8 31 C-8.97591583 27.61682513 -8.85856655 25.4342662 -8 22 C-7.34 22 -6.68 22 -6 22 C-6 20.02 -6 18.04 -6 16 C-5.34 16 -4.68 16 -4 16 C-4 14.35 -4 12.7 -4 11 C-3.34 11 -2.68 11 -2 11 C-2 9.68 -2 8.36 -2 7 C-1.34 7 -0.68 7 0 7 C0 4.69 0 2.38 0 0 Z " fill="#D7434B" transform="translate(277,245)"/>
<path d="M0 0 C0.66 0.99 1.32 1.98 2 3 C1.34 3 0.68 3 0 3 C-0.12375 3.556875 -0.2475 4.11375 -0.375 4.6875 C-1.36991762 8.36869519 -2.27565846 11.27565846 -5 14 C-5.59834554 15.52056618 -6.13506656 17.06612088 -6.625 18.625 C-6.88539063 19.44226563 -7.14578125 20.25953125 -7.4140625 21.1015625 C-7.60742188 21.72804687 -7.80078125 22.35453125 -8 23 C-8.66 23 -9.32 23 -10 23 C-10.33 24.98 -10.66 26.96 -11 29 C-11.66 28.67 -12.32 28.34 -13 28 C-10.20869368 18.2304279 -5.64008349 8.46012524 0 0 Z " fill="#DB4C55" transform="translate(283,142)"/>
<path d="M0 0 C0.33 0 0.66 0 1 0 C1 2.64 1 5.28 1 8 C0.34 8 -0.32 8 -1 8 C-0.938125 8.7425 -0.87625 9.485 -0.8125 10.25 C-1 13 -1 13 -2.4375 14.875 C-4.57616551 17.78358509 -4.65985822 20.46252551 -5 24 C-5.66 24 -6.32 24 -7 24 C-7.103125 24.78375 -7.20625 25.5675 -7.3125 26.375 C-8 29 -8 29 -11 31 C-8.96150996 23.80613443 -6.51843632 16.84290835 -3.8125 9.875 C-3.44447266 8.91851562 -3.07644531 7.96203125 -2.69726562 6.9765625 C-1.80144555 4.64975711 -0.90232227 2.32428979 0 0 Z " fill="#DA4A53" transform="translate(48,312)"/>
<path d="M0 0 C0.66 0 1.32 0 2 0 C2.83090317 3.32361268 3.33387573 5.77646698 2 9 C1.01 9.66 0.02 10.32 -1 11 C-1.33 11.99 -1.66 12.98 -2 14 C-2.66 14 -3.32 14 -4 14 C-3.896875 14.886875 -3.79375 15.77375 -3.6875 16.6875 C-4.09498572 21.00684858 -5.7722703 22.25642975 -9 25 C-6.68860831 16.38296958 -3.39204534 8.23311977 0 0 Z " fill="#D93137" transform="translate(217,304)"/>
<path d="M0 0 C1.32 0 2.64 0 4 0 C3.31583566 4.17576168 1.98634991 7.88080407 0.4375 11.8125 C-0.01753906 12.97394531 -0.47257813 14.13539063 -0.94140625 15.33203125 C-1.29074219 16.21246094 -1.64007813 17.09289062 -2 18 C-2.33 18 -2.66 18 -3 18 C-2.96744792 15.94921875 -2.93489583 13.8984375 -2.90234375 11.84765625 C-2.79438816 9.98267859 -2.79438816 9.98267859 -4 9 C-4.04063832 7.33382885 -4.042721 5.66611905 -4 4 C-3.01 3.67 -2.02 3.34 -1 3 C-0.67 2.01 -0.34 1.02 0 0 Z " fill="#E1242F" transform="translate(238,343)"/>
<path d="M0 0 C0.33 0 0.66 0 1 0 C1.33 4.29 1.66 8.58 2 13 C2.66 13 3.32 13 4 13 C7 17.38461538 7 17.38461538 7 20 C7.99 20 8.98 20 10 20 C10 20.66 10 21.32 10 22 C11.65 22 13.3 22 15 22 C14.01 22.66 13.02 23.32 12 24 C7.49991735 22.93419095 4.90173119 20.51262197 2 17 C-1.26033739 11.25679028 -1.22436769 6.37261255 0 0 Z " fill="#D54C54" transform="translate(29,361)"/>
<path d="M0 0 C0.33 0 0.66 0 1 0 C1.84681133 5.08086796 2.09038099 9.84828377 2 15 C1.34 14.67 0.68 14.34 0 14 C-1.67654729 14.27942455 -3.34608154 14.60828247 -5 15 C-4.37321829 11.33827525 -3.35548154 8.1181005 -1.9375 4.6875 C-1.39416016 3.36298828 -1.39416016 3.36298828 -0.83984375 2.01171875 C-0.56269531 1.34785156 -0.28554687 0.68398437 0 0 Z " fill="#DC2F37" transform="translate(76,241)"/>
<path d="M0 0 C1.07174763 3.65188082 0.76411467 6.26432828 0 10 C-0.66 10 -1.32 10 -2 10 C-1.94199219 10.68707031 -1.88398438 11.37414062 -1.82421875 12.08203125 C-1.68822412 14.79803821 -1.63091901 17.30353769 -2 20 C-4.5 22.125 -4.5 22.125 -7 23 C-8 21 -8 21 -7.37915039 18.84521484 C-7.03875732 17.97590332 -6.69836426 17.1065918 -6.34765625 16.2109375 C-5.98349609 15.26992187 -5.61933594 14.32890625 -5.24414062 13.359375 C-4.85419922 12.37453125 -4.46425781 11.3896875 -4.0625 10.375 C-3.48338867 8.88613281 -3.48338867 8.88613281 -2.89257812 7.3671875 C-1.93518863 4.90870583 -0.97074241 2.45323318 0 0 Z " fill="#D8343C" transform="translate(423,190)"/>
<path d="M0 0 C0.33 0 0.66 0 1 0 C1.28558694 5.61654319 1.10171075 8.21819592 -2 13 C-1.95875 13.825 -1.9175 14.65 -1.875 15.5 C-2 18 -2 18 -4.5 20.8125 C-5.7375 21.8953125 -5.7375 21.8953125 -7 23 C-8 21 -8 21 -7.37915039 18.84521484 C-7.03875732 17.97590332 -6.69836426 17.1065918 -6.34765625 16.2109375 C-5.98349609 15.26992188 -5.61933594 14.32890625 -5.24414062 13.359375 C-4.85419922 12.37453125 -4.46425781 11.3896875 -4.0625 10.375 C-3.48338867 8.88613281 -3.48338867 8.88613281 -2.89257812 7.3671875 C-1.93518863 4.90870583 -0.97074241 2.45323318 0 0 Z " fill="#D84B54" transform="translate(236,255)"/>
<path d="M0 0 C-1.48362284 6.26418531 -5.24162156 10.91513505 -9 16 C-9.66 15.01 -10.32 14.02 -11 13 C-10.25 9.875 -10.25 9.875 -9 7 C-8.34 6.67 -7.68 6.34 -7 6 C-6.67 5.34 -6.34 4.68 -6 4 C-5.34 4.33 -4.68 4.66 -4 5 C-4 3.68 -4 2.36 -4 1 C-2 0 -2 0 0 0 Z " fill="#DE2E36" transform="translate(235,361)"/>
<path d="M0 0 C1 2 1 2 0.28735352 4.24658203 C-0.09493408 5.15778809 -0.47722168 6.06899414 -0.87109375 7.0078125 C-1.28037109 7.99394531 -1.68964844 8.98007812 -2.11132812 9.99609375 C-2.7677832 11.54490234 -2.7677832 11.54490234 -3.4375 13.125 C-4.0881543 14.68541016 -4.0881543 14.68541016 -4.75195312 16.27734375 C-5.82775422 18.85453757 -6.91069378 21.42849195 -8 24 C-8.33 24 -8.66 24 -9 24 C-9 21.36 -9 18.72 -9 16 C-8.34 16 -7.68 16 -7 16 C-7 14.68 -7 13.36 -7 12 C-6.34 12 -5.68 12 -5 12 C-5 10.35 -5 8.7 -5 7 C-4.34 7 -3.68 7 -3 7 C-2.814375 5.5459375 -2.814375 5.5459375 -2.625 4.0625 C-2.41875 3.051875 -2.2125 2.04125 -2 1 C-1.34 0.67 -0.68 0.34 0 0 Z " fill="#DA555D" transform="translate(182,283)"/>
<path d="M0 0 C2.58774662 4.71766114 1.52192125 7.190673 0.0625 12.25 C-1 15 -1 15 -3 16 C-3.66 16.99 -4.32 17.98 -5 19 C-6.4216868 14.73493961 -4.65386682 11.79962257 -3.0625 7.8125 C-2.77181641 7.06291016 -2.48113281 6.31332031 -2.18164062 5.54101562 C-1.46274964 3.69075523 -0.73245347 1.84493352 0 0 Z " fill="#DA2937" transform="translate(341,199)"/>
<path d="M0 0 C0.99 0.99 1.98 1.98 3 3 C2 6 2 6 0 7 C-0.84302877 9.40612912 -0.84302877 9.40612912 -1.5 12.25 C-2.42656598 15.97640667 -3.50201207 19.46164919 -5 23 C-5.99 23 -6.98 23 -8 23 C-5.81659819 15.13620323 -3.00714974 7.58324716 0 0 Z " fill="#D9454D" transform="translate(412,218)"/>
<path d="M0 0 C3.65011302 1.17325061 5.45359712 3.38879935 7.2421875 6.7265625 C8.77070554 11.31211661 8.59803766 16.24351445 8 21 C7.34 21.99 6.68 22.98 6 24 C6.061875 22.741875 6.12375 21.48375 6.1875 20.1875 C6.21469658 14.49434896 4.69405347 9.3947536 3 4 C2.01 4 1.02 4 0 4 C0 2.68 0 1.36 0 0 Z " fill="#D74852" transform="translate(463,152)"/>
<path d="M0 0 C2.07122733 7.37675578 -0.65463842 13.00154786 -3.6484375 19.7421875 C-5 22 -5 22 -8 23 C-5.81659819 15.13620323 -3.00714974 7.58324716 0 0 Z " fill="#D93C47" transform="translate(403,241)"/>
<path d="M0 0 C2.64 0 5.28 0 8 0 C8 1.32 8 2.64 8 4 C8.66 4.33 9.32 4.66 10 5 C9.34 5 8.68 5 8 5 C8.33 6.98 8.66 8.96 9 11 C1.33257403 5.03416856 1.33257403 5.03416856 0 0 Z " fill="#DC353F" transform="translate(135,369)"/>
<path d="M0 0 C0.33 0 0.66 0 1 0 C1 3.96 1 7.92 1 12 C0.01 12.495 0.01 12.495 -1 13 C-1.56134328 15.27655884 -1.89246368 17.55324334 -2.2421875 19.87109375 C-3 22 -3 22 -5.0703125 23.28515625 C-5.70710938 23.52105469 -6.34390625 23.75695312 -7 24 C-5.53807416 19.03359944 -4.04939184 14.08695198 -2.375 9.1875 C-1.34502589 6.14611047 -0.51272865 3.17891763 0 0 Z " fill="#D63D47" transform="translate(349,175)"/>
<path d="M0 0 C1.32 0.33 2.64 0.66 4 1 C5.13407654 4.67883365 5.23588073 8.2275038 5.3125 12.0625 C5.36857422 13.90521484 5.36857422 13.90521484 5.42578125 15.78515625 C5 19 5 19 2.98046875 20.93359375 C2.32691406 21.28550781 1.67335937 21.63742188 1 22 C1.165 21.38125 1.33 20.7625 1.5 20.125 C2.6254903 13.09068564 2.33946419 6.72595956 0 0 Z " fill="#D63E46" transform="translate(180,165)"/>
<path d="M0 0 C0.66 0 1.32 0 2 0 C1.47606294 5.86809507 0.23891142 10.54873741 -2 16 C-2.66 16 -3.32 16 -4 16 C-4.33 13.69 -4.66 11.38 -5 9 C-4.34 9 -3.68 9 -3 9 C-2.87625 8.2575 -2.7525 7.515 -2.625 6.75 C-2.04513299 4.19858515 -1.26291261 2.2732427 0 0 Z " fill="#D72E35" transform="translate(135,185)"/>
<path d="M0 0 C0.33 0 0.66 0 1 0 C1 2.64 1 5.28 1 8 C0.34 8 -0.32 8 -1 8 C-1.2165625 9.3303125 -1.2165625 9.3303125 -1.4375 10.6875 C-1.91019978 13.47117646 -2.43070185 16.23483757 -3 19 C-4.32 19.33 -5.64 19.66 -7 20 C-5.07443364 13.14381674 -2.7527517 6.56747868 0 0 Z " fill="#DB444E" transform="translate(84,220)"/>
<path d="M0 0 C0.99 0.33 1.98 0.66 3 1 C1.07443364 7.85618326 -1.2472483 14.43252132 -4 21 C-4.33 21 -4.66 21 -5 21 C-4.67 17.7 -4.34 14.4 -4 11 C-3.34 11 -2.68 11 -2 11 C-2 9.02 -2 7.04 -2 5 C-1.34 5 -0.68 5 0 5 C0 3.35 0 1.7 0 0 Z " fill="#D9464F" transform="translate(447,224)"/>
<path d="M0 0 C0.33 0 0.66 0 1 0 C0.67 3.3 0.34 6.6 0 10 C-0.66 10 -1.32 10 -2 10 C-2 12.64 -2 15.28 -2 18 C-3.65 18.66 -5.3 19.32 -7 20 C-5.07443364 13.14381674 -2.7527517 6.56747868 0 0 Z " fill="#D9454E" transform="translate(431,170)"/>
<path d="M0 0 C1.42603626 2.27625977 2.11478947 3.41809429 1.58447266 6.10644531 C1.2807373 6.83959961 0.97700195 7.57275391 0.6640625 8.328125 C0.18066406 9.52695312 0.18066406 9.52695312 -0.3125 10.75 C-0.8384375 11.9875 -0.8384375 11.9875 -1.375 13.25 C-1.88933594 14.51070313 -1.88933594 14.51070313 -2.4140625 15.796875 C-3.26242958 17.87066119 -4.124667 19.93748473 -5 22 C-5.33 22 -5.66 22 -6 22 C-5.67 18.7 -5.34 15.4 -5 12 C-4.34 12 -3.68 12 -3 12 C-3 10.68 -3 9.36 -3 8 C-2.34 8 -1.68 8 -1 8 C-0.67 5.36 -0.34 2.72 0 0 Z " fill="#DA4C55" transform="translate(358,252)"/>
<path d="M0 0 C10.68430493 -0.76681614 10.68430493 -0.76681614 13.91015625 1.11328125 C15.25 2.5 15.25 2.5 17 5 C16.195625 4.67 15.39125 4.34 14.5625 4 C8.52526801 2.30533839 2.69347049 2.06143458 -3 5 C-3 4.01 -3 3.02 -3 2 C-2.01 2 -1.02 2 0 2 C0 1.34 0 0.68 0 0 Z " fill="#D9545A" transform="translate(323,155)"/>
<path d="M0 0 C1.423125 0.7425 1.423125 0.7425 2.875 1.5 C2.875 2.16 2.875 2.82 2.875 3.5 C1.988125 3.17 1.10125 2.84 0.1875 2.5 C-5.43809323 0.84951604 -11.32345814 1.34296578 -17.125 1.5 C-17.125 0.84 -17.125 0.18 -17.125 -0.5 C-11.52691786 -2.36602738 -5.45237362 -2.35898614 0 0 Z " fill="#D8454E" transform="translate(172.125,156.5)"/>
<path d="M0 0 C1.1700097 3.91736581 0.69584017 6.97959015 0 11 C-0.66 11 -1.32 11 -2 11 C-2 12.65 -2 14.3 -2 16 C-2.66 16 -3.32 16 -4 16 C-4.33 16.99 -4.66 17.98 -5 19 C-6.4216868 14.73493961 -4.65386682 11.79962257 -3.0625 7.8125 C-2.77181641 7.06291016 -2.48113281 6.31332031 -2.18164062 5.54101562 C-1.46274964 3.69075523 -0.73245347 1.84493352 0 0 Z " fill="#D94A52" transform="translate(59,284)"/>
<path d="M0 0 C0.99 0 1.98 0 3 0 C0.80962826 6.72045875 -1.55765661 13.36724003 -4 20 C-5.07174763 16.34811918 -4.76411467 13.73567172 -4 10 C-3.34 10 -2.68 10 -2 10 C-2 8.35 -2 6.7 -2 5 C-1.34 5 -0.68 5 0 5 C0 3.35 0 1.7 0 0 Z " fill="#D94E56" transform="translate(99,278)"/>
<path d="M0 0 C0.99 0 1.98 0 3 0 C-0.07517084 10.55808656 -0.07517084 10.55808656 -2 15 C-3.0625 13.1875 -3.0625 13.1875 -4 11 C-3.19315107 8.57945321 -2.33732102 6.19898183 -1.4375 3.8125 C-1.03337891 2.73935547 -1.03337891 2.73935547 -0.62109375 1.64453125 C-0.41613281 1.10183594 -0.21117188 0.55914062 0 0 Z " fill="#D93A40" transform="translate(109,252)"/>
<path d="M0 0 C5.26170694 1.41167747 8.72171358 3.74850232 13 7 C12.34 7.66 11.68 8.32 11 9 C8.54901444 8.60467975 6.36095721 7.78698574 4 7 C3.67 6.01 3.34 5.02 3 4 C2.01979625 2.9805881 1.02196992 1.97753644 0 1 C0 0.67 0 0.34 0 0 Z " fill="#D94149" transform="translate(351,124)"/>
<path d="M0 0 C0.66 0 1.32 0 2 0 C-1.07517084 10.55808656 -1.07517084 10.55808656 -3 15 C-3.33 15 -3.66 15 -4 15 C-4 10.38 -4 5.76 -4 1 C-2.68 1.33 -1.36 1.66 0 2 C0 1.34 0 0.68 0 0 Z " fill="#DA3A43" transform="translate(92,298)"/>
<path d="M0 0 C0.33 0.66 0.66 1.32 1 2 C1.99 2 2.98 2 4 2 C4 3.32 4 4.64 4 6 C2.35 5.67 0.7 5.34 -1 5 C-1.33 6.65 -1.66 8.3 -2 10 C-2.99 10.33 -3.98 10.66 -5 11 C-4.55123384 9.35153231 -4.09069512 7.70626545 -3.625 6.0625 C-3.36976563 5.14597656 -3.11453125 4.22945313 -2.8515625 3.28515625 C-2 1 -2 1 0 0 Z " fill="#D80E15" transform="translate(148,272)"/>
<path d="M0 0 C7 8.20689655 7 8.20689655 7 13 C6.38125 12.814375 5.7625 12.62875 5.125 12.4375 C2.95839822 11.76313824 2.95839822 11.76313824 1 13 C1.020625 11.865625 1.04125 10.73125 1.0625 9.5625 C1.41577477 6.18424326 1.41577477 6.18424326 0 5 C-0.04063832 3.33382885 -0.042721 1.66611905 0 0 Z " fill="#DA3A40" transform="translate(375,143)"/>
<path d="M0 0 C0.99 0 1.98 0 3 0 C-0.07517084 10.55808656 -0.07517084 10.55808656 -2 15 C-2.66 14.67 -3.32 14.34 -4 14 C-3.67 11.69 -3.34 9.38 -3 7 C-2.01 6.67 -1.02 6.34 0 6 C0 4.02 0 2.04 0 0 Z " fill="#D8424C" transform="translate(439,245)"/>
<path d="M0 0 C0.93423645 3.01031744 1.04449911 3.86650268 0 7 C0.66 7.33 1.32 7.66 2 8 C-1.625 13.875 -1.625 13.875 -5 15 C-1.92482916 4.44191344 -1.92482916 4.44191344 0 0 Z " fill="#DA444D" transform="translate(245,232)"/>
<path d="M0 0 C0.66 0.33 1.32 0.66 2 1 C-1.07517084 11.55808656 -1.07517084 11.55808656 -3 16 C-3.33 16 -3.66 16 -4 16 C-4 11.71 -4 7.42 -4 3 C-3.01 3.33 -2.02 3.66 -1 4 C-0.67 2.68 -0.34 1.36 0 0 Z " fill="#DA444B" transform="translate(116,236)"/>
<path d="M0 0 C0.33 0 0.66 0 1 0 C0.67 2.97 0.34 5.94 0 9 C-0.66 9 -1.32 9 -2 9 C-2 10.98 -2 12.96 -2 15 C-2.66 15 -3.32 15 -4 15 C-4.33 15.99 -4.66 16.98 -5 18 C-6 16 -6 16 -4.78515625 12.3046875 C-4.21866415 10.82514342 -3.64408111 9.34867819 -3.0625 7.875 C-2.77181641 7.12089844 -2.48113281 6.36679688 -2.18164062 5.58984375 C-1.46125002 3.72391398 -0.73149596 1.8616042 0 0 Z " fill="#DA5157" transform="translate(323,245)"/>
<path d="M0 0 C0.474375 0.474375 0.94875 0.94875 1.4375 1.4375 C0.4475 1.7675 -0.5425 2.0975 -1.5625 2.4375 C-1.5625 1.7775 -1.5625 1.1175 -1.5625 0.4375 C-6.8425 0.4375 -12.1225 0.4375 -17.5625 0.4375 C-13.00769189 -4.11730811 -5.19625112 -3.1684458 0 0 Z " fill="#D65D66" transform="translate(461.5625,150.5625)"/>
<path d="M0 0 C-6.36214386 3.50444331 -10.86090786 4.55271035 -18 3 C-18 2.67 -18 2.34 -18 2 C-17.41992188 1.95101563 -16.83984375 1.90203125 -16.2421875 1.8515625 C-12.4948792 1.49290923 -9.2154353 1.07181177 -5.625 -0.125 C-3 -1 -3 -1 0 0 Z " fill="#DA5D62" transform="translate(340,299)"/>
<path d="M0 0 C0.99 0 1.98 0 3 0 C3.66 2.64 4.32 5.28 5 8 C3.68 8.33 2.36 8.66 1 9 C-1.125 3.375 -1.125 3.375 0 0 Z " fill="#E01B29" transform="translate(86,215)"/>
<path d="M0 0 C0.66 0 1.32 0 2 0 C1.70100785 3.58790575 1.23013399 4.78166776 -1.4375 7.3125 C-4 9 -4 9 -6 9 C-6.33 7.68 -6.66 6.36 -7 5 C-5.35 5 -3.7 5 -2 5 C-2 4.01 -2 3.02 -2 2 C-1.34 2 -0.68 2 0 2 C0 1.34 0 0.68 0 0 Z " fill="#D53C45" transform="translate(61,375)"/>
<path d="M0 0 C1.1484375 1.578125 1.1484375 1.578125 2 4 C1.1015625 7.234375 1.1015625 7.234375 -0.375 10.75 C-0.85710937 11.92046875 -1.33921875 13.0909375 -1.8359375 14.296875 C-2.22007812 15.18890625 -2.60421875 16.0809375 -3 17 C-3.33 17 -3.66 17 -4 17 C-4 14.69 -4 12.38 -4 10 C-3.34 10 -2.68 10 -2 10 C-2.04125 9.0925 -2.0825 8.185 -2.125 7.25 C-2.00468444 4.1217954 -1.6085292 2.61385994 0 0 Z " fill="#DA5055" transform="translate(259,293)"/>
<path d="M0 0 C0.33 0 0.66 0 1 0 C0.88512252 1.58409994 0.75765492 3.16728963 0.625 4.75 C0.55539063 5.63171875 0.48578125 6.5134375 0.4140625 7.421875 C-0.00722742 10.04500089 -0.53570697 11.78861868 -2 14 C-2.99 14.33 -3.98 14.66 -5 15 C-1.92482916 4.44191344 -1.92482916 4.44191344 0 0 Z " fill="#DB4D5A" transform="translate(180,187)"/>
<path d="M0 0 C4.43458973 1.3937282 6.87378374 3.60582235 10 7 C8.68 7.33 7.36 7.66 6 8 C6 7.34 6 6.68 6 6 C4.35 5.67 2.7 5.34 1 5 C0.67 3.35 0.34 1.7 0 0 Z " fill="#DB4249" transform="translate(191,127)"/>
<path d="M0 0 C0.66 0 1.32 0 2 0 C-1.07517084 10.55808656 -1.07517084 10.55808656 -3 15 C-3.33 15 -3.66 15 -4 15 C-3.50341703 9.33895411 -2.45489316 5.12325529 0 0 Z " fill="#DB565E" transform="translate(71,352)"/>
<path d="M0 0 C0.99 0 1.98 0 3 0 C-0.07517084 10.55808656 -0.07517084 10.55808656 -2 15 C-3.2380014 11.42355152 -2.74926071 8.66305234 -2 5 C-1.34 5 -0.68 5 0 5 C0 3.35 0 1.7 0 0 Z " fill="#D84E54" transform="translate(377,203)"/>
<path d="M0 0 C0.33 0 0.66 0 1 0 C0.67 3.96 0.34 7.92 0 12 C-1.32 12.33 -2.64 12.66 -4 13 C-3.27991594 8.39146203 -1.68704061 4.32762591 0 0 Z " fill="#D74951" transform="translate(261,191)"/>
<path d="M0 0 C0.66 0 1.32 0 2 0 C1.34 2.31 0.68 4.62 0 7 C-0.66 7 -1.32 7 -2 7 C-2.33 8.98 -2.66 10.96 -3 13 C-3.66 12.67 -4.32 12.34 -5 12 C-4.54738642 10.56068883 -4.08767021 9.12361001 -3.625 7.6875 C-3.24214844 6.48673828 -3.24214844 6.48673828 -2.8515625 5.26171875 C-2 3 -2 3 0 0 Z " fill="#D63C46" transform="translate(275,158)"/>
<path d="M0 0 C1.94218842 4.85547105 -0.43704872 9.31114616 -2 14 C-2.99 14.33 -3.98 14.66 -5 15 C-1.92482916 4.44191344 -1.92482916 4.44191344 0 0 Z " fill="#D94D53" transform="translate(141,286)"/>
<path d="M0 0 C0.66 0.33 1.32 0.66 2 1 C2 1.99 2 2.98 2 4 C0.68 4 -0.64 4 -2 4 C-2 4.66 -2 5.32 -2 6 C0.97 6.495 0.97 6.495 4 7 C2.02 7.99 2.02 7.99 0 9 C-3.81538462 6.53846154 -3.81538462 6.53846154 -4.75 3.8125 C-4.8325 3.214375 -4.915 2.61625 -5 2 C-3.35 2 -1.7 2 0 2 C0 1.34 0 0.68 0 0 Z " fill="#DC2C37" transform="translate(398,292)"/>
<path d="M0 0 C1.94218842 4.85547105 -0.43704872 9.31114616 -2 14 C-2.99 14.33 -3.98 14.66 -5 15 C-1.92482916 4.44191344 -1.92482916 4.44191344 0 0 Z " fill="#DB585E" transform="translate(227,278)"/>
<path d="M0 0 C1.61107914 4.02769785 0.47759396 7.05974943 -1 11 C-3.125 13.4375 -3.125 13.4375 -5 15 C-1.92482916 4.44191344 -1.92482916 4.44191344 0 0 Z " fill="#DA565D" transform="translate(65,269)"/>
<path d="M0 0 C0.99 0 1.98 0 3 0 C-0.07517084 10.55808656 -0.07517084 10.55808656 -2 15 C-2.33 15 -2.66 15 -3 15 C-2.67 12.03 -2.34 9.06 -2 6 C-1.34 6 -0.68 6 0 6 C0 4.02 0 2.04 0 0 Z " fill="#DA5760" transform="translate(363,239)"/>
<path d="M0 0 C0.99 0 1.98 0 3 0 C-0.07517084 10.55808656 -0.07517084 10.55808656 -2 15 C-2.33 15 -2.66 15 -3 15 C-2.67 12.03 -2.34 9.06 -2 6 C-1.34 6 -0.68 6 0 6 C0 4.02 0 2.04 0 0 Z " fill="#D64A52" transform="translate(199,234)"/>
<path d="M0 0 C2 3 2 3 1.609375 5.41015625 C1.32578125 6.28542969 1.0421875 7.16070312 0.75 8.0625 C0.47671875 8.94035156 0.2034375 9.81820312 -0.078125 10.72265625 C-1 13 -1 13 -3 15 C-2.67 11.37 -2.34 7.74 -2 4 C-1.34 4 -0.68 4 0 4 C0 2.68 0 1.36 0 0 Z " fill="#DB464C" transform="translate(291,210)"/>
<path d="M0 0 C1.65 0 3.3 0 5 0 C2.35039045 3.63094642 -0.01824456 5.89851796 -4 8 C-4 6.35 -4 4.7 -4 3 C-2.68 2.34 -1.36 1.68 0 1 C0 0.67 0 0.34 0 0 Z " fill="#DC4F57" transform="translate(220,377)"/>
<path d="M0 0 C1.38111722 2.2747813 2.05694702 3.50171361 1.75 6.1875 C1 8 1 8 -1 9 C-1.65555119 11.52733235 -1.65555119 11.52733235 -2 14 C-2.66 13.67 -3.32 13.34 -4 13 C-3.52140759 11.39566191 -3.04210442 9.79153584 -2.5625 8.1875 C-2.29566406 7.29417969 -2.02882813 6.40085937 -1.75390625 5.48046875 C-1.19612127 3.64526945 -0.60655425 1.81966274 0 0 Z " fill="#DA4A50" transform="translate(34,348)"/>
<path d="M0 0 C0.99 0 1.98 0 3 0 C2.54738642 1.43931117 2.08767021 2.87638999 1.625 4.3125 C1.36976563 5.11300781 1.11453125 5.91351563 0.8515625 6.73828125 C0 9 0 9 -2 12 C-2.33 9.36 -2.66 6.72 -3 4 C-2.01 4 -1.02 4 0 4 C0 2.68 0 1.36 0 0 Z " fill="#DB4C56" transform="translate(143,166)"/>
<path d="M0 0 C0 0.66 0 1.32 0 2 C-0.99 2 -1.98 2 -3 2 C-3 3.65 -3 5.3 -3 7 C-6 7 -9 7 -12 7 C-10.3790787 5.82767315 -8.75313167 4.6622923 -7.125 3.5 C-6.22007812 2.8503125 -5.31515625 2.200625 -4.3828125 1.53125 C-2 0 -2 0 0 0 Z " fill="#DA4A53" transform="translate(139,125)"/>
<path d="M0 0 C1.61107914 4.02769785 0.47759396 7.05974943 -1 11 C-3.125 13.4375 -3.125 13.4375 -5 15 C-1.92482916 4.44191344 -1.92482916 4.44191344 0 0 Z " fill="#DB5C63" transform="translate(213,314)"/>
<path d="M0 0 C1.32 0 2.64 0 4 0 C3.54738642 1.43931117 3.08767021 2.87638999 2.625 4.3125 C2.36976563 5.11300781 2.11453125 5.91351563 1.8515625 6.73828125 C1 9 1 9 -1 12 C-0.67 8.04 -0.34 4.08 0 0 Z " fill="#DC4E55" transform="translate(247,321)"/>
<path d="M0 0 C0.99 0.33 1.98 0.66 3 1 C2.54554036 2.41791408 2.08625056 3.83428046 1.625 5.25 C1.36976563 6.03890625 1.11453125 6.8278125 0.8515625 7.640625 C0.04826333 9.86627958 -0.89711662 11.90931672 -2 14 C-2 11.36 -2 8.72 -2 6 C-1.34 6 -0.68 6 0 6 C0 4.02 0 2.04 0 0 Z " fill="#DC4E57" transform="translate(165,320)"/>
<path d="M0 0 C0.66 0 1.32 0 2 0 C2.8125 2.1875 2.8125 2.1875 3 5 C0.5625 7.8125 0.5625 7.8125 -2 10 C-3 8 -3 8 -2.44140625 6.0546875 C-2.15136719 5.33539063 -1.86132812 4.61609375 -1.5625 3.875 C-1.27503906 3.15054687 -0.98757812 2.42609375 -0.69140625 1.6796875 C-0.46324219 1.12539063 -0.23507813 0.57109375 0 0 Z " fill="#D63A40" transform="translate(231,268)"/>
<path d="M0 0 C1.61107914 4.02769785 0.47759396 7.05974943 -1 11 C-3.125 13.4375 -3.125 13.4375 -5 15 C-1.92482916 4.44191344 -1.92482916 4.44191344 0 0 Z " fill="#D94F53" transform="translate(329,230)"/>
<path d="M0 0 C3.48331435 3.01887244 4.79157144 5.56909529 6 10 C5.34 10 4.68 10 4 10 C4 9.34 4 8.68 4 8 C2.68 7.67 1.36 7.34 0 7 C0 4.69 0 2.38 0 0 Z " fill="#DA484F" transform="translate(209,143)"/>
<path d="M0 0 C-1.20381448 2.49361571 -2.45428722 4.68143083 -4 7 C-6.625 7.1875 -6.625 7.1875 -9 7 C-3.34042553 0 -3.34042553 0 0 0 Z " fill="#DA444E" transform="translate(301,125)"/>
<path d="M0 0 C1.32 0.33 2.64 0.66 4 1 C3.71758359 2.46015291 3.42373386 3.91809793 3.125 5.375 C2.96257812 6.18710938 2.80015625 6.99921875 2.6328125 7.8359375 C2 10 2 10 0 12 C0 8.04 0 4.08 0 0 Z " fill="#D93F47" transform="translate(214,191)"/>
<path d="M0 0 C0.33 0 0.66 0 1 0 C1.08226668 3.04386724 0.97608217 5.07175348 0 8 C-1.32 7.67 -2.64 7.34 -4 7 C-4 7.66 -4 8.32 -4 9 C-4.66 8.67 -5.32 8.34 -6 8 C-5.02471263 6.66382648 -4.04466681 5.3311249 -3.0625 4 C-2.24458984 2.88625 -2.24458984 2.88625 -1.41015625 1.75 C-0.94480469 1.1725 -0.47945313 0.595 0 0 Z " fill="#DC454E" transform="translate(121,137)"/>
<path d="M0 0 C-0.33 1.65 -0.66 3.3 -1 5 C-2.32 5.33 -3.64 5.66 -5 6 C-5.66 4.68 -6.32 3.36 -7 2 C-2.25 0 -2.25 0 0 0 Z " fill="#DD2532" transform="translate(368,233)"/>
<path d="M0 0 C2.08954032 4.17908064 2.16552619 4.80410573 1 9 C-0.32 9.33 -1.64 9.66 -3 10 C-2.01 6.7 -1.02 3.4 0 0 Z " fill="#DE434D" transform="translate(341,199)"/>
<path d="M0 0 C0.66 0 1.32 0 2 0 C2.36789096 4.29206125 1.48155943 6.50743487 -1 10 C-1.98670869 11.01311695 -2.98447708 12.01576771 -4 13 C-3.52140759 11.39566191 -3.04210442 9.79153584 -2.5625 8.1875 C-2.29566406 7.29417969 -2.02882813 6.40085938 -1.75390625 5.48046875 C-1.19612127 3.64526945 -0.60655425 1.81966274 0 0 Z " fill="#DB4E58" transform="translate(103,171)"/>
<path d="M0 0 C0 0.66 0 1.32 0 2 C-0.639375 2.45375 -1.27875 2.9075 -1.9375 3.375 C-4.17472953 4.7935944 -4.17472953 4.7935944 -4.5 7.0625 C-5 9 -5 9 -7.0625 10.25 C-7.701875 10.4975 -8.34125 10.745 -9 11 C-7.84101462 6.46942077 -5.51745129 0 0 0 Z " fill="#D84E56" transform="translate(444,151)"/>
<path d="M0 0 C-3.74525799 3.74525799 -7.98270909 3.68909949 -13 4 C-13 3.34 -13 2.68 -13 2 C-4.57142857 -0.28571429 -4.57142857 -0.28571429 0 0 Z " fill="#DA5A60" transform="translate(417,299)"/>
<path d="M0 0 C0.99 0 1.98 0 3 0 C2.54965877 1.62723299 2.08944646 3.25173664 1.625 4.875 C1.36976563 5.77992188 1.11453125 6.68484375 0.8515625 7.6171875 C0 10 0 10 -2 12 C-2 10.02 -2 8.04 -2 6 C-1.34 6 -0.68 6 0 6 C0 4.02 0 2.04 0 0 Z " fill="#D8515B" transform="translate(263,282)"/>
<path d="M0 0 C0.99 0 1.98 0 3 0 C2.54738642 1.43931117 2.08767021 2.87638999 1.625 4.3125 C1.36976563 5.11300781 1.11453125 5.91351563 0.8515625 6.73828125 C0 9 0 9 -2 12 C-2 9.69 -2 7.38 -2 5 C-1.34 5 -0.68 5 0 5 C0 3.35 0 1.7 0 0 Z " fill="#DA4E57" transform="translate(433,261)"/>
<path d="M0 0 C1.38087404 3.83576122 0.94284862 7.08355188 0 11 C-2.05078125 12.2109375 -2.05078125 12.2109375 -4 13 C-3.52140759 11.39566191 -3.04210442 9.79153584 -2.5625 8.1875 C-2.29566406 7.29417969 -2.02882813 6.40085938 -1.75390625 5.48046875 C-1.19612127 3.64526945 -0.60655425 1.81966274 0 0 Z " fill="#DB4E57" transform="translate(403,241)"/>
<path d="M0 0 C1.07174763 3.65188082 0.76411467 6.26432828 0 10 C-0.66 10 -1.32 10 -2 10 C-2.33 11.32 -2.66 12.64 -3 14 C-4.25955231 10.22134307 -3.48087189 8.96588214 -2.0625 5.3125 C-1.68222656 4.31863281 -1.30195313 3.32476562 -0.91015625 2.30078125 C-0.60980469 1.54152344 -0.30945313 0.78226563 0 0 Z " fill="#D8555B" transform="translate(423,190)"/>
<path d="M0 0 C0.66 0 1.32 0 2 0 C1.54803755 1.60597325 1.08817673 3.20972508 0.625 4.8125 C0.36976563 5.70582031 0.11453125 6.59914062 -0.1484375 7.51953125 C-1 10 -1 10 -3 13 C-2.67 9.7 -2.34 6.4 -2 3 C-1.34 3 -0.68 3 0 3 C0 2.01 0 1.02 0 0 Z " fill="#D9565E" transform="translate(467,176)"/>
<path d="M0 0 C0.99 0 1.98 0 3 0 C1.44499019 3.81684226 -1.03595495 6.19195732 -4 9 C-4 7.35 -4 5.7 -4 4 C-2.68 3.34 -1.36 2.68 0 2 C0 1.34 0 0.68 0 0 Z " fill="#DB414B" transform="translate(316,159)"/>
<path d="M0 0 C1.27118864 0.79109602 2.54193623 1.58290078 3.8125 2.375 C4.52019531 2.81585938 5.22789062 3.25671875 5.95703125 3.7109375 C7.65432039 4.78188476 9.33014358 5.88676239 11 7 C9.35 7.33 7.7 7.66 6 8 C6 7.34 6 6.68 6 6 C5.071875 5.9071875 5.071875 5.9071875 4.125 5.8125 C2 5 2 5 0.75 2.4375 C0.5025 1.633125 0.255 0.82875 0 0 Z " fill="#DB4C55" transform="translate(167,351)"/>
<path d="M0 0 C0.66 0 1.32 0 2 0 C1.39009109 3.55780196 0.4216319 6.6828589 -1 10 C-1.66 9.67 -2.32 9.34 -3 9 C-1.125 2.25 -1.125 2.25 0 0 Z " fill="#D94953" transform="translate(86,313)"/>
<path d="M0 0 C0.66 0 1.32 0 2 0 C2.19878036 3.57804656 2.04108797 5.99208089 0 9 C-0.99 9.33 -1.98 9.66 -3 10 C-2.01 6.7 -1.02 3.4 0 0 Z " fill="#D6414C" transform="translate(171,210)"/>
<path d="M0 0 C0.99 0.33 1.98 0.66 3 1 C2.01 4.3 1.02 7.6 0 11 C-2 8 -2 8 -2 6 C-1.34 6 -0.68 6 0 6 C0 4.02 0 2.04 0 0 Z " fill="#D83F45" transform="translate(125,210)"/>
<path d="M0 0 C1.98 0.495 1.98 0.495 4 1 C3.67 2.32 3.34 3.64 3 5 C1.68 5.33 0.36 5.66 -1 6 C-0.67 4.02 -0.34 2.04 0 0 Z " fill="#DA212F" transform="translate(114,146)"/>
<path d="M0 0 C1.32 0 2.64 0 4 0 C4 0.99 4 1.98 4 3 C5.32 3.33 6.64 3.66 8 4 C6.375 4.6875 6.375 4.6875 4 5 C0.75 3.5625 0.75 3.5625 -2 2 C-1.34 1.34 -0.68 0.68 0 0 Z " fill="#DB3941" transform="translate(155,386)"/>
<path d="M0 0 C2.475 0.495 2.475 0.495 5 1 C5 3.31 5 5.62 5 8 C4.01 8.495 4.01 8.495 3 9 C2.01 6.03 1.02 3.06 0 0 Z " fill="#DB4B53" transform="translate(128,355)"/>
<path d="M0 0 C0.66 0.33 1.32 0.66 2 1 C1.71758359 2.46015291 1.42373386 3.91809793 1.125 5.375 C0.96257812 6.18710937 0.80015625 6.99921875 0.6328125 7.8359375 C0 10 0 10 -2 12 C-2 9.36 -2 6.72 -2 4 C-1.34 4 -0.68 4 0 4 C0 2.68 0 1.36 0 0 Z " fill="#D6333C" transform="translate(175,295)"/>
<path d="M0 0 C0.66 0 1.32 0 2 0 C2.92470553 4.71599818 3.22923777 7.67265609 1 12 C-0.3271261 8.0186217 -0.06915913 4.14954773 0 0 Z " fill="#D7353C" transform="translate(450,212)"/>
<path d="M0 0 C1.37432457 3.81756824 0.67975039 7.07255329 0 11 C-0.99 11.33 -1.98 11.66 -3 12 C-2.49202991 7.6822542 -1.80317221 3.96697886 0 0 Z " fill="#D74E51" transform="translate(91,202)"/>
<path d="M0 0 C0.66 0.33 1.32 0.66 2 1 C1.54917531 2.46067199 1.08906463 3.91848032 0.625 5.375 C0.36976563 6.18710938 0.11453125 6.99921875 -0.1484375 7.8359375 C-1 10 -1 10 -3 12 C-2.67 9.03 -2.34 6.06 -2 3 C-1.34 3 -0.68 3 0 3 C0 2.01 0 1.02 0 0 Z " fill="#D74953" transform="translate(305,176)"/>
<path d="M0 0 C1.98 0 3.96 0 6 0 C2.71195019 2.91227269 0.40114397 4.49701212 -4 5 C-4 4.34 -4 3.68 -4 3 C-2.68 3 -1.36 3 0 3 C0 2.01 0 1.02 0 0 Z " fill="#D8525C" transform="translate(208,386)"/>
<path d="M0 0 C0.66 0.33 1.32 0.66 2 1 C1.01 4.3 0.02 7.6 -1 11 C-1.33 11 -1.66 11 -2 11 C-2 8.36 -2 5.72 -2 3 C-1.34 3 -0.68 3 0 3 C0 2.01 0 1.02 0 0 Z " fill="#DA4950" transform="translate(237,350)"/>
<path d="M0 0 C0.99 0.33 1.98 0.66 3 1 C2.01 4.3 1.02 7.6 0 11 C-0.33 11 -0.66 11 -1 11 C-0.67 7.37 -0.34 3.74 0 0 Z " fill="#D95054" transform="translate(243,332)"/>
<path d="M0 0 C1.65 0.33 3.3 0.66 5 1 C3.25 5.875 3.25 5.875 1 7 C1 5.35 1 3.7 1 2 C0.01 2.495 0.01 2.495 -1 3 C-0.67 2.01 -0.34 1.02 0 0 Z " fill="#DD3B45" transform="translate(419,290)"/>
<path d="M0 0 C0.94314127 3.41610225 1.08065117 6.45134864 1 10 C0.01 10 -0.98 10 -2 10 C-3 8 -3 8 -2.44140625 6.0546875 C-2.15136719 5.33539063 -1.86132812 4.61609375 -1.5625 3.875 C-1.27503906 3.15054687 -0.98757813 2.42609375 -0.69140625 1.6796875 C-0.46324219 1.12539063 -0.23507812 0.57109375 0 0 Z " fill="#DC4B50" transform="translate(316,263)"/>
<path d="M0 0 C1.32 0 2.64 0 4 0 C3.01 2.97 2.02 5.94 1 9 C0.67 9 0.34 9 0 9 C0 6.03 0 3.06 0 0 Z " fill="#DC444E" transform="translate(210,204)"/>
<path d="M0 0 C0.99 0 1.98 0 3 0 C1.7508258 3.45925163 0.32472205 6.14693203 -2 9 C-2 7.35 -2 5.7 -2 4 C-2.66 3.67 -3.32 3.34 -4 3 C-3.01 3 -2.02 3 -1 3 C-0.67 2.01 -0.34 1.02 0 0 Z " fill="#DF4C56" transform="translate(309,168)"/>
<path d="M0 0 C2.76276177 0.52268466 5.3260876 1.10869587 8 2 C7.34 3.32 6.68 4.64 6 6 C3.97945196 4.35830472 1.97956942 2.69088222 0 1 C0 0.67 0 0.34 0 0 Z " fill="#DA434D" transform="translate(340,160)"/>
<path d="M0 0 C1.65 1.65 3.3 3.3 5 5 C4.34 5.66 3.68 6.32 3 7 C2.01 7 1.02 7 0 7 C0 4.69 0 2.38 0 0 Z " fill="#DA3841" transform="translate(204,137)"/>
<path d="M0 0 C0.6875 1.8125 0.6875 1.8125 1 4 C-0.1875 5.8125 -0.1875 5.8125 -2 7 C-4.1875 6.6875 -4.1875 6.6875 -6 6 C-4 4 -2 2 0 0 Z " fill="#DC4B56" transform="translate(199,349)"/>
<path d="M0 0 C0.33 0 0.66 0 1 0 C1 2.64 1 5.28 1 8 C-0.98 8.99 -0.98 8.99 -3 10 C-2.01 6.7 -1.02 3.4 0 0 Z " fill="#DD4E57" transform="translate(52,302)"/>
<path d="M0 0 C0.99 0.33 1.98 0.66 3 1 C2.01 3.97 1.02 6.94 0 10 C-0.33 10 -0.66 10 -1 10 C-0.67 6.7 -0.34 3.4 0 0 Z " fill="#D84950" transform="translate(187,264)"/>
<path d="M0 0 C0.33 0 0.66 0 1 0 C1 2.64 1 5.28 1 8 C-0.98 8.99 -0.98 8.99 -3 10 C-2.01 6.7 -1.02 3.4 0 0 Z " fill="#DC4C55" transform="translate(152,258)"/>
<path d="M0 0 C0.33 0 0.66 0 1 0 C1 2.64 1 5.28 1 8 C-0.98 8.99 -0.98 8.99 -3 10 C-2.01 6.7 -1.02 3.4 0 0 Z " fill="#DF575E" transform="translate(96,189)"/>
<path d="M0 0 C2.51699845 2.51699845 3.10964078 4.57554146 4 8 C3.625 10.375 3.625 10.375 3 12 C2.67 10.35 2.34 8.7 2 7 C1.34 7 0.68 7 0 7 C0 4.69 0 2.38 0 0 Z " fill="#DB5C62" transform="translate(215,153)"/>
<path d="M0 0 C2.64 0 5.28 0 8 0 C8 0.66 8 1.32 8 2 C7.34 2 6.68 2 6 2 C5.67 2.99 5.34 3.98 5 5 C2.5 3.625 2.5 3.625 0 2 C0 1.34 0 0.68 0 0 Z " fill="#DC212B" transform="translate(135,369)"/>
<path d="M0 0 C0.33 0 0.66 0 1 0 C1 2.31 1 4.62 1 7 C-0.98 7.99 -0.98 7.99 -3 9 C-2.01 6.03 -1.02 3.06 0 0 Z " fill="#E05660" transform="translate(203,340)"/>
<path d="M0 0 C0.33 0 0.66 0 1 0 C1.36923077 6.52307692 1.36923077 6.52307692 -0.5 8.9375 C-0.995 9.288125 -1.49 9.63875 -2 10 C-3 8 -3 8 -2.44140625 6.0546875 C-2.15136719 5.33539063 -1.86132812 4.61609375 -1.5625 3.875 C-1.27503906 3.15054687 -0.98757812 2.42609375 -0.69140625 1.6796875 C-0.46324219 1.12539063 -0.23507813 0.57109375 0 0 Z " fill="#DE5A63" transform="translate(146,273)"/>
<path d="M0 0 C0.99 0.33 1.98 0.66 3 1 C2.01 3.97 1.02 6.94 0 10 C-1.00000429 5.99998285 -0.80688405 3.94476647 0 0 Z " fill="#D94C54" transform="translate(349,274)"/>
<path d="M0 0 C0.66 0 1.32 0 2 0 C1.25 7.75 1.25 7.75 -1 10 C-0.67 6.7 -0.34 3.4 0 0 Z " fill="#D54349" transform="translate(353,264)"/>
<path d="M0 0 C0.33 0 0.66 0 1 0 C1 2.64 1 5.28 1 8 C-0.98 8.99 -0.98 8.99 -3 10 C-2.01 6.7 -1.02 3.4 0 0 Z " fill="#D94C51" transform="translate(156,248)"/>
<path d="M0 0 C0.33 0 0.66 0 1 0 C1 2.64 1 5.28 1 8 C-0.98 8.99 -0.98 8.99 -3 10 C-2.01 6.7 -1.02 3.4 0 0 Z " fill="#DD5156" transform="translate(84,220)"/>
<path d="M0 0 C0.33 0 0.66 0 1 0 C1.1875 3.375 1.1875 3.375 1 7 C0.01 7.66 -0.98 8.32 -2 9 C-2.25 3.375 -2.25 3.375 0 0 Z " fill="#D92830" transform="translate(286,138)"/>
<path d="M0 0 C1.32 0 2.64 0 4 0 C4.33 1.32 4.66 2.64 5 4 C5.66 4 6.32 4 7 4 C6.67 4.66 6.34 5.32 6 6 C3.96166576 4.7260411 1.96147874 3.38938077 0 2 C0 1.34 0 0.68 0 0 Z " fill="#D5474D" transform="translate(146,381)"/>
<path d="M0 0 C0.99 0.33 1.98 0.66 3 1 C2.01 3.97 1.02 6.94 0 10 C-1.00000429 5.99998285 -0.80688405 3.94476647 0 0 Z " fill="#DA4D53" transform="translate(81,323)"/>
<path d="M0 0 C0.99 0.33 1.98 0.66 3 1 C2.25 6.75 2.25 6.75 0 9 C0 6.03 0 3.06 0 0 Z " fill="#DC474D" transform="translate(170,306)"/>
<path d="M0 0 C1.65 0 3.3 0 5 0 C5 0.66 5 1.32 5 2 C6.65 2 8.3 2 10 2 C9.01 2.66 8.02 3.32 7 4 C3.93369336 3.1025444 2.26961192 2.26961192 0 0 Z " fill="#D7464B" transform="translate(34,381)"/>
<path d="M0 0 C-0.60183749 2.02045442 -1.27306096 4.02111039 -2 6 C-2.99 6.495 -2.99 6.495 -4 7 C-4 5.02 -4 3.04 -4 1 C-2 0 -2 0 0 0 Z " fill="#DA4C53" transform="translate(235,361)"/>
<path d="M0 0 C0.99 0 1.98 0 3 0 C2.01 2.97 1.02 5.94 0 9 C-0.95904856 5.16380575 -0.91892116 3.67568464 0 0 Z " fill="#DA585E" transform="translate(269,267)"/>
<path d="M0 0 C0.33 0 0.66 0 1 0 C1 2.97 1 5.94 1 9 C0.01 8.67 -0.98 8.34 -2 8 C-1.47731534 5.23723823 -0.89130413 2.6739124 0 0 Z " fill="#DB4B52" transform="translate(434,162)"/>
<path d="M0 0 C1.32 0.33 2.64 0.66 4 1 C2.576875 1.928125 2.576875 1.928125 1.125 2.875 C-1.94445109 4.81970969 -1.94445109 4.81970969 -4 7 C-4 5.68 -4 4.36 -4 3 C-3.01 3 -2.02 3 -1 3 C-0.67 2.01 -0.34 1.02 0 0 Z " fill="#DB5A62" transform="translate(151,158)"/>
</svg>
