<svg id="Layer_1" data-name="Layer 1" xmlns="http://www.w3.org/2000/svg" viewBox="0 0 338.09 213.65"><defs><style>.cls-1{fill:#808035;}</style></defs><path class="cls-1" d="M62.68,105.49a1.7,1.7,0,0,0,.12,1.35,1.57,1.57,0,0,0,1.39.78,2,2,0,0,0,1.08-.33,2.08,2.08,0,0,0,.85-1.11,1.69,1.69,0,0,0-.12-1.36,1.59,1.59,0,0,0-1.4-.76,1.91,1.91,0,0,0-1.06.32,2.1,2.1,0,0,0-.86,1.11"/><path class="cls-1" d="M61.48,112.07a1.52,1.52,0,0,0,1.34.75,2,2,0,0,0,1.84-1.39,1.62,1.62,0,0,0-.11-1.3,1.53,1.53,0,0,0-1.35-.74,1.88,1.88,0,0,0-1,.31,1.83,1.83,0,0,0-.7,2.37"/><path class="cls-1" d="M63.14,114.66a1.83,1.83,0,0,0-1,.3,1.94,1.94,0,0,0-.79,1,1.49,1.49,0,0,0,.11,1.26,1.46,1.46,0,0,0,1.29.74,1.85,1.85,0,0,0,1-.31,1.78,1.78,0,0,0,.68-2.31,1.47,1.47,0,0,0-1.31-.72"/><path class="cls-1" d="M62.77,122.11a1.44,1.44,0,0,0,1.29.72,1.71,1.71,0,0,0,1-.3,1.75,1.75,0,0,0,.68-2.27,1.46,1.46,0,0,0-1.3-.7,1.78,1.78,0,0,0-1,.29,1.75,1.75,0,0,0-.67,2.26"/><path class="cls-1" d="M68.35,125.71a1.47,1.47,0,0,0-.11-1.25,1.45,1.45,0,0,0-1.29-.71,1.78,1.78,0,0,0-1,.29,1.75,1.75,0,0,0-.67,2.27,1.45,1.45,0,0,0,1.28.72,1.79,1.79,0,0,0,1-.3,1.91,1.91,0,0,0,.78-1"/><path class="cls-1" d="M69.28,129.82a1.47,1.47,0,0,0,1.3.73,1.92,1.92,0,0,0,1-.31,1.79,1.79,0,0,0,.67-2.3,1.45,1.45,0,0,0-1.31-.73,1.85,1.85,0,0,0-1,.3,1.8,1.8,0,0,0-.68,2.31"/><path class="cls-1" d="M73.89,132.11a1.54,1.54,0,0,0,1.35.76,1.9,1.9,0,0,0,1-.32,2.08,2.08,0,0,0,.84-1.08,1.63,1.63,0,0,0-.13-1.32,1.51,1.51,0,0,0-1.36-.74,1.84,1.84,0,0,0-1,.3,2,2,0,0,0-.84,1.08,1.63,1.63,0,0,0,.12,1.32"/><path class="cls-1" d="M80.19,133.59a2,2,0,0,0,1.08-.33,2.18,2.18,0,0,0,.87-1.12,1.73,1.73,0,0,0-.12-1.38,1.61,1.61,0,0,0-1.43-.77,2,2,0,0,0-1.81,2.81,1.58,1.58,0,0,0,1.41.79"/><path class="cls-1" d="M85.41,133.1a2.11,2.11,0,0,0,1.14-.34,2,2,0,0,0,.79-2.63,1.67,1.67,0,0,0-1.49-.81,2.08,2.08,0,0,0-1.13.34,2.27,2.27,0,0,0-.91,1.18,1.82,1.82,0,0,0,.13,1.45,1.65,1.65,0,0,0,1.47.81"/><path class="cls-1" d="M92.45,128.35a1.73,1.73,0,0,0-1.55-.84,2.14,2.14,0,0,0-1.17.35,2.35,2.35,0,0,0-1,1.23,1.85,1.85,0,0,0,.13,1.5,1.71,1.71,0,0,0,1.53.86,2.19,2.19,0,0,0,1.19-.37,2.31,2.31,0,0,0,1-1.23,1.89,1.89,0,0,0-.13-1.5"/><path class="cls-1" d="M97.41,125.3a1.81,1.81,0,0,0-1.61-.91,2.36,2.36,0,0,0-1.26.39,2.24,2.24,0,0,0-.87,2.89,1.81,1.81,0,0,0,1.61.91,2.26,2.26,0,0,0,1.26-.4,2.23,2.23,0,0,0,.87-2.88"/><path class="cls-1" d="M97.67,123.73a1.88,1.88,0,0,0,1.69,1,2.41,2.41,0,0,0,1.32-.41,2.36,2.36,0,0,0,.92-3,1.92,1.92,0,0,0-1.7-.94,2.45,2.45,0,0,0-1.31.4,2.36,2.36,0,0,0-.92,3"/><path class="cls-1" d="M58.29,103.11a1.6,1.6,0,0,0,.11,1.31,1.52,1.52,0,0,0,1.35.76,1.85,1.85,0,0,0,1-.32,2,2,0,0,0,.84-1.08,1.63,1.63,0,0,0-.12-1.32,1.54,1.54,0,0,0-1.36-.74,1.89,1.89,0,0,0-1,.31,2,2,0,0,0-.83,1.08"/><path class="cls-1" d="M56.58,108.38a1.57,1.57,0,0,0,.12,1.26,1.45,1.45,0,0,0,1.3.74,1.86,1.86,0,0,0,1-.31,1.79,1.79,0,0,0,.68-2.31,1.46,1.46,0,0,0-1.31-.72,1.85,1.85,0,0,0-1,.3,2,2,0,0,0-.8,1"/><path class="cls-1" d="M57.66,112.44a1.74,1.74,0,0,0-1,.29,1.8,1.8,0,0,0-.75,1,1.51,1.51,0,0,0,.1,1.22,1.42,1.42,0,0,0,1.25.7,1.74,1.74,0,0,0,1-.29,1.88,1.88,0,0,0,.77-1,1.58,1.58,0,0,0-.11-1.23,1.44,1.44,0,0,0-1.26-.69"/><path class="cls-1" d="M57.12,118a1.8,1.8,0,0,0-.74,1,1.44,1.44,0,0,0,.1,1.19,1.37,1.37,0,0,0,1.22.69,1.74,1.74,0,0,0,1.57-2.43,1.38,1.38,0,0,0-1.24-.68,1.73,1.73,0,0,0-.91.27"/><path class="cls-1" d="M59.17,125.6a1.71,1.71,0,0,0,.92-.28,1.64,1.64,0,0,0,.62-2.11,1.36,1.36,0,0,0-1.21-.68,1.7,1.7,0,0,0-1.53,2.4,1.36,1.36,0,0,0,1.2.67"/><path class="cls-1" d="M62.58,129.6a1.62,1.62,0,0,0,.62-2.12,1.38,1.38,0,0,0-1.22-.66,1.7,1.7,0,0,0-1.53,2.39,1.37,1.37,0,0,0,1.21.67,1.71,1.71,0,0,0,.92-.28"/><path class="cls-1" d="M66.76,131.1a1.37,1.37,0,0,0-1.23-.68,1.58,1.58,0,0,0-.92.28,1.64,1.64,0,0,0-.63,2.14,1.35,1.35,0,0,0,1.21.68,1.69,1.69,0,0,0,.94-.28,1.67,1.67,0,0,0,.63-2.14"/><path class="cls-1" d="M71.08,134.89a1.51,1.51,0,0,0-.1-1.22,1.43,1.43,0,0,0-1.27-.69,1.73,1.73,0,0,0-.94.28,1.91,1.91,0,0,0-.76,1,1.51,1.51,0,0,0,.1,1.22,1.4,1.4,0,0,0,1.25.71,1.84,1.84,0,0,0,1-.3,1.8,1.8,0,0,0,.75-1"/><path class="cls-1" d="M73.05,137.28a1.45,1.45,0,0,0,1.3.73,1.84,1.84,0,0,0,1-.31,1.92,1.92,0,0,0,.79-1A1.51,1.51,0,0,0,76,135.4a1.48,1.48,0,0,0-1.32-.72,1.83,1.83,0,0,0-1,.29,2,2,0,0,0-.79,1,1.6,1.6,0,0,0,.11,1.27"/><path class="cls-1" d="M77.83,137.89a1.52,1.52,0,0,0,1.35.75,2,2,0,0,0,1-.31,2.11,2.11,0,0,0,.83-1.08,1.63,1.63,0,0,0-.11-1.32,1.54,1.54,0,0,0-1.37-.75,1.91,1.91,0,0,0-1,.31,2.07,2.07,0,0,0-.83,1.08,1.59,1.59,0,0,0,.12,1.32"/><path class="cls-1" d="M83.07,137.54a1.6,1.6,0,0,0,1.42.79,2.06,2.06,0,0,0,1.1-.34,2,2,0,0,0,.74-2.52,1.59,1.59,0,0,0-1.43-.78,1.91,1.91,0,0,0-1.08.33,2.12,2.12,0,0,0-.87,1.13,1.68,1.68,0,0,0,.12,1.39"/><path class="cls-1" d="M91.82,134.15a1.71,1.71,0,0,0-1.52-.82,2.15,2.15,0,0,0-1.15.34,2.08,2.08,0,0,0-.8,2.68,1.71,1.71,0,0,0,1.5.84,2.06,2.06,0,0,0,1.16-.36,2.29,2.29,0,0,0,.94-1.21,1.83,1.83,0,0,0-.13-1.47"/><path class="cls-1" d="M96.87,131.65a1.77,1.77,0,0,0-1.58-.86,2.16,2.16,0,0,0-1.2.36,2.42,2.42,0,0,0-1,1.26,1.9,1.9,0,0,0,.13,1.52,1.78,1.78,0,0,0,1.56.88,2.26,2.26,0,0,0,1.22-.37,2.17,2.17,0,0,0,.84-2.79"/><path class="cls-1" d="M99.35,131.64a2.42,2.42,0,0,0,1.3-.4,2.3,2.3,0,0,0,.89-3,1.87,1.87,0,0,0-1.65-.91,2.37,2.37,0,0,0-1.29.39,2.29,2.29,0,0,0-.89,3,1.86,1.86,0,0,0,1.64.92"/><path class="cls-1" d="M103.38,127.69a2.51,2.51,0,0,0,1.35-.41,2.4,2.4,0,0,0,.93-3.09,1.93,1.93,0,0,0-1.71-1,2.49,2.49,0,0,0-1.36.41,2.41,2.41,0,0,0-.93,3.09,1.93,1.93,0,0,0,1.72,1"/><path class="cls-1" d="M55.73,99.38a1.78,1.78,0,0,0-1,.3A1.8,1.8,0,0,0,54,102a1.48,1.48,0,0,0,1.32.74,1.87,1.87,0,0,0,1-.31,1.82,1.82,0,0,0,.7-2.34,1.5,1.5,0,0,0-1.34-.73"/><path class="cls-1" d="M55.07,106.62A1.56,1.56,0,0,0,55,105.4a1.43,1.43,0,0,0-1.27-.69,1.75,1.75,0,0,0-.94.28,2,2,0,0,0-.77,1,1.54,1.54,0,0,0,.11,1.21,1.43,1.43,0,0,0,1.25.71,1.68,1.68,0,0,0,1-.3,1.84,1.84,0,0,0,.77-1"/><path class="cls-1" d="M50.9,111.35a1.55,1.55,0,0,0,.11,1.18,1.36,1.36,0,0,0,1.2.67,1.63,1.63,0,0,0,.92-.28,1.76,1.76,0,0,0,.73-1,1.48,1.48,0,0,0-.1-1.17,1.38,1.38,0,0,0-1.22-.66,1.61,1.61,0,0,0-.9.27,1.9,1.9,0,0,0-.74.94"/><path class="cls-1" d="M50.83,117.82a1.32,1.32,0,0,0,1.16.66,1.6,1.6,0,0,0,.89-.27,1.57,1.57,0,0,0,.6-2,1.32,1.32,0,0,0-1.17-.64,1.64,1.64,0,0,0-.88.26,1.79,1.79,0,0,0-.7.92,1.4,1.4,0,0,0,.1,1.12"/><path class="cls-1" d="M53,120.71a1.53,1.53,0,0,0-.85.25,1.68,1.68,0,0,0-.68.88,1.35,1.35,0,0,0,.1,1.1,1.26,1.26,0,0,0,1.13.64,1.6,1.6,0,0,0,.86-.26,1.74,1.74,0,0,0,.68-.88,1.38,1.38,0,0,0-.1-1.11,1.3,1.3,0,0,0-1.14-.62"/><path class="cls-1" d="M54.3,128.36a1.54,1.54,0,0,0,.84-.26,1.49,1.49,0,0,0,.57-1.94,1.26,1.26,0,0,0-1.12-.62,1.53,1.53,0,0,0-.83.25,1.5,1.5,0,0,0-.56,1.95,1.24,1.24,0,0,0,1.1.62"/><path class="cls-1" d="M56.75,132.77a1.68,1.68,0,0,0,1.57-1.18,1.34,1.34,0,0,0-.1-1.13,1.3,1.3,0,0,0-1.17-.64,1.57,1.57,0,0,0-.87.25,1.7,1.7,0,0,0-.7.91,1.43,1.43,0,0,0,.1,1.13,1.33,1.33,0,0,0,1.17.66"/><path class="cls-1" d="M60,136.54a1.65,1.65,0,0,0,.91-.28,1.74,1.74,0,0,0,.71-.92,1.41,1.41,0,0,0-.1-1.16,1.35,1.35,0,0,0-1.2-.66,1.56,1.56,0,0,0-.89.27,1.8,1.8,0,0,0-.72.93,1.47,1.47,0,0,0,.11,1.15,1.34,1.34,0,0,0,1.18.67"/><path class="cls-1" d="M63.7,139.41a1.61,1.61,0,0,0,.88-.28,1.55,1.55,0,0,0,.6-2,1.32,1.32,0,0,0-1.17-.64,1.64,1.64,0,0,0-.88.26,1.59,1.59,0,0,0-.6,2,1.32,1.32,0,0,0,1.17.66"/><path class="cls-1" d="M68.17,141.94a1.67,1.67,0,0,0,.92-.29,1.65,1.65,0,0,0,.62-2.11,1.38,1.38,0,0,0-1.22-.67,1.57,1.57,0,0,0-.9.28,1.61,1.61,0,0,0-.62,2.11,1.37,1.37,0,0,0,1.2.68"/><path class="cls-1" d="M73.77,140.1a1.74,1.74,0,0,0-1,.29,1.82,1.82,0,0,0-.75,1,1.48,1.48,0,0,0,.11,1.22,1.39,1.39,0,0,0,1.25.7,1.74,1.74,0,0,0,.95-.29A1.71,1.71,0,0,0,75,140.8a1.42,1.42,0,0,0-1.27-.7"/><path class="cls-1" d="M76.92,143.21a1.48,1.48,0,0,0,1.31.74,1.8,1.8,0,0,0,1-.31,1.92,1.92,0,0,0,.81-1,1.61,1.61,0,0,0-.11-1.28,1.5,1.5,0,0,0-1.33-.74,1.88,1.88,0,0,0-1.7,2.64"/><path class="cls-1" d="M82,143a1.57,1.57,0,0,0,1.39.78,1.92,1.92,0,0,0,1.07-.33,2.1,2.1,0,0,0,.86-1.11,1.66,1.66,0,0,0-.12-1.35,1.59,1.59,0,0,0-1.4-.77A2,2,0,0,0,82,143"/><path class="cls-1" d="M89.21,138.75a2,2,0,0,0-1.11.34,2,2,0,0,0-.77,2.58,1.63,1.63,0,0,0,1.45.81,2.11,2.11,0,0,0,1.9-2.93,1.64,1.64,0,0,0-1.47-.8"/><path class="cls-1" d="M94.43,137a2.21,2.21,0,0,0-1.18.36,2.12,2.12,0,0,0-.81,2.73,1.7,1.7,0,0,0,1.52.86,2.2,2.2,0,0,0,1.2-.37,2.13,2.13,0,0,0,.82-2.74,1.75,1.75,0,0,0-1.55-.84"/><path class="cls-1" d="M98.89,138.14a2.39,2.39,0,0,0,1.27-.39,2.24,2.24,0,0,0,.87-2.89A1.83,1.83,0,0,0,99.4,134a2.24,2.24,0,0,0-1.25.38,2.38,2.38,0,0,0-1,1.3,2,2,0,0,0,.13,1.59,1.84,1.84,0,0,0,1.61.9"/><path class="cls-1" d="M103.3,134.66a2.42,2.42,0,0,0,1.31-.4,2.56,2.56,0,0,0,1-1.36,2,2,0,0,0-.14-1.64,1.87,1.87,0,0,0-1.66-.93,2.46,2.46,0,0,0-1.32.4,2.51,2.51,0,0,0-1,1.36,2,2,0,0,0,.14,1.64,1.87,1.87,0,0,0,1.66.93"/><path class="cls-1" d="M105.59,129.55a2,2,0,0,0,1.74,1,2.51,2.51,0,0,0,1.38-.42,2.74,2.74,0,0,0,1.1-1.43,2.15,2.15,0,0,0-.15-1.71,2,2,0,0,0-1.75-1,2.49,2.49,0,0,0-1.37.43,2.75,2.75,0,0,0-1.1,1.42,2.13,2.13,0,0,0,.15,1.72"/><path class="cls-1" d="M51.34,97.06a1.78,1.78,0,0,0-1,.29,1.8,1.8,0,0,0-.78,1,1.44,1.44,0,0,0,.11,1.24,1.42,1.42,0,0,0,1.28.73,1.91,1.91,0,0,0,1-.3,1.77,1.77,0,0,0,.67-2.27,1.46,1.46,0,0,0-1.3-.71"/><path class="cls-1" d="M48.79,105.47A1.75,1.75,0,0,0,50.35,103a1.4,1.4,0,0,0-1.23-.67,1.71,1.71,0,0,0-.92.28,1.66,1.66,0,0,0-.63,2.14,1.37,1.37,0,0,0,1.22.69"/><path class="cls-1" d="M46.08,109a1.43,1.43,0,0,0,.1,1.13,1.3,1.3,0,0,0,1.16.66,1.61,1.61,0,0,0,.89-.28,1.58,1.58,0,0,0,.6-2,1.33,1.33,0,0,0-1.18-.64,1.58,1.58,0,0,0-.87.26,1.7,1.7,0,0,0-.7.91"/><path class="cls-1" d="M46.68,116.06a1.5,1.5,0,0,0,.84-.25,1.64,1.64,0,0,0,.66-.86,1.34,1.34,0,0,0-.09-1.08,1.26,1.26,0,0,0-1.12-.62,1.55,1.55,0,0,0-.83.25,1.49,1.49,0,0,0-.57,1.94,1.26,1.26,0,0,0,1.11.62"/><path class="cls-1" d="M46.79,121.47a1.62,1.62,0,0,0,.9-.28,1.71,1.71,0,0,0,.72-.92,1.5,1.5,0,0,0-.1-1.16,1.37,1.37,0,0,0-1.21-.66,1.52,1.52,0,0,0-.88.27,1.58,1.58,0,0,0-.61,2.08,1.34,1.34,0,0,0,1.18.67"/><path class="cls-1" d="M47.72,126.51a1.56,1.56,0,0,0,.87-.27,1.63,1.63,0,0,0,.68-.89,1.38,1.38,0,0,0-.1-1.11A1.3,1.3,0,0,0,48,123.6a1.61,1.61,0,0,0-1.44,2.26,1.29,1.29,0,0,0,1.15.65"/><path class="cls-1" d="M49.41,131.3a1.54,1.54,0,0,0,.87-.27,1.59,1.59,0,0,0,.68-.89,1.42,1.42,0,0,0-.09-1.11,1.32,1.32,0,0,0-1.17-.64,1.52,1.52,0,0,0-.85.26,1.74,1.74,0,0,0-.69.89,1.34,1.34,0,0,0,.11,1.11,1.27,1.27,0,0,0,1.14.65"/><path class="cls-1" d="M51.7,135.47a1.56,1.56,0,0,0,.87-.27,1.62,1.62,0,0,0,.68-.89,1.38,1.38,0,0,0-.1-1.11,1.3,1.3,0,0,0-1.16-.64,1.58,1.58,0,0,0-.86.26,1.53,1.53,0,0,0-.58,2,1.32,1.32,0,0,0,1.15.65"/><path class="cls-1" d="M54.54,139.34a1.56,1.56,0,0,0,.87-.27,1.54,1.54,0,0,0,.58-2,1.31,1.31,0,0,0-1.16-.64,1.55,1.55,0,0,0-.86.26,1.53,1.53,0,0,0-.58,2,1.29,1.29,0,0,0,1.15.65"/><path class="cls-1" d="M59,142.19a1.65,1.65,0,0,0,.71-.92,1.46,1.46,0,0,0-.1-1.16,1.35,1.35,0,0,0-1.2-.66,1.6,1.6,0,0,0-.89.27,1.74,1.74,0,0,0-.71.92,1.43,1.43,0,0,0,.1,1.15,1.37,1.37,0,0,0,1.2.68,1.64,1.64,0,0,0,.89-.28"/><path class="cls-1" d="M62.39,145.35a1.76,1.76,0,0,0,1-.3,1.73,1.73,0,0,0,.66-2.23,1.45,1.45,0,0,0-1.3-.71,1.79,1.79,0,0,0-1,.28,1.71,1.71,0,0,0-.65,2.24,1.43,1.43,0,0,0,1.28.72"/><path class="cls-1" d="M68.14,147.17a1.91,1.91,0,0,0,.76-1,1.5,1.5,0,0,0-.11-1.23,1.42,1.42,0,0,0-1.27-.7,1.79,1.79,0,0,0-1,.28,1.71,1.71,0,0,0-.65,2.22,1.42,1.42,0,0,0,1.26.71,1.79,1.79,0,0,0,1-.29"/><path class="cls-1" d="M73.33,148.46a1.81,1.81,0,0,0,.68-2.33,1.5,1.5,0,0,0-1.34-.73,1.77,1.77,0,0,0-1,.3,1.94,1.94,0,0,0-.81,1A1.6,1.6,0,0,0,71,148a1.51,1.51,0,0,0,1.33.74,1.92,1.92,0,0,0,1-.31"/><path class="cls-1" d="M78.38,148.93a1.82,1.82,0,0,0,.7-2.36,1.55,1.55,0,0,0-1.36-.73,1.8,1.8,0,0,0-1,.3,1.83,1.83,0,0,0-.7,2.36,1.53,1.53,0,0,0,1.34.74,1.9,1.9,0,0,0,1-.31"/><path class="cls-1" d="M83.48,148.64a1.84,1.84,0,0,0,.7-2.37,1.51,1.51,0,0,0-1.35-.73,1.84,1.84,0,0,0-1,.3,2.06,2.06,0,0,0-.82,1.07,1.59,1.59,0,0,0,.12,1.3,1.49,1.49,0,0,0,1.33.75,1.89,1.89,0,0,0,1-.32"/><path class="cls-1" d="M88.81,147.86a2.1,2.1,0,0,0,.86-1.13,1.71,1.71,0,0,0-.11-1.37,1.6,1.6,0,0,0-1.43-.78,1.9,1.9,0,0,0-1.06.33,1.93,1.93,0,0,0-.76,2.5,1.6,1.6,0,0,0,1.41.79,2,2,0,0,0,1.09-.34"/><path class="cls-1" d="M94.4,146.28a2.28,2.28,0,0,0,.93-1.19,1.8,1.8,0,0,0-.13-1.46,1.7,1.7,0,0,0-1.5-.82,2.15,2.15,0,0,0-1.15.34,2.37,2.37,0,0,0-.92,1.2,1.81,1.81,0,0,0,.13,1.45,1.67,1.67,0,0,0,1.49.84,2,2,0,0,0,1.15-.36"/><path class="cls-1" d="M100.41,140.86a1.75,1.75,0,0,0-1.55-.87,2.23,2.23,0,0,0-1.21.37,2.38,2.38,0,0,0-1,1.26,1.88,1.88,0,0,0,.13,1.53,1.75,1.75,0,0,0,1.56.88,2.22,2.22,0,0,0,1.22-.38,2.15,2.15,0,0,0,.83-2.79"/><path class="cls-1" d="M105.14,138a1.87,1.87,0,0,0-1.64-.91,2.32,2.32,0,0,0-1.29.39,2.53,2.53,0,0,0-1,1.34,2,2,0,0,0,.14,1.61,1.86,1.86,0,0,0,1.64.92,2.26,2.26,0,0,0,1.29-.4,2.29,2.29,0,0,0,.89-2.95"/><path class="cls-1" d="M109.72,135.86a2.1,2.1,0,0,0-.15-1.69,1.93,1.93,0,0,0-1.71-1,2.49,2.49,0,0,0-1.35.42,2.4,2.4,0,0,0-.94,3.08,1.94,1.94,0,0,0,1.72,1,2.47,2.47,0,0,0,1.35-.42,2.66,2.66,0,0,0,1.08-1.4"/><path class="cls-1" d="M111.23,133.5a2.49,2.49,0,0,0,1.4-.44,2.46,2.46,0,0,0,1-3.19,2,2,0,0,0-1.77-1,2.56,2.56,0,0,0-1.4.43,2.73,2.73,0,0,0-1.12,1.46,2.14,2.14,0,0,0,.15,1.74,2,2,0,0,0,1.77,1"/><path class="cls-1" d="M47.16,94.45a1.75,1.75,0,0,0-.94.28,1.7,1.7,0,0,0-.64,2.18,1.35,1.35,0,0,0,1.23.7,1.79,1.79,0,0,0,1-.29,1.69,1.69,0,0,0,.64-2.18,1.42,1.42,0,0,0-1.25-.69"/><path class="cls-1" d="M45.27,102.56a1.61,1.61,0,0,0,.61-2.09,1.35,1.35,0,0,0-1.2-.66,1.67,1.67,0,0,0-1.5,2.35,1.32,1.32,0,0,0,1.18.67,1.67,1.67,0,0,0,.91-.27"/><path class="cls-1" d="M44.22,105.69A1.36,1.36,0,0,0,43,105a1.61,1.61,0,0,0-.9.27,1.82,1.82,0,0,0-.74,1,1.49,1.49,0,0,0,.11,1.19,1.37,1.37,0,0,0,1.22.68,1.71,1.71,0,0,0,.92-.28,1.63,1.63,0,0,0,.62-2.13"/><path class="cls-1" d="M43.13,111a1.35,1.35,0,0,0-1.18-.65,1.58,1.58,0,0,0-.87.26,1.75,1.75,0,0,0-.7.91,1.43,1.43,0,0,0,.11,1.13,1.32,1.32,0,0,0,1.16.66,1.71,1.71,0,0,0,.89-.27,1.68,1.68,0,0,0,.69-.91,1.38,1.38,0,0,0-.1-1.13"/><path class="cls-1" d="M41.58,115.63A1.64,1.64,0,0,0,40.11,118a1.32,1.32,0,0,0,1.18.67,1.63,1.63,0,0,0,.89-.27,1.75,1.75,0,0,0,.7-.91,1.44,1.44,0,0,0-.1-1.14,1.35,1.35,0,0,0-1.2-.67"/><path class="cls-1" d="M41.6,123.73a1.52,1.52,0,0,0,.85-.26,1.61,1.61,0,0,0,.68-.87,1.36,1.36,0,0,0-.1-1.1,1.3,1.3,0,0,0-1.15-.64,1.49,1.49,0,0,0-.84.26,1.61,1.61,0,0,0-.67.87,1.32,1.32,0,0,0,.1,1.1,1.28,1.28,0,0,0,1.13.64"/><path class="cls-1" d="M42.59,128.7a1.54,1.54,0,0,0,.84-.26A1.5,1.5,0,0,0,44,126.5a1.29,1.29,0,0,0-1.14-.62,1.51,1.51,0,0,0-.82.24,1.49,1.49,0,0,0-.57,1.94,1.28,1.28,0,0,0,1.13.64"/><path class="cls-1" d="M44.22,133.38a1.46,1.46,0,0,0,.82-.25,1.6,1.6,0,0,0,.64-.83,1.27,1.27,0,0,0-.1-1.05,1.24,1.24,0,0,0-1.1-.62,1.43,1.43,0,0,0-.8.25,1.53,1.53,0,0,0-.65.83,1.28,1.28,0,0,0,.1,1,1.21,1.21,0,0,0,1.09.62"/><path class="cls-1" d="M46.48,137.71a1.49,1.49,0,0,0,.79-.24,1.47,1.47,0,0,0,.61-.8,1.26,1.26,0,0,0-.09-1,1.2,1.2,0,0,0-1.06-.58,1.42,1.42,0,0,0-.77.23,1.52,1.52,0,0,0-.61.8,1.2,1.2,0,0,0,1.13,1.6"/><path class="cls-1" d="M50.33,141.69a1.64,1.64,0,0,0,.67-.87,1.37,1.37,0,0,0-.11-1.11,1.28,1.28,0,0,0-1.16-.65,1.59,1.59,0,0,0-1.41,2.25,1.31,1.31,0,0,0,1.15.65,1.61,1.61,0,0,0,.86-.27"/><path class="cls-1" d="M53.54,145a1.52,1.52,0,0,0,.62-.82,1.23,1.23,0,0,0-.09-1,1.2,1.2,0,0,0-1.08-.61,1.49,1.49,0,0,0-.79.24,1.42,1.42,0,0,0-.54,1.86,1.23,1.23,0,0,0,1.08.61,1.48,1.48,0,0,0,.8-.25"/><path class="cls-1" d="M58.07,146a1.33,1.33,0,0,0-1.18-.65,1.57,1.57,0,0,0-.85.25,1.7,1.7,0,0,0-.69.9,1.36,1.36,0,0,0,.1,1.12,1.3,1.3,0,0,0,1.16.66,1.57,1.57,0,0,0,.88-.27,1.54,1.54,0,0,0,.58-2"/><path class="cls-1" d="M62.87,148.48a1.36,1.36,0,0,0-1.21-.67,1.61,1.61,0,0,0-.9.27A1.67,1.67,0,0,0,60,149a1.4,1.4,0,0,0,.1,1.17,1.36,1.36,0,0,0,1.21.68,1.68,1.68,0,0,0,.91-.28,1.59,1.59,0,0,0,.61-2.1"/><path class="cls-1" d="M67.89,151.46a1.54,1.54,0,0,0-.12-1.23,1.42,1.42,0,0,0-1.27-.71A1.78,1.78,0,0,0,64.9,152a1.45,1.45,0,0,0,1.27.71,1.76,1.76,0,0,0,1-.3,1.88,1.88,0,0,0,.75-1"/><path class="cls-1" d="M72.8,152.61a1.52,1.52,0,0,0-.12-1.22,1.41,1.41,0,0,0-1.27-.7,1.67,1.67,0,0,0-.94.28,1.71,1.71,0,0,0-.66,2.21,1.43,1.43,0,0,0,1.26.71,1.8,1.8,0,0,0,1-.29,1.91,1.91,0,0,0,.76-1"/><path class="cls-1" d="M77.87,153.09a1.5,1.5,0,0,0-.11-1.23,1.43,1.43,0,0,0-1.27-.7,1.77,1.77,0,0,0-.95.29,1.82,1.82,0,0,0-.77,1,1.48,1.48,0,0,0,.11,1.22,1.42,1.42,0,0,0,1.26.71,1.74,1.74,0,0,0,1-.29,1.86,1.86,0,0,0,.77-1"/><path class="cls-1" d="M83.1,151.57a1.45,1.45,0,0,0-1.28-.7,1.78,1.78,0,0,0-1,.29,1.73,1.73,0,0,0-.66,2.23,1.43,1.43,0,0,0,1.27.72,1.81,1.81,0,0,0,1-.3,2,2,0,0,0,.78-1,1.5,1.5,0,0,0-.11-1.23"/><path class="cls-1" d="M94.19,149.17a1.7,1.7,0,0,0-1.51-.82,2.08,2.08,0,0,0-1.13.34,2.28,2.28,0,0,0-.92,1.2,1.78,1.78,0,0,0,.13,1.45,1.68,1.68,0,0,0,1.48.83,2.15,2.15,0,0,0,1.16-.35,2.06,2.06,0,0,0,.79-2.65"/><path class="cls-1" d="M99.63,146.87a1.69,1.69,0,0,0-1.51-.82,2,2,0,0,0-1.14.34,2.28,2.28,0,0,0-.92,1.2,1.77,1.77,0,0,0,.12,1.45,1.69,1.69,0,0,0,1.49.83,2.15,2.15,0,0,0,1.16-.35,2.06,2.06,0,0,0,.8-2.65"/><path class="cls-1" d="M104.52,144.31a1.76,1.76,0,0,0-1.57-.87,2.21,2.21,0,0,0-1.21.37,2.37,2.37,0,0,0-1,1.26,1.93,1.93,0,0,0,.13,1.53,1.77,1.77,0,0,0,1.57.87,2.23,2.23,0,0,0,1.21-.37,2.15,2.15,0,0,0,.84-2.79"/><path class="cls-1" d="M107.37,140a2.36,2.36,0,0,0-1.29.4,2.54,2.54,0,0,0-1,1.34,2,2,0,0,0,.14,1.61,1.87,1.87,0,0,0,1.65.92,2.35,2.35,0,0,0,1.28-.4,2.29,2.29,0,0,0,.89-3,1.86,1.86,0,0,0-1.64-.92"/><path class="cls-1" d="M111.1,140.57a2.44,2.44,0,0,0,1.36-.42,2.61,2.61,0,0,0,1.07-1.4,2.08,2.08,0,0,0-.14-1.68,2,2,0,0,0-1.72-1,2.51,2.51,0,0,0-1.35.41,2.69,2.69,0,0,0-1.08,1.41,2,2,0,0,0,.15,1.68,1.93,1.93,0,0,0,1.71,1"/><path class="cls-1" d="M115.13,136.34h0a2.56,2.56,0,0,0,1.4-.43,2.49,2.49,0,0,0,1-3.2,2,2,0,0,0-1.78-1,2.6,2.6,0,0,0-1.4.44,2.77,2.77,0,0,0-1.12,1.45,2.17,2.17,0,0,0,.16,1.75,2,2,0,0,0,1.77,1"/><path class="cls-1" d="M42.68,92.21a1.67,1.67,0,0,0-.91.27,1.7,1.7,0,0,0-.72,1,1.44,1.44,0,0,0,.09,1.17,1.37,1.37,0,0,0,1.21.67,1.6,1.6,0,0,0,.91-.28,1.64,1.64,0,0,0,.63-2.12,1.36,1.36,0,0,0-1.21-.66"/><path class="cls-1" d="M40.76,100.15a1.53,1.53,0,0,0,.58-2,1.31,1.31,0,0,0-1.15-.62,1.48,1.48,0,0,0-.84.25,1.6,1.6,0,0,0-.68.88,1.31,1.31,0,0,0,.1,1.1,1.25,1.25,0,0,0,1.12.64,1.63,1.63,0,0,0,.87-.26"/><path class="cls-1" d="M39.54,103.35a1.37,1.37,0,0,0-1.21-.66,1.65,1.65,0,0,0-.88.27,1.73,1.73,0,0,0-.71.93,1.37,1.37,0,0,0,.1,1.14,1.32,1.32,0,0,0,1.19.68,1.67,1.67,0,0,0,.9-.28,1.6,1.6,0,0,0,.61-2.08"/><path class="cls-1" d="M38.28,109.8a1.33,1.33,0,0,0-.1-1.09,1.25,1.25,0,0,0-1.14-.64,1.54,1.54,0,0,0-.84.26,1.49,1.49,0,0,0-.57,2,1.28,1.28,0,0,0,1.13.64,1.54,1.54,0,0,0,.85-.26,1.63,1.63,0,0,0,.67-.88"/><path class="cls-1" d="M37.47,114a1.25,1.25,0,0,0-1.12-.62A1.54,1.54,0,0,0,35,115.61a1.29,1.29,0,0,0,1.12.63,1.46,1.46,0,0,0,.83-.26,1.58,1.58,0,0,0,.67-.86,1.31,1.31,0,0,0-.11-1.08"/><path class="cls-1" d="M36.26,118.6a1.64,1.64,0,0,0-1.46,2.31,1.34,1.34,0,0,0,1.19.67,1.55,1.55,0,0,0,.88-.27,1.69,1.69,0,0,0,.7-.9,1.48,1.48,0,0,0-.11-1.15,1.36,1.36,0,0,0-1.2-.66"/><path class="cls-1" d="M36.52,126.66a1.65,1.65,0,0,0,.85-.25,1.52,1.52,0,0,0,.56-2,1.31,1.31,0,0,0-1.15-.64,1.58,1.58,0,0,0-.84.25,1.5,1.5,0,0,0-.55,2,1.28,1.28,0,0,0,1.13.64"/><path class="cls-1" d="M39.12,130.51a1.34,1.34,0,0,0-.1-1.08,1.28,1.28,0,0,0-1.13-.63,1.6,1.6,0,0,0-.82.24,1.66,1.66,0,0,0-.65.85,1.35,1.35,0,0,0,.1,1.08,1.28,1.28,0,0,0,1.12.64,1.56,1.56,0,0,0,.83-.26,1.59,1.59,0,0,0,.65-.84"/><path class="cls-1" d="M39.35,136.28a1.51,1.51,0,0,0,.81-.25,1.43,1.43,0,0,0,.53-1.87,1.27,1.27,0,0,0-1.1-.61,1.5,1.5,0,0,0-.8.24,1.43,1.43,0,0,0-.53,1.87,1.23,1.23,0,0,0,1.09.62"/><path class="cls-1" d="M43,138.57a1.25,1.25,0,0,0-1.1-.61,1.47,1.47,0,0,0-.79.24,1.42,1.42,0,0,0-.53,1.87,1.21,1.21,0,0,0,1.08.61,1.5,1.5,0,0,0,.81-.24,1.43,1.43,0,0,0,.53-1.87"/><path class="cls-1" d="M44.41,144.77a1.54,1.54,0,0,0,.82-.25,1.48,1.48,0,0,0,.56-1.92,1.3,1.3,0,0,0-1.14-.63,1.53,1.53,0,0,0-.82.24,1.67,1.67,0,0,0-.65.85,1.39,1.39,0,0,0,.1,1.08,1.28,1.28,0,0,0,1.13.63"/><path class="cls-1" d="M47.56,148.05a1.55,1.55,0,0,0,.83-.25A1.52,1.52,0,0,0,49,147a1.34,1.34,0,0,0-.09-1.08,1.29,1.29,0,0,0-1.14-.63,1.54,1.54,0,0,0-.81.24,1.66,1.66,0,0,0-.65.85,1.35,1.35,0,0,0,.1,1.08,1.25,1.25,0,0,0,1.12.63"/><path class="cls-1" d="M51.45,151.63a1.63,1.63,0,0,0,.86-.26,1.53,1.53,0,0,0,.56-2,1.31,1.31,0,0,0-1.16-.64A1.57,1.57,0,0,0,50.29,151a1.32,1.32,0,0,0,1.16.65"/><path class="cls-1" d="M55.6,154.37a1.61,1.61,0,0,0,.9-.27,1.81,1.81,0,0,0,.71-.92A1.44,1.44,0,0,0,57.1,152a1.35,1.35,0,0,0-1.22-.67,1.68,1.68,0,0,0-.89.26,1.6,1.6,0,0,0-.6,2.09,1.35,1.35,0,0,0,1.21.68"/><path class="cls-1" d="M60.12,156.51a1.72,1.72,0,0,0,.9-.27,1.6,1.6,0,0,0,.6-2.08,1.35,1.35,0,0,0-1.21-.67,1.65,1.65,0,0,0-.89.26,1.76,1.76,0,0,0-.7.93,1.43,1.43,0,0,0,.1,1.15,1.35,1.35,0,0,0,1.2.68"/><path class="cls-1" d="M64.93,158.11a1.63,1.63,0,0,0,.92-.28,1.79,1.79,0,0,0,.71-.92,1.46,1.46,0,0,0-.1-1.18,1.38,1.38,0,0,0-1.22-.67,1.61,1.61,0,0,0-.9.27,1.8,1.8,0,0,0-.72.93,1.48,1.48,0,0,0,.11,1.17,1.37,1.37,0,0,0,1.2.68"/><path class="cls-1" d="M69.92,159.05a1.63,1.63,0,0,0,.92-.28,1.72,1.72,0,0,0,.72-.94,1.4,1.4,0,0,0-.1-1.17,1.38,1.38,0,0,0-1.23-.67,1.61,1.61,0,0,0-.9.27,1.72,1.72,0,0,0-.72.94,1.4,1.4,0,0,0,.11,1.17,1.33,1.33,0,0,0,1.2.68"/><path class="cls-1" d="M75.12,159.56a1.74,1.74,0,0,0,1.56-2.43,1.39,1.39,0,0,0-1.23-.68,1.66,1.66,0,0,0-.92.28,1.85,1.85,0,0,0-.74,1,1.46,1.46,0,0,0,.11,1.18,1.37,1.37,0,0,0,1.22.69"/><path class="cls-1" d="M80.33,159.54a1.81,1.81,0,0,0,1-.31,1.76,1.76,0,0,0,.68-2.29,1.46,1.46,0,0,0-1.31-.72,1.79,1.79,0,0,0-1,.29,1.92,1.92,0,0,0-.79,1,1.56,1.56,0,0,0,.11,1.27,1.45,1.45,0,0,0,1.3.73"/><path class="cls-1" d="M85.75,159a2,2,0,0,0,1.1-.34,2,2,0,0,0,.75-2.53,1.61,1.61,0,0,0-1.44-.79,2,2,0,0,0-1.09.32,2,2,0,0,0-.75,2.54,1.63,1.63,0,0,0,1.43.8"/><path class="cls-1" d="M86.74,153.72a2,2,0,0,0,1.06-.33,1.89,1.89,0,0,0,.73-2.44,1.57,1.57,0,0,0-1.39-.76A2,2,0,0,0,85.37,153a1.55,1.55,0,0,0,1.37.77"/><path class="cls-1" d="M91.38,157.56a2.09,2.09,0,0,0,1.17-.36,2.06,2.06,0,0,0,.79-2.66,1.69,1.69,0,0,0-1.52-.83,2.11,2.11,0,0,0-1.14.34,2.07,2.07,0,0,0-.8,2.67,1.7,1.7,0,0,0,1.5.84"/><path class="cls-1" d="M96.76,155.67a2.13,2.13,0,0,0,1.18-.37,2.1,2.1,0,0,0,.82-2.71,1.72,1.72,0,0,0-1.55-.85,2.08,2.08,0,0,0-1.16.35,2.31,2.31,0,0,0-1,1.23,1.87,1.87,0,0,0,.13,1.49,1.71,1.71,0,0,0,1.53.86"/><path class="cls-1" d="M102.14,149.53a2.16,2.16,0,0,0-1.17.35,2.11,2.11,0,0,0-.82,2.73,1.71,1.71,0,0,0,1.53.86,2.19,2.19,0,0,0,1.19-.37,2.45,2.45,0,0,0,1-1.24,1.87,1.87,0,0,0-.14-1.49,1.73,1.73,0,0,0-1.55-.84"/><path class="cls-1" d="M106.28,150.73a2.31,2.31,0,0,0,1.25-.38,2.22,2.22,0,0,0,.86-2.86,1.82,1.82,0,0,0-1.62-.88,2.3,2.3,0,0,0-1.23.37,2.21,2.21,0,0,0-.85,2.86,1.78,1.78,0,0,0,1.59.89"/><path class="cls-1" d="M113.07,144a1.86,1.86,0,0,0-1.66-.93,2.46,2.46,0,0,0-1.32.4,2.35,2.35,0,0,0-.9,3,1.89,1.89,0,0,0,1.67.93,2.38,2.38,0,0,0,1.31-.41,2.31,2.31,0,0,0,.9-3"/><path class="cls-1" d="M115,143.64a2.56,2.56,0,0,0,1.37-.42,2.72,2.72,0,0,0,1.1-1.43,2.11,2.11,0,0,0-.15-1.71,2,2,0,0,0-1.74-1,2.52,2.52,0,0,0-1.38.43,2.43,2.43,0,0,0-1,3.13,2,2,0,0,0,1.75,1"/><path class="cls-1" d="M120.48,138.77a2.76,2.76,0,0,0,1.15-1.48,2.23,2.23,0,0,0-.16-1.78,2,2,0,0,0-1.8-1,2.59,2.59,0,0,0-1.43.44,2.82,2.82,0,0,0-1.14,1.48,2.19,2.19,0,0,0,.15,1.78,2,2,0,0,0,1.8,1,2.56,2.56,0,0,0,1.43-.44"/><path class="cls-1" d="M38.29,90a1.64,1.64,0,0,0-1.47,2.31,1.31,1.31,0,0,0,1.17.65,1.64,1.64,0,0,0,1.48-2.31A1.32,1.32,0,0,0,38.29,90"/><path class="cls-1" d="M34.91,95.48a1.48,1.48,0,0,0-.56,1.92,1.23,1.23,0,0,0,1.09.62,1.54,1.54,0,0,0,.84-.26,1.46,1.46,0,0,0,.56-1.91,1.22,1.22,0,0,0-1.11-.61,1.51,1.51,0,0,0-.82.24"/><path class="cls-1" d="M32.88,100.65a1.52,1.52,0,0,0-.58,2,1.29,1.29,0,0,0,1.14.65,1.63,1.63,0,0,0,.87-.26,1.53,1.53,0,0,0,.58-2,1.32,1.32,0,0,0-1.16-.64,1.52,1.52,0,0,0-.85.26"/><path class="cls-1" d="M33.47,107.46a1.41,1.41,0,0,0-.09-1.09,1.29,1.29,0,0,0-1.14-.62,1.54,1.54,0,0,0-1.39,2.19,1.29,1.29,0,0,0,1.13.63,1.48,1.48,0,0,0,.83-.26,1.58,1.58,0,0,0,.66-.85"/><path class="cls-1" d="M31.3,111a1.58,1.58,0,0,0-.87.26,1.64,1.64,0,0,0-.7.9,1.45,1.45,0,0,0,.11,1.14A1.33,1.33,0,0,0,31,114a1.65,1.65,0,0,0,.88-.27,1.73,1.73,0,0,0,.69-.91,1.41,1.41,0,0,0-.1-1.14,1.37,1.37,0,0,0-1.2-.66"/><path class="cls-1" d="M30.64,119.22a1.44,1.44,0,0,0,.82-.25,1.63,1.63,0,0,0,.65-.84A1.37,1.37,0,0,0,32,117a1.26,1.26,0,0,0-1.13-.62,1.52,1.52,0,0,0-.82.25,1.48,1.48,0,0,0-.55,1.92,1.31,1.31,0,0,0,1.13.63"/><path class="cls-1" d="M30.79,124.41a1.51,1.51,0,0,0,1.41-1,1.28,1.28,0,0,0-.1-1,1.23,1.23,0,0,0-1.08-.6,1.42,1.42,0,0,0-.78.23,1.51,1.51,0,0,0-.62.81,1.28,1.28,0,0,0,.1,1,1.21,1.21,0,0,0,1.07.61"/><path class="cls-1" d="M31.5,129.46a1.45,1.45,0,0,0,.74-.22,1.42,1.42,0,0,0,.58-.77,1.22,1.22,0,0,0-.09-1,1.18,1.18,0,0,0-1-.57,1.34,1.34,0,0,0-.74.23,1.33,1.33,0,0,0-.49,1.74,1.18,1.18,0,0,0,1,.58"/><path class="cls-1" d="M32.73,134.5a1.38,1.38,0,0,0,.8-.25,1.41,1.41,0,0,0,.52-1.87,1.26,1.26,0,0,0-1.12-.63,1.41,1.41,0,0,0-.79.24,1.47,1.47,0,0,0-.62.81,1.27,1.27,0,0,0,1.21,1.7"/><path class="cls-1" d="M34.49,139.21a1.54,1.54,0,0,0,1.42-1.06,1.27,1.27,0,0,0-1.22-1.69,1.39,1.39,0,0,0-.79.24,1.47,1.47,0,0,0-.62.81,1.3,1.3,0,0,0,.09,1.06,1.27,1.27,0,0,0,1.12.64"/><path class="cls-1" d="M36.77,143.59a1.47,1.47,0,0,0,.77-.23,1.57,1.57,0,0,0,.6-.79,1.23,1.23,0,0,0-.1-1,1.21,1.21,0,0,0-1.09-.61,1.34,1.34,0,0,0-.77.23,1.35,1.35,0,0,0-.5,1.8,1.23,1.23,0,0,0,1.09.63"/><path class="cls-1" d="M39.45,147.54a1.39,1.39,0,0,0,.76-.24,1.46,1.46,0,0,0,.6-.78,1.22,1.22,0,0,0-1.17-1.62,1.38,1.38,0,0,0-.76.23,1.35,1.35,0,0,0-.5,1.79,1.19,1.19,0,0,0,1.07.62"/><path class="cls-1" d="M43.25,151a1.57,1.57,0,0,0,.64-.82,1.37,1.37,0,0,0-.1-1.09,1.29,1.29,0,0,0-1.14-.63,1.5,1.5,0,0,0-1.34,2.16,1.32,1.32,0,0,0,1.13.63,1.51,1.51,0,0,0,.81-.25"/><path class="cls-1" d="M47.49,153.4a1.38,1.38,0,0,0-.11-1.11,1.32,1.32,0,0,0-1.17-.65,1.42,1.42,0,0,0-.82.25,1.49,1.49,0,0,0-.55,2,1.3,1.3,0,0,0,1.16.66,1.53,1.53,0,0,0,.83-.25,1.59,1.59,0,0,0,.66-.85"/><path class="cls-1" d="M51.55,155.49a1.21,1.21,0,0,0-1.09-.61,1.44,1.44,0,0,0-.8.24,1.53,1.53,0,0,0-.63.81,1.4,1.4,0,0,0,.1,1,1.23,1.23,0,0,0,1.09.62,1.43,1.43,0,0,0,.81-.25,1.41,1.41,0,0,0,.52-1.86"/><path class="cls-1" d="M55.81,157.94a1.29,1.29,0,0,0-1.15-.64,1.55,1.55,0,0,0-.83.25,1.49,1.49,0,0,0-.56,2,1.3,1.3,0,0,0,1.14.64,1.55,1.55,0,0,0,.83-.25,1.67,1.67,0,0,0,.67-.86,1.36,1.36,0,0,0-.1-1.1"/><path class="cls-1" d="M60.37,159.82a1.36,1.36,0,0,0-1.2-.67,1.63,1.63,0,0,0-.88.27,1.56,1.56,0,0,0-.59,2.05,1.32,1.32,0,0,0,1.19.68,1.63,1.63,0,0,0,.88-.27,1.67,1.67,0,0,0,.7-.91,1.43,1.43,0,0,0-.1-1.15"/><path class="cls-1" d="M65.37,161.22a1.35,1.35,0,0,0-1.21-.66,1.64,1.64,0,0,0-.88.26,1.58,1.58,0,0,0-.6,2.07,1.35,1.35,0,0,0,1.2.68,1.66,1.66,0,0,0,.89-.28,1.58,1.58,0,0,0,.6-2.07"/><path class="cls-1" d="M70.47,162a1.33,1.33,0,0,0-1.18-.64,1.62,1.62,0,0,0-1.46,2.29,1.31,1.31,0,0,0,1.17.66A1.64,1.64,0,0,0,70.47,162"/><path class="cls-1" d="M75.78,162.42a1.37,1.37,0,0,0-1.23-.68,1.68,1.68,0,0,0-.92.27,1.64,1.64,0,0,0-.62,2.14,1.37,1.37,0,0,0,1.21.69,1.65,1.65,0,0,0,.93-.29,1.78,1.78,0,0,0,.74-1,1.46,1.46,0,0,0-.11-1.18"/><path class="cls-1" d="M80.93,162.26a1.49,1.49,0,0,0-1.32-.72A1.84,1.84,0,0,0,78,164.13a1.48,1.48,0,0,0,1.31.74,1.81,1.81,0,0,0,1-.31,1.78,1.78,0,0,0,.68-2.3"/><path class="cls-1" d="M86.43,162.89a1.64,1.64,0,0,0-.12-1.34,1.54,1.54,0,0,0-1.39-.76,1.94,1.94,0,0,0-1,.31,2.11,2.11,0,0,0-.84,1.09,1.64,1.64,0,0,0,.13,1.34,1.54,1.54,0,0,0,1.37.77,1.9,1.9,0,0,0,1-.32,2.06,2.06,0,0,0,.84-1.09"/><path class="cls-1" d="M92.23,160.22a1.69,1.69,0,0,0-1.48-.81,2.1,2.1,0,0,0-1.9,2.94,1.66,1.66,0,0,0,1.47.83,2.11,2.11,0,0,0,1.14-.35,2,2,0,0,0,.77-2.61"/><path class="cls-1" d="M97.65,158.38a1.76,1.76,0,0,0-1.57-.85,2.14,2.14,0,0,0-1.17.35,2.45,2.45,0,0,0-1,1.24,1.88,1.88,0,0,0,.14,1.51,1.75,1.75,0,0,0,1.54.86,2.2,2.2,0,0,0,1.2-.37,2.12,2.12,0,0,0,.82-2.74"/><path class="cls-1" d="M102.92,157.69a1.92,1.92,0,0,0-.13-1.53,1.78,1.78,0,0,0-1.58-.86,2.14,2.14,0,0,0-1.2.36,2.16,2.16,0,0,0-.83,2.79,1.76,1.76,0,0,0,1.56.87A2.23,2.23,0,0,0,102,159a2.36,2.36,0,0,0,1-1.26"/><path class="cls-1" d="M107.73,153.8a1.77,1.77,0,0,0-1.58-.86,2.14,2.14,0,0,0-1.2.36,2.42,2.42,0,0,0-1,1.26,1.92,1.92,0,0,0,.13,1.53,1.79,1.79,0,0,0,1.56.87,2.19,2.19,0,0,0,1.22-.38,2.15,2.15,0,0,0,.84-2.78"/><path class="cls-1" d="M110.24,154a2.34,2.34,0,0,0,1.28-.39,2.41,2.41,0,0,0,1-1.32,2,2,0,0,0-.13-1.6,1.84,1.84,0,0,0-1.62-.91,2.43,2.43,0,0,0-1.29.39,2.52,2.52,0,0,0-1,1.33,2,2,0,0,0,.13,1.59,1.85,1.85,0,0,0,1.63.91"/><path class="cls-1" d="M114.75,150.5a2.43,2.43,0,0,0,1.33-.42,2.61,2.61,0,0,0,1.07-1.38A2.12,2.12,0,0,0,117,147a1.94,1.94,0,0,0-1.71-1,2.5,2.5,0,0,0-1.33.41,2.38,2.38,0,0,0-.93,3.06,1.93,1.93,0,0,0,1.71,1"/><path class="cls-1" d="M119,146.69a2.56,2.56,0,0,0,1.41-.43,2.75,2.75,0,0,0,1.11-1.45,2.17,2.17,0,0,0-.15-1.75,2,2,0,0,0-1.78-1,2.61,2.61,0,0,0-1.4.43,2.72,2.72,0,0,0-1.11,1.46,2.14,2.14,0,0,0,.15,1.74,2,2,0,0,0,1.77,1"/><path class="cls-1" d="M123,142.2a2.71,2.71,0,0,0,1.45-.45,2.89,2.89,0,0,0,1.16-1.51,2.24,2.24,0,0,0-.16-1.8,2,2,0,0,0-1.83-1,2.66,2.66,0,0,0-1.46.45,2.87,2.87,0,0,0-1.16,1.5,2.26,2.26,0,0,0,.16,1.81,2.07,2.07,0,0,0,1.84,1"/><path class="cls-1" d="M32.38,88.7a1.39,1.39,0,0,0,.1,1.1,1.28,1.28,0,0,0,1.13.64,1.58,1.58,0,0,0,.86-.26,1.76,1.76,0,0,0,.68-.89,1.4,1.4,0,0,0-.1-1.1,1.29,1.29,0,0,0-1.14-.63,1.54,1.54,0,0,0-.85.26,1.68,1.68,0,0,0-.68.88"/><path class="cls-1" d="M31.35,92.8a1.36,1.36,0,0,0-.78.24,1.56,1.56,0,0,0-.64.82,1.31,1.31,0,0,0,.09,1,1.22,1.22,0,0,0,1.07.6,1.42,1.42,0,0,0,.79-.25,1.46,1.46,0,0,0,.63-.82,1.27,1.27,0,0,0-.08-1,1.22,1.22,0,0,0-1.08-.59"/><path class="cls-1" d="M29.81,100.39a1.56,1.56,0,0,0,.64-.83,1.28,1.28,0,0,0-.1-1,1.24,1.24,0,0,0-1.1-.61A1.5,1.5,0,0,0,27.9,100a1.24,1.24,0,0,0,1.09.62,1.47,1.47,0,0,0,.82-.26"/><path class="cls-1" d="M27.66,110.07a1.35,1.35,0,0,0-.1-1.08,1.27,1.27,0,0,0-1.13-.62,1.46,1.46,0,0,0-.82.24,1.59,1.59,0,0,0-.65.84,1.35,1.35,0,0,0,.1,1.08,1.28,1.28,0,0,0,1.12.64,1.5,1.5,0,0,0,.83-.26,1.59,1.59,0,0,0,.65-.84"/><path class="cls-1" d="M25.5,116.38a1.43,1.43,0,0,0,.79-.24,1.41,1.41,0,0,0,.52-1.83,1.25,1.25,0,0,0-1.09-.61,1.46,1.46,0,0,0-.78.24,1.41,1.41,0,0,0-.52,1.84,1.22,1.22,0,0,0,1.08.6"/><path class="cls-1" d="M24.13,121.06a1.35,1.35,0,0,0,1.18.66,1.54,1.54,0,0,0,1.36-2.22,1.33,1.33,0,0,0-1.17-.65,1.48,1.48,0,0,0-.82.24,1.5,1.5,0,0,0-.55,2"/><path class="cls-1" d="M25.59,126.82a1.49,1.49,0,0,0,.79-.24,1.42,1.42,0,0,0,.52-1.86,1.27,1.27,0,0,0-1.13-.64,1.48,1.48,0,0,0-.79.23,1.53,1.53,0,0,0-.61.81,1.29,1.29,0,0,0,1.22,1.7"/><path class="cls-1" d="M27.14,131.58a1.39,1.39,0,0,0,.48-1.82,1.26,1.26,0,0,0-1.1-.61,1.33,1.33,0,0,0-.75.23,1.41,1.41,0,0,0-.6.78,1.28,1.28,0,0,0,.1,1,1.23,1.23,0,0,0,1.09.62,1.48,1.48,0,0,0,.78-.23"/><path class="cls-1" d="M28.91,134.79a1.23,1.23,0,0,0-1.07-.6,1.43,1.43,0,0,0-.76.23,1.36,1.36,0,0,0-.46,1.79,1.22,1.22,0,0,0,1.06.59,1.43,1.43,0,0,0,.76-.23,1.36,1.36,0,0,0,.47-1.78"/><path class="cls-1" d="M29.54,138.9a1.27,1.27,0,0,0-.72.22,1.33,1.33,0,0,0-.56.74,1.18,1.18,0,0,0,1.14,1.56,1.34,1.34,0,0,0,.72-.21,1.32,1.32,0,0,0,.46-1.74,1.2,1.2,0,0,0-1-.57"/><path class="cls-1" d="M32.28,145.56a1.38,1.38,0,0,0,.57-.73,1.23,1.23,0,0,0-.1-1,1.19,1.19,0,0,0-1.05-.6,1.35,1.35,0,0,0-.72.22,1.31,1.31,0,0,0-.55.72,1.19,1.19,0,0,0,1.13,1.59,1.35,1.35,0,0,0,.72-.22"/><path class="cls-1" d="M35.35,148.06a1.18,1.18,0,0,0-1.05-.6,1.31,1.31,0,0,0-.7.21,1.38,1.38,0,0,0-.58.74,1.24,1.24,0,0,0,.1,1,1.17,1.17,0,0,0,1,.6,1.38,1.38,0,0,0,.73-.22,1.28,1.28,0,0,0,.46-1.71"/><path class="cls-1" d="M37.4,151.39a1.33,1.33,0,0,0-.75.23,1.34,1.34,0,0,0-.49,1.76,1.23,1.23,0,0,0,1.07.61,1.41,1.41,0,0,0,.76-.22,1.36,1.36,0,0,0,.49-1.77,1.25,1.25,0,0,0-1.08-.61"/><path class="cls-1" d="M40.66,154.56a1.41,1.41,0,0,0-1.25,2,1.23,1.23,0,0,0,1.09.62,1.37,1.37,0,0,0,.77-.24,1.44,1.44,0,0,0,.59-.78,1.28,1.28,0,0,0-.11-1,1.24,1.24,0,0,0-1.09-.61"/><path class="cls-1" d="M44.44,157.63a1.46,1.46,0,0,0-.79.23,1.54,1.54,0,0,0-.62.8,1.35,1.35,0,0,0,.11,1.06,1.25,1.25,0,0,0,1.12.64,1.43,1.43,0,0,0,.79-.24,1.41,1.41,0,0,0,.51-1.86,1.28,1.28,0,0,0-1.12-.63"/><path class="cls-1" d="M48.64,160.5a1.32,1.32,0,0,0-.75.22,1.36,1.36,0,0,0-.49,1.79,1.22,1.22,0,0,0,1.06.6,1.43,1.43,0,0,0,.76-.23,1.36,1.36,0,0,0,.49-1.78,1.2,1.2,0,0,0-1.07-.6"/><path class="cls-1" d="M53.14,162.79a1.34,1.34,0,0,0-.75.22,1.37,1.37,0,0,0-.58.76,1.22,1.22,0,0,0,.09,1,1.18,1.18,0,0,0,1.05.6,1.38,1.38,0,0,0,.76-.23,1.34,1.34,0,0,0,.5-1.76,1.22,1.22,0,0,0-1.07-.6"/><path class="cls-1" d="M57.89,164.47a1.49,1.49,0,0,0-.82.25,1.46,1.46,0,0,0-.55,1.93,1.25,1.25,0,0,0,1.12.64,1.54,1.54,0,0,0,.84-.26A1.49,1.49,0,0,0,59,165.1a1.3,1.3,0,0,0-1.14-.63"/><path class="cls-1" d="M63,165.91a1.45,1.45,0,0,0-.83.25,1.47,1.47,0,0,0-.56,2,1.27,1.27,0,0,0,1.13.64,1.57,1.57,0,0,0,.85-.26,1.49,1.49,0,0,0,.55-2,1.29,1.29,0,0,0-1.14-.63"/><path class="cls-1" d="M68.11,166.65a1.54,1.54,0,0,0-.85.26,1.52,1.52,0,0,0-.57,2,1.29,1.29,0,0,0,1.15.65,1.6,1.6,0,0,0,.86-.26,1.53,1.53,0,0,0,.57-2,1.31,1.31,0,0,0-1.16-.64"/><path class="cls-1" d="M73.38,167.08a1.59,1.59,0,0,0-.86.25,1.55,1.55,0,0,0-.58,2,1.32,1.32,0,0,0,1.16.65,1.58,1.58,0,0,0,.86-.26,1.73,1.73,0,0,0,.69-.89,1.46,1.46,0,0,0-.1-1.11,1.3,1.3,0,0,0-1.17-.64"/><path class="cls-1" d="M78.62,167a1.72,1.72,0,0,0-1.54,2.41,1.37,1.37,0,0,0,1.22.69,1.64,1.64,0,0,0,.92-.29,1.61,1.61,0,0,0,.62-2.13,1.36,1.36,0,0,0-1.22-.68"/><path class="cls-1" d="M84.11,166.36a1.75,1.75,0,0,0-.94.28,1.84,1.84,0,0,0-.75,1,1.47,1.47,0,0,0,.1,1.2,1.4,1.4,0,0,0,1.25.71,1.79,1.79,0,0,0,1.6-2.49,1.43,1.43,0,0,0-1.26-.69"/><path class="cls-1" d="M89.41,165.09a2,2,0,0,0-1.78,2.78,1.56,1.56,0,0,0,1.39.78,2,2,0,0,0,1.07-.32,2.07,2.07,0,0,0,.85-1.11,1.69,1.69,0,0,0-.11-1.36,1.61,1.61,0,0,0-1.42-.77"/><path class="cls-1" d="M94.6,163.52a2.15,2.15,0,0,0-1.12.33,2,2,0,0,0-.77,2.61,1.64,1.64,0,0,0,1.47.82,2.13,2.13,0,0,0,1.13-.34,2,2,0,0,0,.78-2.61,1.66,1.66,0,0,0-1.49-.81"/><path class="cls-1" d="M100,161.49a2.08,2.08,0,0,0-1.13.34,2,2,0,0,0-.79,2.65,1.66,1.66,0,0,0,1.49.84,2.16,2.16,0,0,0,1.15-.36,2.28,2.28,0,0,0,.91-1.19,1.81,1.81,0,0,0-.12-1.45,1.7,1.7,0,0,0-1.51-.83"/><path class="cls-1" d="M105.17,159.05a2.07,2.07,0,0,0-1.15.35,2.3,2.3,0,0,0-.92,1.19,1.8,1.8,0,0,0,.13,1.46,1.68,1.68,0,0,0,1.49.83,2.15,2.15,0,0,0,1.16-.35,2.37,2.37,0,0,0,.92-1.2,1.8,1.8,0,0,0-.13-1.46,1.69,1.69,0,0,0-1.5-.82"/><path class="cls-1" d="M110,156.39a2.25,2.25,0,0,0-1.2.36,2.37,2.37,0,0,0-1,1.26,1.92,1.92,0,0,0,.13,1.53,1.76,1.76,0,0,0,1.56.88,2.19,2.19,0,0,0,1.22-.38,2.16,2.16,0,0,0,.84-2.79,1.78,1.78,0,0,0-1.58-.86"/><path class="cls-1" d="M114.68,153.1a2.39,2.39,0,0,0-1.27.38,2.3,2.3,0,0,0-.89,3,1.86,1.86,0,0,0,1.64.91,2.38,2.38,0,0,0,1.3-.39,2.31,2.31,0,0,0,.89-3,1.87,1.87,0,0,0-1.67-.91"/><path class="cls-1" d="M118.77,153.58a2.47,2.47,0,0,0,1.34-.41,2.39,2.39,0,0,0,.92-3.06,1.94,1.94,0,0,0-1.71-1,2.42,2.42,0,0,0-1.33.41,2.37,2.37,0,0,0-.92,3.06,1.94,1.94,0,0,0,1.7,1"/><path class="cls-1" d="M123,149.68a2.58,2.58,0,0,0,1.4-.43,2.49,2.49,0,0,0,1-3.2,2,2,0,0,0-1.78-1,2.56,2.56,0,0,0-1.4.43,2.49,2.49,0,0,0-1,3.2,2,2,0,0,0,1.78,1"/><path class="cls-1" d="M127,145.1a2.69,2.69,0,0,0,1.45-.45,2.59,2.59,0,0,0,1-3.32,2.08,2.08,0,0,0-1.84-1,2.65,2.65,0,0,0-1.45.44,2.59,2.59,0,0,0-1,3.32,2.1,2.1,0,0,0,1.84,1"/><path class="cls-1" d="M29.25,88.22a1.44,1.44,0,0,0,.82-.25,1.57,1.57,0,0,0,.66-.86,1.3,1.3,0,0,0-.09-1.06,1.25,1.25,0,0,0-1.11-.61,1.54,1.54,0,0,0-.83.24,1.47,1.47,0,0,0-.55,1.92,1.24,1.24,0,0,0,1.1.62"/><path class="cls-1" d="M26.65,93.25A1.54,1.54,0,0,0,27.5,93a1.71,1.71,0,0,0,.68-.87,1.36,1.36,0,0,0-.11-1.1,1.27,1.27,0,0,0-1.14-.63,1.59,1.59,0,0,0-.85.26,1.51,1.51,0,0,0-.56,2,1.27,1.27,0,0,0,1.13.63"/><path class="cls-1" d="M24.47,98.26a1.45,1.45,0,0,0,1.3-2,1.17,1.17,0,0,0-1.05-.59,1.32,1.32,0,0,0-.77.24,1.45,1.45,0,0,0-.61.79,1.22,1.22,0,0,0,.09,1,1.18,1.18,0,0,0,1,.59"/><path class="cls-1" d="M22.69,103.6a1.63,1.63,0,0,0,.85-.26,1.57,1.57,0,0,0,.65-.86,1.36,1.36,0,0,0-.09-1.1,1.3,1.3,0,0,0-1.15-.64,1.5,1.5,0,0,0-.83.25,1.6,1.6,0,0,0-.66.86,1.32,1.32,0,0,0,.1,1.1,1.28,1.28,0,0,0,1.13.65"/><path class="cls-1" d="M21.36,108.79a1.46,1.46,0,0,0,1.31-2.08,1.21,1.21,0,0,0-1.08-.6,1.48,1.48,0,0,0-.78.23,1.4,1.4,0,0,0-.52,1.84,1.22,1.22,0,0,0,1.07.61"/><path class="cls-1" d="M20.47,114.06a1.43,1.43,0,0,0,1.27-2,1.2,1.2,0,0,0-1.06-.59,1.35,1.35,0,0,0-.75.22,1.49,1.49,0,0,0-.61.79,1.22,1.22,0,0,0,.1,1,1.19,1.19,0,0,0,1,.6"/><path class="cls-1" d="M20,119.36a1.45,1.45,0,0,0,1.37-1,1.3,1.3,0,0,0-.1-1,1.23,1.23,0,0,0-1.1-.64,1.41,1.41,0,0,0-1.25,2,1.22,1.22,0,0,0,1.08.62"/><path class="cls-1" d="M20.75,124.32a1.33,1.33,0,0,0,.56-.72,1.2,1.2,0,0,0-.08-1,1.18,1.18,0,0,0-1.05-.6,1.34,1.34,0,0,0-.71.21,1.4,1.4,0,0,0-.57.74,1.14,1.14,0,0,0,.09,1,1.17,1.17,0,0,0,1,.62,1.32,1.32,0,0,0,.72-.21"/><path class="cls-1" d="M21.61,127.75a1.11,1.11,0,0,0-1-.55,1.29,1.29,0,0,0-.72.22,1.26,1.26,0,0,0-.43,1.62,1.15,1.15,0,0,0,1,.58,1.31,1.31,0,0,0,.71-.21,1.24,1.24,0,0,0,.42-1.66"/><path class="cls-1" d="M22.68,133.77a1.26,1.26,0,0,0-.08-1,1.24,1.24,0,0,0-1.1-.63,1.35,1.35,0,0,0-1.31,1,1.24,1.24,0,0,0,1.18,1.62,1.38,1.38,0,0,0,.73-.21,1.44,1.44,0,0,0,.58-.75"/><path class="cls-1" d="M23.88,137.61a1.18,1.18,0,0,0-1.06-.59,1.31,1.31,0,0,0-.71.2,1.37,1.37,0,0,0-.56.74,1.23,1.23,0,0,0,.09,1,1.22,1.22,0,0,0,1.06.62,1.42,1.42,0,0,0,.74-.22,1.31,1.31,0,0,0,.44-1.73"/><path class="cls-1" d="M25.63,142.27a1.18,1.18,0,0,0-1.05-.59,1.21,1.21,0,0,0-.71.21,1.33,1.33,0,0,0-.57.73,1.27,1.27,0,0,0,.09,1,1.22,1.22,0,0,0,1.07.62,1.33,1.33,0,0,0,1.17-1.95"/><path class="cls-1" d="M32.31,154.12a1.4,1.4,0,0,0-1.33,1,1.26,1.26,0,0,0,1.2,1.68,1.48,1.48,0,0,0,.78-.23,1.38,1.38,0,0,0,.44-1.84,1.29,1.29,0,0,0-1.09-.59"/><path class="cls-1" d="M35.65,157.72a1.37,1.37,0,0,0-.74.22,1.46,1.46,0,0,0-.58.76,1.17,1.17,0,0,0,.08,1,1.22,1.22,0,0,0,1.1.67,1.39,1.39,0,0,0,.76-.24,1.34,1.34,0,0,0,.45-1.76,1.25,1.25,0,0,0-1.07-.61"/><path class="cls-1" d="M39.32,160.93a1.43,1.43,0,0,0-.76.22,1.41,1.41,0,0,0-.59.77,1.31,1.31,0,0,0,.1,1.06,1.28,1.28,0,0,0,1.1.62,1.3,1.3,0,0,0,.75-.23,1.39,1.39,0,0,0,.6-.77,1.25,1.25,0,0,0-1.2-1.67"/><path class="cls-1" d="M43.31,163.74a1.56,1.56,0,0,0-.8.24,1.46,1.46,0,0,0-.5,1.9,1.31,1.31,0,0,0,1.14.64,1.51,1.51,0,0,0,.82-.25,1.46,1.46,0,0,0,.48-1.89,1.31,1.31,0,0,0-1.14-.64"/><path class="cls-1" d="M47.58,166.29a1.41,1.41,0,0,0-1.25,2,1.24,1.24,0,0,0,1.09.62,1.42,1.42,0,0,0,.77-.23,1.37,1.37,0,0,0,.49-1.8,1.24,1.24,0,0,0-1.1-.63"/><path class="cls-1" d="M52.12,168.38a1.42,1.42,0,0,0-.77.23,1.36,1.36,0,0,0-.5,1.81,1.22,1.22,0,0,0,1.1.63,1.35,1.35,0,0,0,.77-.24,1.45,1.45,0,0,0,.6-.78,1.27,1.27,0,0,0-.1-1,1.26,1.26,0,0,0-1.1-.62"/><path class="cls-1" d="M56.9,170.08a1.38,1.38,0,0,0-.76.23,1.37,1.37,0,0,0-.6.78,1.22,1.22,0,0,0,.09,1,1.19,1.19,0,0,0,1,.6,1.43,1.43,0,0,0,.77-.24,1.37,1.37,0,0,0,.5-1.8,1.18,1.18,0,0,0-1.05-.58"/><path class="cls-1" d="M61.86,171.23a1.49,1.49,0,0,0-.82.25,1.45,1.45,0,0,0-.54,1.92,1.24,1.24,0,0,0,1.11.63A1.52,1.52,0,0,0,63,171.85a1.28,1.28,0,0,0-1.12-.62"/><path class="cls-1" d="M67,172a1.47,1.47,0,0,0-.83.25,1.49,1.49,0,0,0-.56,2,1.27,1.27,0,0,0,1.13.64,1.54,1.54,0,0,0,.85-.26,1.49,1.49,0,0,0,.56-2A1.31,1.31,0,0,0,67,172"/><path class="cls-1" d="M72.2,172.42a1.46,1.46,0,0,0-.81.25,1.55,1.55,0,0,0-.66.85,1.3,1.3,0,0,0,.1,1.06,1.23,1.23,0,0,0,1.11.63,1.55,1.55,0,0,0,1.47-1.1,1.36,1.36,0,0,0-.08-1.07,1.28,1.28,0,0,0-1.13-.62"/><path class="cls-1" d="M77.53,172.23a1.63,1.63,0,0,0-.88.27,1.74,1.74,0,0,0-.71.92,1.42,1.42,0,0,0,.1,1.16,1.33,1.33,0,0,0,1.19.67,1.75,1.75,0,0,0,.9-.27,1.73,1.73,0,0,0,.71-.93,1.47,1.47,0,0,0-.1-1.15,1.34,1.34,0,0,0-1.21-.67"/><path class="cls-1" d="M82.91,171.69A1.63,1.63,0,0,0,82,172a1.6,1.6,0,0,0-.62,2.11,1.37,1.37,0,0,0,1.21.68,1.73,1.73,0,0,0,.91-.28,1.63,1.63,0,0,0,.62-2.12,1.37,1.37,0,0,0-1.21-.67"/><path class="cls-1" d="M88.29,170.64a1.8,1.8,0,0,0-1.63,2.54,1.43,1.43,0,0,0,1.28.72,1.79,1.79,0,0,0,1-.3,1.75,1.75,0,0,0,.66-2.25,1.43,1.43,0,0,0-1.29-.71"/><path class="cls-1" d="M93.64,169.16a1.91,1.91,0,0,0-1.73,2.69,1.53,1.53,0,0,0,1.35.75,1.9,1.9,0,0,0,1-.32,1.84,1.84,0,0,0,.7-2.38,1.53,1.53,0,0,0-1.36-.74"/><path class="cls-1" d="M98.94,167.23a1.94,1.94,0,0,0-1.09.33,2,2,0,0,0-.76,2.55,1.61,1.61,0,0,0,1.43.8,2.06,2.06,0,0,0,1.11-.34,2,2,0,0,0,.76-2.56,1.65,1.65,0,0,0-1.45-.78"/><path class="cls-1" d="M104.12,165a2,2,0,0,0-1.11.34,2.15,2.15,0,0,0-.89,1.16,1.76,1.76,0,0,0,.13,1.41,1.61,1.61,0,0,0,1.44.82,2,2,0,0,0,1.12-.35,2.19,2.19,0,0,0,.9-1.16,1.79,1.79,0,0,0-.12-1.42,1.66,1.66,0,0,0-1.47-.8"/><path class="cls-1" d="M109,162.41a2.2,2.2,0,0,0-1.17.35,2.1,2.1,0,0,0-.81,2.71,1.71,1.71,0,0,0,1.52.85,2.17,2.17,0,0,0,1.18-.36,2.12,2.12,0,0,0,.81-2.71,1.73,1.73,0,0,0-1.53-.84"/><path class="cls-1" d="M113.67,159.52a2.33,2.33,0,0,0-1.24.37,2.46,2.46,0,0,0-1,1.3,1.92,1.92,0,0,0,.14,1.56,1.8,1.8,0,0,0,1.59.9,2.28,2.28,0,0,0,1.25-.39,2.45,2.45,0,0,0,1-1.29,1.9,1.9,0,0,0-.14-1.57,1.79,1.79,0,0,0-1.61-.88"/><path class="cls-1" d="M118.47,156.13a2.42,2.42,0,0,0-1.31.4,2.56,2.56,0,0,0-1,1.36,2,2,0,0,0,.14,1.64,1.87,1.87,0,0,0,1.67.93,2.45,2.45,0,0,0,1.31-.4,2.3,2.3,0,0,0,.9-3,1.85,1.85,0,0,0-1.66-.94"/><path class="cls-1" d="M123.2,152.13a2.49,2.49,0,0,0-1.37.43,2.41,2.41,0,0,0-.94,3.11,2,2,0,0,0,1.73,1,2.53,2.53,0,0,0,1.36-.42,2.65,2.65,0,0,0,1.09-1.42,2.09,2.09,0,0,0-.14-1.7,2,2,0,0,0-1.73-1"/><path class="cls-1" d="M127.48,148a2.67,2.67,0,0,0-1.43.44,2.53,2.53,0,0,0-1,3.26,2,2,0,0,0,1.8,1,2.66,2.66,0,0,0,1.43-.43,2.85,2.85,0,0,0,1.14-1.49,2.2,2.2,0,0,0-.15-1.78,2.07,2.07,0,0,0-1.81-1"/><path class="cls-1" d="M131.67,143.17a2.77,2.77,0,0,0-1.49.46,2.85,2.85,0,0,0-1.18,1.54,2.28,2.28,0,0,0,.15,1.85,2.14,2.14,0,0,0,1.89,1.06,2.8,2.8,0,0,0,2.52-3.86,2.13,2.13,0,0,0-1.89-1.05"/><path class="cls-1" d="M67.19,98.77a1.91,1.91,0,0,0-1.06.32,2.15,2.15,0,0,0-.86,1.11,1.68,1.68,0,0,0,.13,1.34,1.52,1.52,0,0,0,1.35.76,2,2,0,0,0,1.82-2.78,1.57,1.57,0,0,0-1.38-.75"/><path class="cls-1" d="M103.49,95a2.16,2.16,0,0,0-1.2.38,2.12,2.12,0,0,0-.87,2.71,1.63,1.63,0,0,0,1.44.8,2.21,2.21,0,0,0,1.21-.38,2.12,2.12,0,0,0,.86-2.72,1.63,1.63,0,0,0-1.44-.79"/><path class="cls-1" d="M98.17,94.59a1.63,1.63,0,0,0,1.45.8,2.18,2.18,0,0,0,1.2-.38,2.13,2.13,0,0,0,.87-2.71,1.64,1.64,0,0,0-1.45-.8,2.16,2.16,0,0,0-1.2.38,2.12,2.12,0,0,0-.87,2.71"/><path class="cls-1" d="M96.14,88.83A2.1,2.1,0,0,0,95,89.2a2.35,2.35,0,0,0-1,1.24,1.78,1.78,0,0,0,.11,1.42,1.6,1.6,0,0,0,1.41.77,2.12,2.12,0,0,0,1.18-.36,2.31,2.31,0,0,0,1-1.25,1.68,1.68,0,0,0-.11-1.41,1.57,1.57,0,0,0-1.41-.78"/><path class="cls-1" d="M89.34,90.32a1.54,1.54,0,0,0,1.37.75,2.15,2.15,0,0,0,1.15-.35,2,2,0,0,0,.81-2.58,1.52,1.52,0,0,0-1.36-.76,2.13,2.13,0,0,0-1.15.36A2.32,2.32,0,0,0,89.23,89a1.75,1.75,0,0,0,.11,1.37"/><path class="cls-1" d="M84.16,89.93a1.48,1.48,0,0,0,1.31.72,2.08,2.08,0,0,0,1.1-.34,1.94,1.94,0,0,0,.78-2.47,1.48,1.48,0,0,0-1.3-.72,2.09,2.09,0,0,0-1.11.34,2.17,2.17,0,0,0-.88,1.15,1.59,1.59,0,0,0,.1,1.32"/><path class="cls-1" d="M78.76,91.23a1.54,1.54,0,0,0,1.37.76,2.11,2.11,0,0,0,1.13-.35,2,2,0,0,0,.79-2.54,1.55,1.55,0,0,0-1.38-.76,2.05,2.05,0,0,0-1.12.35,2.28,2.28,0,0,0-.91,1.17,1.7,1.7,0,0,0,.12,1.37"/><path class="cls-1" d="M75,94.41a2.06,2.06,0,0,0,1.14-.35,2,2,0,0,0,.8-2.6,1.61,1.61,0,0,0-1.44-.78,2.13,2.13,0,0,0-1.93,2.94,1.61,1.61,0,0,0,1.43.79"/><path class="cls-1" d="M70.9,94.3a2,2,0,0,0-1.12.34,2.17,2.17,0,0,0-.91,1.18A1.76,1.76,0,0,0,69,97.23a1.62,1.62,0,0,0,1.45.81,2.11,2.11,0,0,0,1.14-.35,2,2,0,0,0,.78-2.6,1.63,1.63,0,0,0-1.46-.79"/><path class="cls-1" d="M61.84,96.78a1.86,1.86,0,0,0-.72,2.39,1.48,1.48,0,0,0,1.33.74,1.87,1.87,0,0,0,1-.32,2.07,2.07,0,0,0,.83-1.08,1.61,1.61,0,0,0-.11-1.31,1.53,1.53,0,0,0-1.35-.73,1.89,1.89,0,0,0-1,.31"/><path class="cls-1" d="M107.6,96.35h0a2.33,2.33,0,0,0,1.27-.39,2.24,2.24,0,0,0,.9-2.86,1.69,1.69,0,0,0-1.51-.83,2.33,2.33,0,0,0-1.27.39,2.24,2.24,0,0,0-.91,2.85,1.71,1.71,0,0,0,1.52.84"/><path class="cls-1" d="M106.8,89.18a1.67,1.67,0,0,0-1.5-.83,2.24,2.24,0,0,0-1.25.39,2.52,2.52,0,0,0-1,1.32,1.88,1.88,0,0,0,.13,1.5,1.67,1.67,0,0,0,1.5.83A2.27,2.27,0,0,0,105.9,92a2.21,2.21,0,0,0,.9-2.82"/><path class="cls-1" d="M99.36,88.42a1.66,1.66,0,0,0,1.48.82,2.24,2.24,0,0,0,1.24-.39,2.47,2.47,0,0,0,1-1.31,1.84,1.84,0,0,0-.12-1.48,1.68,1.68,0,0,0-1.48-.82,2.27,2.27,0,0,0-1.25.39,2.45,2.45,0,0,0-1,1.31,1.84,1.84,0,0,0,.12,1.48"/><path class="cls-1" d="M94.89,86.2a1.62,1.62,0,0,0,1.45.81,2.22,2.22,0,0,0,1.22-.38,2.15,2.15,0,0,0,.87-2.75,1.62,1.62,0,0,0-1.45-.8,2.22,2.22,0,0,0-1.22.38,2.41,2.41,0,0,0-1,1.28,1.75,1.75,0,0,0,.12,1.46"/><path class="cls-1" d="M91.34,85.77h0a2.17,2.17,0,0,0,1.18-.36,2.09,2.09,0,0,0,.85-2.67A1.61,1.61,0,0,0,92,82a2.19,2.19,0,0,0-1.19.37,2.37,2.37,0,0,0-1,1.25A1.74,1.74,0,0,0,89.93,85a1.59,1.59,0,0,0,1.41.77"/><path class="cls-1" d="M86,85.59a2.06,2.06,0,0,0,1.13-.35A2,2,0,0,0,88,82.69a1.53,1.53,0,0,0-1.36-.75,2.06,2.06,0,0,0-1.13.35,2,2,0,0,0-.81,2.55,1.51,1.51,0,0,0,1.35.75"/><path class="cls-1" d="M80.64,86.61a2.05,2.05,0,0,0,1.15-.36,2.2,2.2,0,0,0,.93-1.2,1.74,1.74,0,0,0-.12-1.4,1.54,1.54,0,0,0-1.4-.77,2.15,2.15,0,0,0-1.15.35,2.34,2.34,0,0,0-.93,1.2,1.73,1.73,0,0,0,.12,1.4,1.58,1.58,0,0,0,1.4.78"/><path class="cls-1" d="M75.92,84.82a2.12,2.12,0,0,0-1.18.36,2.09,2.09,0,0,0-.83,2.69,1.67,1.67,0,0,0,1.47.82,2.11,2.11,0,0,0,1.19-.37,2.3,2.3,0,0,0,.94-1.23,1.77,1.77,0,0,0-.12-1.45,1.65,1.65,0,0,0-1.47-.82"/><path class="cls-1" d="M70.48,91.54a2.06,2.06,0,0,0,1.11-.34A2.13,2.13,0,0,0,72.48,90a1.67,1.67,0,0,0-.12-1.37,1.56,1.56,0,0,0-1.4-.76,1.94,1.94,0,0,0-1.09.33,2.22,2.22,0,0,0-.9,1.15,1.73,1.73,0,0,0,.12,1.38,1.56,1.56,0,0,0,1.39.77"/><path class="cls-1" d="M66.52,91.85a2,2,0,0,0-1.09.32,2,2,0,0,0-.77,2.53,1.6,1.6,0,0,0,1.41.78,2,2,0,0,0,1.1-.34,2,2,0,0,0,.77-2.52,1.59,1.59,0,0,0-1.42-.77"/><path class="cls-1" d="M57.49,94.48a1.83,1.83,0,0,0-.71,2.34,1.48,1.48,0,0,0,1.31.73,1.83,1.83,0,0,0,1-.32,1.81,1.81,0,0,0,.7-2.33,1.46,1.46,0,0,0-1.32-.72,1.89,1.89,0,0,0-1,.3"/><path class="cls-1" d="M112.42,93.35a2.37,2.37,0,0,0,1.32-.42,2.6,2.6,0,0,0,1.08-1.39,2,2,0,0,0-.13-1.59,1.77,1.77,0,0,0-1.58-.88,2.46,2.46,0,0,0-1.33.42,2.6,2.6,0,0,0-1.08,1.39,2,2,0,0,0,.13,1.59,1.78,1.78,0,0,0,1.59.88"/><path class="cls-1" d="M108.05,88.6a1.76,1.76,0,0,0,1.57.87,2.35,2.35,0,0,0,1.31-.41,2.31,2.31,0,0,0,.95-3,1.77,1.77,0,0,0-1.57-.86,2.48,2.48,0,0,0-1.32.4,2.32,2.32,0,0,0-.94,3"/><path class="cls-1" d="M104.35,83.63a1.91,1.91,0,0,0,.13,1.56,1.73,1.73,0,0,0,1.55.86,2.42,2.42,0,0,0,1.3-.4,2.59,2.59,0,0,0,1.06-1.38,1.91,1.91,0,0,0-.13-1.56,1.74,1.74,0,0,0-1.55-.85,2.31,2.31,0,0,0-1.3.4,2.51,2.51,0,0,0-1.06,1.37"/><path class="cls-1" d="M100.13,82.38a1.71,1.71,0,0,0,1.53.84,2.34,2.34,0,0,0,1.28-.39,2.26,2.26,0,0,0,.92-2.89,1.72,1.72,0,0,0-1.53-.84,2.35,2.35,0,0,0-1.28.4,2.25,2.25,0,0,0-.92,2.88"/><path class="cls-1" d="M96.85,81.48a2.37,2.37,0,0,0,1.25-.38,2.54,2.54,0,0,0,1-1.31A1.82,1.82,0,0,0,99,78.3a1.67,1.67,0,0,0-1.49-.82,2.18,2.18,0,0,0-1.23.39,2.47,2.47,0,0,0-1,1.31,1.8,1.8,0,0,0,.12,1.48,1.64,1.64,0,0,0,1.48.82"/><path class="cls-1" d="M90.21,79.61a1.62,1.62,0,0,0,1.43.79A2.23,2.23,0,0,0,92.85,80a2.4,2.4,0,0,0,1-1.27,1.77,1.77,0,0,0-.12-1.45,1.59,1.59,0,0,0-1.43-.79,2.26,2.26,0,0,0-1.21.37,2.4,2.4,0,0,0-1,1.27,1.81,1.81,0,0,0,.12,1.45"/><path class="cls-1" d="M85.07,79.6a1.54,1.54,0,0,0,1.38.76A2.11,2.11,0,0,0,87.61,80a2,2,0,0,0,.83-2.6,1.55,1.55,0,0,0-1.38-.77A2.17,2.17,0,0,0,85.9,77a2,2,0,0,0-.83,2.61"/><path class="cls-1" d="M81.16,81.15a2,2,0,0,0,1.11-.34,2,2,0,0,0,.8-2.49,1.49,1.49,0,0,0-1.33-.73,2,2,0,0,0-1.1.34,2,2,0,0,0-.8,2.49,1.49,1.49,0,0,0,1.32.73"/><path class="cls-1" d="M75.82,83A2.06,2.06,0,0,0,77,82.62a2.2,2.2,0,0,0,.92-1.19,1.73,1.73,0,0,0-.11-1.38,1.57,1.57,0,0,0-1.39-.77,2.09,2.09,0,0,0-1.14.35,2,2,0,0,0-.8,2.57,1.56,1.56,0,0,0,1.39.77"/><path class="cls-1" d="M70.7,85.6a2.15,2.15,0,0,0,1.16-.35A2.32,2.32,0,0,0,72.79,84a1.74,1.74,0,0,0-.12-1.42,1.64,1.64,0,0,0-1.47-.79,2,2,0,0,0-1.13.34,2.32,2.32,0,0,0-.93,1.21,1.75,1.75,0,0,0,.13,1.42,1.61,1.61,0,0,0,1.43.8"/><path class="cls-1" d="M66,88.83a2,2,0,0,0,1.08-.33,2.11,2.11,0,0,0,.87-1.13A1.67,1.67,0,0,0,67.82,86a1.54,1.54,0,0,0-1.38-.75,2,2,0,0,0-1.07.33,1.93,1.93,0,0,0-.75,2.47,1.54,1.54,0,0,0,1.36.75"/><path class="cls-1" d="M62.17,89.41a1.94,1.94,0,0,0-1.06.32,2.11,2.11,0,0,0-.85,1.11,1.67,1.67,0,0,0,.11,1.34,1.55,1.55,0,0,0,1.37.76,1.92,1.92,0,0,0,1.07-.33,2.08,2.08,0,0,0,.85-1.11,1.68,1.68,0,0,0-.11-1.34,1.58,1.58,0,0,0-1.38-.75"/><path class="cls-1" d="M54.16,91.81a1.75,1.75,0,0,0-1,.29,1.78,1.78,0,0,0-.69,2.27,1.42,1.42,0,0,0,1.27.71,1.88,1.88,0,0,0,1-.3,2,2,0,0,0,.79-1,1.52,1.52,0,0,0-.11-1.24,1.43,1.43,0,0,0-1.28-.7"/><path class="cls-1" d="M119.54,86.92a1.84,1.84,0,0,0-1.63-.9,2.49,2.49,0,0,0-1.37.43,2.4,2.4,0,0,0-1,3.08,1.84,1.84,0,0,0,1.63.9,2.56,2.56,0,0,0,1.37-.42,2.41,2.41,0,0,0,1-3.09"/><path class="cls-1" d="M117.05,84.7a2,2,0,0,0-.14-1.64,1.81,1.81,0,0,0-1.63-.89,2.5,2.5,0,0,0-1.37.42A2.77,2.77,0,0,0,112.8,84a2.06,2.06,0,0,0,.13,1.64,1.86,1.86,0,0,0,1.63.9,2.45,2.45,0,0,0,1.37-.42,2.72,2.72,0,0,0,1.12-1.45"/><path class="cls-1" d="M111.06,82.9a2.43,2.43,0,0,0,1.36-.43,2.39,2.39,0,0,0,1-3.06,1.83,1.83,0,0,0-1.62-.89,2.44,2.44,0,0,0-1.36.42,2.69,2.69,0,0,0-1.11,1.43,2.07,2.07,0,0,0,.13,1.63,1.84,1.84,0,0,0,1.62.9"/><path class="cls-1" d="M107.55,75.38a2.46,2.46,0,0,0-1.34.42,2.61,2.61,0,0,0-1.09,1.41,1.94,1.94,0,0,0,.13,1.59,1.8,1.8,0,0,0,1.59.89,2.4,2.4,0,0,0,1.33-.42,2.35,2.35,0,0,0,1-3,1.8,1.8,0,0,0-1.59-.88"/><path class="cls-1" d="M102.84,73.34a2.4,2.4,0,0,0-1.31.41,2.67,2.67,0,0,0-1.07,1.39,1.93,1.93,0,0,0,.12,1.57,1.79,1.79,0,0,0,1.58.87,2.44,2.44,0,0,0,1.32-.41,2.32,2.32,0,0,0,.94-3,1.79,1.79,0,0,0-1.58-.87"/><path class="cls-1" d="M97.78,71.86a2.33,2.33,0,0,0-1.28.4,2.54,2.54,0,0,0-1,1.35,1.88,1.88,0,0,0,.13,1.53,1.72,1.72,0,0,0,1.53.85,2.35,2.35,0,0,0,1.28-.4,2.62,2.62,0,0,0,1-1.35,1.92,1.92,0,0,0-.12-1.53,1.72,1.72,0,0,0-1.53-.85"/><path class="cls-1" d="M92.6,71.15a2.31,2.31,0,0,0-1.25.38,2.44,2.44,0,0,0-1,1.31,1.87,1.87,0,0,0,.11,1.49,1.68,1.68,0,0,0,1.49.81,2.31,2.31,0,0,0,1.24-.38,2.51,2.51,0,0,0,1-1.31A1.83,1.83,0,0,0,94.08,72a1.67,1.67,0,0,0-1.48-.81"/><path class="cls-1" d="M87.34,71.31a2.17,2.17,0,0,0-1.19.37,2.36,2.36,0,0,0-1,1.26,1.76,1.76,0,0,0,.11,1.43,1.6,1.6,0,0,0,1.42.78,2.18,2.18,0,0,0,1.19-.36,2.42,2.42,0,0,0,1-1.26,1.8,1.8,0,0,0-.12-1.43,1.6,1.6,0,0,0-1.42-.79"/><path class="cls-1" d="M83.35,72.94A1.55,1.55,0,0,0,82,72.18a2.16,2.16,0,0,0-1.15.36,2.32,2.32,0,0,0-.93,1.21A1.75,1.75,0,0,0,80,75.12a1.54,1.54,0,0,0,1.37.75,2.15,2.15,0,0,0,1.15-.35,2.36,2.36,0,0,0,.93-1.21,1.75,1.75,0,0,0-.11-1.37"/><path class="cls-1" d="M76.72,73.92a2,2,0,0,0-1.08.33,2.27,2.27,0,0,0-.89,1.14,1.62,1.62,0,0,0,.12,1.3,1.45,1.45,0,0,0,1.28.71,2,2,0,0,0,1.09-.33A1.92,1.92,0,0,0,78,74.63a1.43,1.43,0,0,0-1.29-.71"/><path class="cls-1" d="M72.93,76.85a1.5,1.5,0,0,0-1.34-.75,2.06,2.06,0,0,0-1.11.34,2.15,2.15,0,0,0-.88,1.16,1.61,1.61,0,0,0,.11,1.33,1.49,1.49,0,0,0,1.34.75,2.09,2.09,0,0,0,1.11-.34A2.18,2.18,0,0,0,73,78.19a1.67,1.67,0,0,0-.11-1.34"/><path class="cls-1" d="M68,79.81A1.6,1.6,0,0,0,66.58,79a2,2,0,0,0-1.12.34,2.2,2.2,0,0,0-.9,1.18,1.71,1.71,0,0,0,.11,1.39,1.6,1.6,0,0,0,1.41.79,2.06,2.06,0,0,0,1.14-.35,2.28,2.28,0,0,0,.91-1.17,1.77,1.77,0,0,0-.12-1.4"/><path class="cls-1" d="M62,82.75a1.92,1.92,0,0,0-1,.31,2.07,2.07,0,0,0-.85,1.11,1.6,1.6,0,0,0,.11,1.31,1.48,1.48,0,0,0,1.33.74,1.92,1.92,0,0,0,1.06-.33,1.87,1.87,0,0,0,.74-2.41A1.5,1.5,0,0,0,62,82.75"/><path class="cls-1" d="M56.71,87.34A1.85,1.85,0,0,0,56,89.73a1.5,1.5,0,0,0,1.34.74,2,2,0,0,0,1-.32,1.86,1.86,0,0,0,.72-2.39A1.53,1.53,0,0,0,57.74,87a1.89,1.89,0,0,0-1,.31"/><path class="cls-1" d="M49.87,89.39a1.74,1.74,0,0,0-.95.29,1.69,1.69,0,0,0-.65,2.2,1.37,1.37,0,0,0,1.23.7,1.78,1.78,0,0,0,1-.3,1.86,1.86,0,0,0,.77-1,1.53,1.53,0,0,0-.1-1.21,1.42,1.42,0,0,0-1.26-.68"/><path class="cls-1" d="M122.78,82.64a2.51,2.51,0,0,0-1.42.45,2.79,2.79,0,0,0-1.16,1.49,2.14,2.14,0,0,0,.14,1.71,1.9,1.9,0,0,0,1.7.94,2.58,2.58,0,0,0,1.42-.44,2.52,2.52,0,0,0,1-3.21,1.92,1.92,0,0,0-1.71-.94"/><path class="cls-1" d="M121.45,79.36a1.92,1.92,0,0,0-1.7-.94,2.61,2.61,0,0,0-1.43.44,2.91,2.91,0,0,0-1.16,1.5,2.14,2.14,0,0,0,.14,1.71A1.92,1.92,0,0,0,119,83a2.64,2.64,0,0,0,1.43-.44,2.51,2.51,0,0,0,1-3.21"/><path class="cls-1" d="M113.71,78.48a1.89,1.89,0,0,0,1.68.93,2.59,2.59,0,0,0,1.43-.44A2.88,2.88,0,0,0,118,77.48a2.2,2.2,0,0,0-.14-1.7,1.92,1.92,0,0,0-1.7-.94,2.6,2.6,0,0,0-1.42.44,2.51,2.51,0,0,0-1,3.2"/><path class="cls-1" d="M112.13,71.62a2.56,2.56,0,0,0-1.4.43,2.84,2.84,0,0,0-1.14,1.47,2.13,2.13,0,0,0,.14,1.67,1.87,1.87,0,0,0,1.66.92,2.56,2.56,0,0,0,1.39-.44,2.65,2.65,0,0,0,1.13-1.47,2,2,0,0,0-.13-1.66,1.84,1.84,0,0,0-1.65-.92"/><path class="cls-1" d="M105.32,72.63a1.83,1.83,0,0,0,1.63.91,2.51,2.51,0,0,0,1.37-.43,2.41,2.41,0,0,0,1-3.08,1.84,1.84,0,0,0-1.63-.9,2.56,2.56,0,0,0-1.37.42,2.4,2.4,0,0,0-1,3.08"/><path class="cls-1" d="M103,67.38a2.46,2.46,0,0,0-1.34.42,2.66,2.66,0,0,0-1.09,1.41,2,2,0,0,0,.13,1.6,1.81,1.81,0,0,0,1.6.88,2.43,2.43,0,0,0,1.33-.42,2.68,2.68,0,0,0,1.09-1.4,2,2,0,0,0-.13-1.61,1.79,1.79,0,0,0-1.59-.88"/><path class="cls-1" d="M95.74,69.62a1.74,1.74,0,0,0,1.55.85,2.37,2.37,0,0,0,1.31-.4,2.6,2.6,0,0,0,1.06-1.37,2,2,0,0,0-.13-1.56A1.74,1.74,0,0,0,98,66.28a2.35,2.35,0,0,0-1.31.41,2.63,2.63,0,0,0-1.06,1.36,2,2,0,0,0,.13,1.57"/><path class="cls-1" d="M92.77,65.83a2.29,2.29,0,0,0-1.26.4,2.22,2.22,0,0,0-.91,2.85,1.69,1.69,0,0,0,1.5.84,2.35,2.35,0,0,0,1.28-.4,2.51,2.51,0,0,0,1-1.33,1.89,1.89,0,0,0-.12-1.52,1.73,1.73,0,0,0-1.52-.84"/><path class="cls-1" d="M86.86,70a2.23,2.23,0,0,0,1.23-.38,2.37,2.37,0,0,0,1-1.28A1.79,1.79,0,0,0,89,66.88a1.64,1.64,0,0,0-1.45-.81,2.22,2.22,0,0,0-1.22.38,2.45,2.45,0,0,0-1,1.29,1.83,1.83,0,0,0,.13,1.46,1.61,1.61,0,0,0,1.44.8"/><path class="cls-1" d="M81.67,70.68h0a2.13,2.13,0,0,0,1.17-.37,2.29,2.29,0,0,0,1-1.23,1.8,1.8,0,0,0-.12-1.41,1.59,1.59,0,0,0-1.4-.77,2.1,2.1,0,0,0-1.16.37,2.05,2.05,0,0,0-.85,2.63,1.58,1.58,0,0,0,1.4.78"/><path class="cls-1" d="M76.36,72.05a2.1,2.1,0,0,0,1.9-2.84,1.51,1.51,0,0,0-1.32-.73,2,2,0,0,0-1.11.35A1.94,1.94,0,0,0,75,71.32a1.46,1.46,0,0,0,1.32.73"/><path class="cls-1" d="M70.93,74.15A1.93,1.93,0,0,0,72,73.81a2.1,2.1,0,0,0,.86-1.11,1.61,1.61,0,0,0-.1-1.26,1.44,1.44,0,0,0-1.26-.7,2,2,0,0,0-1.06.33,1.86,1.86,0,0,0-.76,2.38,1.44,1.44,0,0,0,1.26.7"/><path class="cls-1" d="M65.94,76.89A2,2,0,0,0,67,76.55a1.9,1.9,0,0,0,.76-2.43,1.47,1.47,0,0,0-1.31-.73,2,2,0,0,0-1.08.34,1.9,1.9,0,0,0-.76,2.43,1.49,1.49,0,0,0,1.31.73"/><path class="cls-1" d="M61.24,80.17a2,2,0,0,0,1.09-.34,1.93,1.93,0,0,0,.76-2.47,1.56,1.56,0,0,0-1.38-.74,2,2,0,0,0-1.07.32,1.92,1.92,0,0,0-.75,2.47,1.54,1.54,0,0,0,1.35.76"/><path class="cls-1" d="M57.33,80.47a1.89,1.89,0,0,0-1,.3,1.81,1.81,0,0,0-.71,2.32,1.43,1.43,0,0,0,1.28.71,1.93,1.93,0,0,0,1-.31,2,2,0,0,0,.81-1.06,1.57,1.57,0,0,0-.1-1.26,1.46,1.46,0,0,0-1.3-.7"/><path class="cls-1" d="M52.38,84.94a1.81,1.81,0,0,0-.7,2.34A1.46,1.46,0,0,0,53,88a1.86,1.86,0,0,0,1-.32,1.8,1.8,0,0,0,.7-2.33,1.48,1.48,0,0,0-1.32-.72,1.8,1.8,0,0,0-1,.3"/><path class="cls-1" d="M45.48,87.16a1.64,1.64,0,0,0-.91.27,1.8,1.8,0,0,0-.73.95,1.45,1.45,0,0,0,.1,1.16,1.34,1.34,0,0,0,1.18.66,1.77,1.77,0,0,0,.93-.28,1.64,1.64,0,0,0,.62-2.11,1.32,1.32,0,0,0-1.19-.65"/><path class="cls-1" d="M129.28,80.51a2,2,0,0,0-1.76-1A2.63,2.63,0,0,0,126,80,2.59,2.59,0,0,0,125,83.32a2,2,0,0,0,1.76,1,2.77,2.77,0,0,0,1.49-.46,2.61,2.61,0,0,0,1.05-3.33"/><path class="cls-1" d="M126.28,76.24a2,2,0,0,0-1.75-1,2.79,2.79,0,0,0-1.47.46A2.58,2.58,0,0,0,122,79a2,2,0,0,0,1.75,1,2.71,2.71,0,0,0,1.47-.46,2.57,2.57,0,0,0,1-3.3"/><path class="cls-1" d="M123,74.08a2.22,2.22,0,0,0-.13-1.76,2,2,0,0,0-1.76-1,2.63,2.63,0,0,0-1.47.46,2.92,2.92,0,0,0-1.19,1.54,2.18,2.18,0,0,0,.14,1.76,2,2,0,0,0,1.75,1,2.75,2.75,0,0,0,1.47-.45A2.93,2.93,0,0,0,123,74.08"/><path class="cls-1" d="M116.35,72.71h0a2.61,2.61,0,0,0,1.45-.45,2.55,2.55,0,0,0,1-3.26,2,2,0,0,0-1.73-1,2.69,2.69,0,0,0-1.45.45,2.57,2.57,0,0,0-1,3.27,2,2,0,0,0,1.73.95"/><path class="cls-1" d="M110.37,67.35a2.14,2.14,0,0,0,.14,1.71,1.93,1.93,0,0,0,1.7.93,2.58,2.58,0,0,0,1.42-.44,2.84,2.84,0,0,0,1.17-1.5,2.14,2.14,0,0,0-.14-1.71A1.94,1.94,0,0,0,113,65.4a2.62,2.62,0,0,0-1.42.45,2.82,2.82,0,0,0-1.16,1.5"/><path class="cls-1" d="M108.33,63.25a2.55,2.55,0,0,0-1.41.44,2.48,2.48,0,0,0-1,3.16,1.89,1.89,0,0,0,1.68.93,2.57,2.57,0,0,0,1.41-.44,2.48,2.48,0,0,0,1-3.16,1.91,1.91,0,0,0-1.68-.93"/><path class="cls-1" d="M101.15,65.27a1.82,1.82,0,0,0,1.63.9,2.5,2.5,0,0,0,1.37-.42,2.77,2.77,0,0,0,1.11-1.44,2,2,0,0,0-.13-1.64,1.84,1.84,0,0,0-1.64-.9,2.44,2.44,0,0,0-1.36.42,2.4,2.4,0,0,0-1,3.08"/><path class="cls-1" d="M96.05,64.24a1.78,1.78,0,0,0,1.6.88A2.46,2.46,0,0,0,99,64.7a2.36,2.36,0,0,0,1-3,1.79,1.79,0,0,0-1.6-.88,2.43,2.43,0,0,0-1.33.42,2.36,2.36,0,0,0-1,3"/><path class="cls-1" d="M92.5,64.63h0a2.38,2.38,0,0,0,1.29-.4,2.56,2.56,0,0,0,1-1.36,1.93,1.93,0,0,0-.12-1.55,1.73,1.73,0,0,0-1.54-.85,2.39,2.39,0,0,0-1.3.4A2.29,2.29,0,0,0,91,63.78a1.74,1.74,0,0,0,1.55.85"/><path class="cls-1" d="M87.33,64.77a2.31,2.31,0,0,0,1.24-.38,2.54,2.54,0,0,0,1-1.31,1.86,1.86,0,0,0-.11-1.49A1.69,1.69,0,0,0,88,60.77a2.29,2.29,0,0,0-1.24.39A2.18,2.18,0,0,0,85.84,64a1.66,1.66,0,0,0,1.49.82"/><path class="cls-1" d="M81.94,65.47a2.17,2.17,0,0,0,1.19-.37,2.34,2.34,0,0,0,1-1.26A1.77,1.77,0,0,0,84,62.41a1.6,1.6,0,0,0-1.42-.78,2.22,2.22,0,0,0-1.2.37,2.37,2.37,0,0,0-1,1.26,1.77,1.77,0,0,0,.12,1.43,1.6,1.6,0,0,0,1.42.78"/><path class="cls-1" d="M76.59,66.76a2.13,2.13,0,0,0,1.14-.36,2.27,2.27,0,0,0,.93-1.21,1.7,1.7,0,0,0-.11-1.37,1.54,1.54,0,0,0-1.36-.75,2.12,2.12,0,0,0-1.15.35A2,2,0,0,0,75.22,66a1.55,1.55,0,0,0,1.37.76"/><path class="cls-1" d="M71.32,68.58a1.93,1.93,0,0,0,1.08-.33,2.17,2.17,0,0,0,.89-1.14,1.71,1.71,0,0,0-.1-1.3,1.47,1.47,0,0,0-1.3-.71,2,2,0,0,0-1.08.33,2.24,2.24,0,0,0-.88,1.14,1.58,1.58,0,0,0,.11,1.3,1.43,1.43,0,0,0,1.28.71"/><path class="cls-1" d="M66.22,71a1.86,1.86,0,0,0,1-.32A1.79,1.79,0,0,0,68,68.35a1.38,1.38,0,0,0-1.22-.68,2,2,0,0,0-1,.31,1.82,1.82,0,0,0-.73,2.3,1.37,1.37,0,0,0,1.22.68"/><path class="cls-1" d="M61.34,74a1.94,1.94,0,0,0,1-.33,1.85,1.85,0,0,0,.74-2.38,1.48,1.48,0,0,0-1.3-.7,1.94,1.94,0,0,0-1,.31,1.86,1.86,0,0,0-.74,2.38,1.46,1.46,0,0,0,1.29.72"/><path class="cls-1" d="M57.2,74a1.92,1.92,0,0,0-1,.31,2.07,2.07,0,0,0-.85,1.11,1.61,1.61,0,0,0,.1,1.31,1.53,1.53,0,0,0,1.34.74,1.92,1.92,0,0,0,1.06-.33,1.88,1.88,0,0,0,.74-2.41A1.51,1.51,0,0,0,57.2,74"/><path class="cls-1" d="M52.91,78a1.71,1.71,0,0,0-1,.3,2,2,0,0,0-.8,1,1.51,1.51,0,0,0,.11,1.22,1.38,1.38,0,0,0,1.24.7,1.78,1.78,0,0,0,1-.31,1.94,1.94,0,0,0,.8-1,1.5,1.5,0,0,0-.11-1.23A1.42,1.42,0,0,0,52.91,78"/><path class="cls-1" d="M47.9,82.8a1.85,1.85,0,0,0-.78,1,1.53,1.53,0,0,0,.11,1.24,1.43,1.43,0,0,0,1.27.69,1.77,1.77,0,0,0,1-.3,2,2,0,0,0,.78-1,1.56,1.56,0,0,0-.11-1.24,1.45,1.45,0,0,0-1.29-.68,1.68,1.68,0,0,0-1,.3"/><path class="cls-1" d="M41.13,85a1.62,1.62,0,0,0-.88.26,1.77,1.77,0,0,0-.71.93,1.38,1.38,0,0,0,.1,1.13,1.31,1.31,0,0,0,1.15.65,1.61,1.61,0,0,0,.89-.28,1.64,1.64,0,0,0,.71-.93,1.36,1.36,0,0,0-.09-1.12A1.31,1.31,0,0,0,41.13,85"/><path class="cls-1" d="M132.38,76.39a2.83,2.83,0,0,0-1.53.47,2.69,2.69,0,0,0-1.09,3.45,2.06,2.06,0,0,0,1.83,1,2.84,2.84,0,0,0,1.53-.48,3.08,3.08,0,0,0,1.24-1.61,2.26,2.26,0,0,0-.15-1.83,2,2,0,0,0-1.83-1"/><path class="cls-1" d="M131.3,73.16a2,2,0,0,0-1.8-1,2.72,2.72,0,0,0-1.52.47,3,3,0,0,0-1.24,1.6,2.22,2.22,0,0,0,.14,1.81,2,2,0,0,0,1.81,1,2.82,2.82,0,0,0,1.53-.48,2.66,2.66,0,0,0,1.08-3.41"/><path class="cls-1" d="M128.21,71.1a2.21,2.21,0,0,0-.15-1.81,2,2,0,0,0-1.8-1,2.74,2.74,0,0,0-1.51.47,3.05,3.05,0,0,0-1.23,1.59,2.25,2.25,0,0,0,.15,1.81,2,2,0,0,0,1.8,1,2.74,2.74,0,0,0,1.51-.47,3,3,0,0,0,1.23-1.59"/><path class="cls-1" d="M124.17,66a2,2,0,0,0-1.78-1,2.77,2.77,0,0,0-1.52.47A3,3,0,0,0,119.66,67a2.21,2.21,0,0,0,.15,1.79,2,2,0,0,0,1.78,1,2.75,2.75,0,0,0,1.5-.46A2.64,2.64,0,0,0,124.17,66"/><path class="cls-1" d="M118.28,62a2.71,2.71,0,0,0-1.47.46,2.59,2.59,0,0,0-1.06,3.33,2,2,0,0,0,1.76,1,2.71,2.71,0,0,0,1.48-.46,3.05,3.05,0,0,0,1.21-1.56,2.24,2.24,0,0,0-.15-1.77,2,2,0,0,0-1.77-1"/><path class="cls-1" d="M113.77,59.52a2.72,2.72,0,0,0-1.46.45,2.56,2.56,0,0,0-1,3.28,2,2,0,0,0,1.73,1,2.64,2.64,0,0,0,1.46-.45,2.86,2.86,0,0,0,1.18-1.53,2.16,2.16,0,0,0-.14-1.75,1.94,1.94,0,0,0-1.73-1"/><path class="cls-1" d="M109,57.47a2.65,2.65,0,0,0-1.44.45,2.52,2.52,0,0,0-1,3.24,1.91,1.91,0,0,0,1.71,1,2.63,2.63,0,0,0,1.44-.45,2.52,2.52,0,0,0,1-3.24,1.92,1.92,0,0,0-1.71-1"/><path class="cls-1" d="M103.86,56.27a2.55,2.55,0,0,0-1.41.44,2.78,2.78,0,0,0-1.14,1.48,2.07,2.07,0,0,0,.13,1.68,1.89,1.89,0,0,0,1.68.93,2.57,2.57,0,0,0,1.41-.44,2.49,2.49,0,0,0,1-3.16,1.91,1.91,0,0,0-1.68-.93"/><path class="cls-1" d="M98.74,55.46a2.44,2.44,0,0,0-1.36.42,2.69,2.69,0,0,0-1.11,1.43,2,2,0,0,0,.13,1.63,1.82,1.82,0,0,0,1.62.9,2.53,2.53,0,0,0,1.36-.42A2.77,2.77,0,0,0,100.49,58a2,2,0,0,0-.13-1.63,1.82,1.82,0,0,0-1.62-.89"/><path class="cls-1" d="M93.45,55.17a2.48,2.48,0,0,0-1.33.42,2.33,2.33,0,0,0-1,3,1.79,1.79,0,0,0,1.59.88A2.4,2.4,0,0,0,94.09,59a2.62,2.62,0,0,0,1.07-1.39A1.94,1.94,0,0,0,95,56.05a1.77,1.77,0,0,0-1.58-.88"/><path class="cls-1" d="M89.82,56.29a1.69,1.69,0,0,0-1.52-.84,2.29,2.29,0,0,0-1.28.39,2.25,2.25,0,0,0-.92,2.88,1.71,1.71,0,0,0,1.52.85,2.38,2.38,0,0,0,1.29-.4,2.58,2.58,0,0,0,1-1.35,1.88,1.88,0,0,0-.13-1.53"/><path class="cls-1" d="M83.08,56.26a2.25,2.25,0,0,0-1.23.38,2.51,2.51,0,0,0-1,1.3A1.8,1.8,0,0,0,81,59.42a1.64,1.64,0,0,0,1.47.81,2.25,2.25,0,0,0,1.23-.38,2.17,2.17,0,0,0,.88-2.78,1.65,1.65,0,0,0-1.47-.81"/><path class="cls-1" d="M79.07,58.4a1.59,1.59,0,0,0-1.4-.77,2.15,2.15,0,0,0-1.18.36,2.08,2.08,0,0,0-.84,2.64,1.59,1.59,0,0,0,1.4.77A2.23,2.23,0,0,0,78.23,61a2.38,2.38,0,0,0,1-1.24,1.74,1.74,0,0,0-.11-1.4"/><path class="cls-1" d="M72.33,59.5a2.08,2.08,0,0,0-1.13.35A2.2,2.2,0,0,0,70.3,61a1.67,1.67,0,0,0,.11,1.34,1.49,1.49,0,0,0,1.33.73,2,2,0,0,0,1.12-.35,2,2,0,0,0,.8-2.51,1.48,1.48,0,0,0-1.33-.74"/><path class="cls-1" d="M67.11,61.89a1.89,1.89,0,0,0-1.06.33,1.85,1.85,0,0,0-.75,2.38,1.4,1.4,0,0,0,1.25.69A1.89,1.89,0,0,0,67.61,65a2.18,2.18,0,0,0,.86-1.11,1.63,1.63,0,0,0-.1-1.27,1.43,1.43,0,0,0-1.26-.69"/><path class="cls-1" d="M62.06,64.75a1.86,1.86,0,0,0-1,.31,1.74,1.74,0,0,0-.71,2.24,1.33,1.33,0,0,0,1.19.66,1.76,1.76,0,0,0,1-.32,2,2,0,0,0,.81-1,1.47,1.47,0,0,0-.1-1.19,1.31,1.31,0,0,0-1.19-.66"/><path class="cls-1" d="M57.24,67.93a1.88,1.88,0,0,0-1,.29,1.8,1.8,0,0,0-.72,2.31,1.41,1.41,0,0,0,1.24.69,1.9,1.9,0,0,0,1-.31,2.08,2.08,0,0,0,.83-1.07,1.52,1.52,0,0,0-.11-1.24,1.41,1.41,0,0,0-1.26-.67"/><path class="cls-1" d="M52.71,71.5a1.85,1.85,0,0,0-1,.31,2,2,0,0,0-.83,1.08,1.57,1.57,0,0,0,.1,1.28,1.47,1.47,0,0,0,1.3.73,1.9,1.9,0,0,0,1-.32,2,2,0,0,0,.83-1.08A1.53,1.53,0,0,0,54,72.22a1.46,1.46,0,0,0-1.31-.72"/><path class="cls-1" d="M47.55,75.91a1.88,1.88,0,0,0-.78,1,1.51,1.51,0,0,0,.11,1.2,1.35,1.35,0,0,0,1.22.68,1.81,1.81,0,0,0,1.63-2.5,1.38,1.38,0,0,0-1.23-.67,1.71,1.71,0,0,0-1,.29"/><path class="cls-1" d="M43.63,80.47A1.7,1.7,0,0,0,43,82.68a1.37,1.37,0,0,0,1.22.69,1.78,1.78,0,0,0,1-.29,1.9,1.9,0,0,0,.77-1,1.49,1.49,0,0,0-.1-1.21,1.41,1.41,0,0,0-1.26-.68,1.73,1.73,0,0,0-.94.28"/><path class="cls-1" d="M36,82.67a1.53,1.53,0,0,0-.6,2,1.26,1.26,0,0,0,1.12.63,1.56,1.56,0,0,0,.87-.27A1.54,1.54,0,0,0,38,83a1.26,1.26,0,0,0-1.13-.62,1.52,1.52,0,0,0-.85.26"/><path class="cls-1" d="M137.36,73a2.87,2.87,0,0,0-1.57.49A2.76,2.76,0,0,0,134.66,77a2.11,2.11,0,0,0,1.88,1,2.89,2.89,0,0,0,1.57-.48A2.77,2.77,0,0,0,139.23,74a2.12,2.12,0,0,0-1.87-1"/><path class="cls-1" d="M133.43,73.81a2.93,2.93,0,0,0,1.58-.49,2.77,2.77,0,0,0,1.12-3.54,2.09,2.09,0,0,0-1.88-1,2.9,2.9,0,0,0-1.57.49,3.05,3.05,0,0,0-1.27,1.65,2.34,2.34,0,0,0,.15,1.88,2.11,2.11,0,0,0,1.87,1"/><path class="cls-1" d="M130,69.68a2.83,2.83,0,0,0,1.56-.48,2.75,2.75,0,0,0,1.12-3.52,2.08,2.08,0,0,0-1.87-1,2.84,2.84,0,0,0-1.56.49,2.75,2.75,0,0,0-1.12,3.52,2.1,2.1,0,0,0,1.87,1"/><path class="cls-1" d="M127,61.14a2.88,2.88,0,0,0-1.55.48,3.14,3.14,0,0,0-1.26,1.64,2.27,2.27,0,0,0,.15,1.85,2.05,2.05,0,0,0,1.84,1,2.82,2.82,0,0,0,1.56-.49A3.08,3.08,0,0,0,129,64a2.3,2.3,0,0,0-.15-1.86,2.07,2.07,0,0,0-1.85-1"/><path class="cls-1" d="M122.81,58a2.84,2.84,0,0,0-1.54.47,2.7,2.7,0,0,0-1.09,3.45,2,2,0,0,0,1.82,1,2.79,2.79,0,0,0,1.53-.48,2.69,2.69,0,0,0,1.1-3.45,2,2,0,0,0-1.82-1"/><path class="cls-1" d="M118.35,55.35a2.77,2.77,0,0,0-1.52.47,2.67,2.67,0,0,0-1.08,3.4,2,2,0,0,0,1.81,1,2.74,2.74,0,0,0,1.51-.47,2.66,2.66,0,0,0,1.08-3.4,2,2,0,0,0-1.8-1"/><path class="cls-1" d="M113.69,53.25a2.74,2.74,0,0,0-1.49.46A3,3,0,0,0,111,55.28a2.23,2.23,0,0,0,.14,1.78,2,2,0,0,0,1.78,1,2.74,2.74,0,0,0,1.49-.46A3,3,0,0,0,115.61,56a2.23,2.23,0,0,0-.15-1.78,2,2,0,0,0-1.77-1"/><path class="cls-1" d="M108.79,51.65a2.64,2.64,0,0,0-1.46.45,3,3,0,0,0-1.18,1.54,2.13,2.13,0,0,0,.14,1.74,2,2,0,0,0,1.74,1,2.69,2.69,0,0,0,1.45-.45,2.56,2.56,0,0,0,1-3.28,2,2,0,0,0-1.74-1"/><path class="cls-1" d="M103.81,50.56a2.58,2.58,0,0,0-1.42.44,2.51,2.51,0,0,0-1,3.21,1.92,1.92,0,0,0,1.7.94,2.59,2.59,0,0,0,1.43-.44,2.51,2.51,0,0,0,1-3.21,1.9,1.9,0,0,0-1.7-.94"/><path class="cls-1" d="M98.1,54.45h0A2.6,2.6,0,0,0,99.49,54a2.79,2.79,0,0,0,1.12-1.46,2,2,0,0,0-.14-1.65A1.85,1.85,0,0,0,98.82,50a2.55,2.55,0,0,0-1.38.43,2.74,2.74,0,0,0-1.12,1.46,2,2,0,0,0,.13,1.64,1.85,1.85,0,0,0,1.65.92"/><path class="cls-1" d="M92.93,54.2h0a2.41,2.41,0,0,0,1.35-.42,2.37,2.37,0,0,0,1-3,1.81,1.81,0,0,0-1.61-.89,2.52,2.52,0,0,0-1.35.42,2.38,2.38,0,0,0-1,3,1.81,1.81,0,0,0,1.61.89"/><path class="cls-1" d="M87.69,54.35A2.45,2.45,0,0,0,89,54,2.3,2.3,0,0,0,89.93,51a1.75,1.75,0,0,0-1.55-.85,2.37,2.37,0,0,0-1.31.4,2.29,2.29,0,0,0-.93,2.93,1.73,1.73,0,0,0,1.55.86"/><path class="cls-1" d="M82.38,55.08a2.32,2.32,0,0,0,1.26-.38,2.21,2.21,0,0,0,.9-2.83,1.66,1.66,0,0,0-1.49-.82,2.32,2.32,0,0,0-1.26.38,2.5,2.5,0,0,0-1,1.32,1.87,1.87,0,0,0,.12,1.51,1.66,1.66,0,0,0,1.49.82"/><path class="cls-1" d="M76.83,56.25A2.14,2.14,0,0,0,78,55.88a2.08,2.08,0,0,0,.85-2.68,1.58,1.58,0,0,0-1.42-.79,2.17,2.17,0,0,0-1.19.37,2.08,2.08,0,0,0-.86,2.68,1.59,1.59,0,0,0,1.43.79"/><path class="cls-1" d="M71.56,57.88a2.1,2.1,0,0,0,1.14-.36,2.31,2.31,0,0,0,.94-1.2,1.77,1.77,0,0,0-.11-1.38,1.54,1.54,0,0,0-1.37-.75,2.15,2.15,0,0,0-1.15.35,2,2,0,0,0-.82,2.58,1.53,1.53,0,0,0,1.37.76"/><path class="cls-1" d="M66.4,59.92a2,2,0,0,0,1.08-.33,2.15,2.15,0,0,0,.88-1.14,1.66,1.66,0,0,0-.1-1.3A1.46,1.46,0,0,0,67,56.44a2,2,0,0,0-1.09.34A2.17,2.17,0,0,0,65,57.91a1.58,1.58,0,0,0,.11,1.3,1.44,1.44,0,0,0,1.29.71"/><path class="cls-1" d="M61.38,62.4a1.88,1.88,0,0,0,1-.31,1.8,1.8,0,0,0,.72-2.3,1.35,1.35,0,0,0-1.21-.67,1.92,1.92,0,0,0-1,.32,2.06,2.06,0,0,0-.82,1.07,1.55,1.55,0,0,0,.1,1.22,1.36,1.36,0,0,0,1.21.67"/><path class="cls-1" d="M56.55,65.46a1.92,1.92,0,0,0,1.06-.33,1.86,1.86,0,0,0,.74-2.38,1.48,1.48,0,0,0-1.3-.7,1.92,1.92,0,0,0-1,.31,2.07,2.07,0,0,0-.85,1.11,1.63,1.63,0,0,0,.1,1.27,1.46,1.46,0,0,0,1.29.72"/><path class="cls-1" d="M52,68.86A1.92,1.92,0,0,0,53,68.53a1.88,1.88,0,0,0,.74-2.41,1.52,1.52,0,0,0-1.35-.73,1.9,1.9,0,0,0-1,.32,2.05,2.05,0,0,0-.85,1.1,1.64,1.64,0,0,0,.11,1.31,1.52,1.52,0,0,0,1.33.74"/><path class="cls-1" d="M48,69.23a1.75,1.75,0,0,0-1,.29,1.92,1.92,0,0,0-.8,1,1.53,1.53,0,0,0,.1,1.23,1.41,1.41,0,0,0,1.25.7,1.81,1.81,0,0,0,1-.31,2,2,0,0,0,.8-1,1.54,1.54,0,0,0-.11-1.23A1.42,1.42,0,0,0,48,69.23"/><path class="cls-1" d="M44,73.37a1.71,1.71,0,0,0-.93.27,1.67,1.67,0,0,0-.65,2.14,1.35,1.35,0,0,0,1.19.66,1.7,1.7,0,0,0,.93-.29,1.8,1.8,0,0,0,.75-1,1.41,1.41,0,0,0-.1-1.16A1.33,1.33,0,0,0,44,73.37"/><path class="cls-1" d="M39.19,78.17a1.8,1.8,0,0,0-.73,1,1.41,1.41,0,0,0,.1,1.16,1.35,1.35,0,0,0,1.18.66,1.63,1.63,0,0,0,.92-.28,1.8,1.8,0,0,0,.73-1,1.41,1.41,0,0,0-.1-1.16,1.34,1.34,0,0,0-1.2-.65,1.66,1.66,0,0,0-.9.27"/><path class="cls-1" d="M32.2,82.9a1.51,1.51,0,0,0,.84-.26,1.61,1.61,0,0,0,.66-.86,1.27,1.27,0,0,0-.09-1,1.21,1.21,0,0,0-1.09-.6,1.47,1.47,0,0,0-.82.25,1.65,1.65,0,0,0-.66.86,1.27,1.27,0,0,0,.09,1.05,1.22,1.22,0,0,0,1.07.61"/><path class="cls-1" d="M144.54,71.09A2.16,2.16,0,0,0,142.61,70a3,3,0,0,0-1.62.5,2.82,2.82,0,0,0-1.15,3.63,2.13,2.13,0,0,0,1.93,1.07,2.93,2.93,0,0,0,1.61-.5,2.84,2.84,0,0,0,1.16-3.64"/><path class="cls-1" d="M136.68,69.69a2.13,2.13,0,0,0,1.92,1.06h0a2.93,2.93,0,0,0,1.61-.5,3.14,3.14,0,0,0,1.31-1.7,2.38,2.38,0,0,0-.15-1.93,2.17,2.17,0,0,0-1.93-1.07,2.93,2.93,0,0,0-1.61.5,2.84,2.84,0,0,0-1.16,3.64"/><path class="cls-1" d="M133.11,65.54A2.14,2.14,0,0,0,135,66.6a2.93,2.93,0,0,0,1.61-.5,2.84,2.84,0,0,0,1.15-3.62,2.18,2.18,0,0,0-1.92-1.06,3,3,0,0,0-1.61.5,2.84,2.84,0,0,0-1.15,3.62"/><path class="cls-1" d="M129.25,61.79a2.14,2.14,0,0,0,1.91,1.05,2.87,2.87,0,0,0,1.59-.5,2.81,2.81,0,0,0,1.15-3.59,2.15,2.15,0,0,0-1.9-1,2.93,2.93,0,0,0-1.61.5,2.82,2.82,0,0,0-1.14,3.59"/><path class="cls-1" d="M125.11,58.54a2.11,2.11,0,0,0,1.88,1,2.81,2.81,0,0,0,1.58-.5,3.15,3.15,0,0,0,1.29-1.66,2.36,2.36,0,0,0-.15-1.89,2.11,2.11,0,0,0-1.89-1,2.91,2.91,0,0,0-1.58.49,2.77,2.77,0,0,0-1.13,3.56"/><path class="cls-1" d="M120.79,55.65a2.07,2.07,0,0,0,1.86,1,2.8,2.8,0,0,0,1.56-.48,3.16,3.16,0,0,0,1.28-1.65,2.36,2.36,0,0,0-.16-1.87,2.1,2.1,0,0,0-1.87-1,2.94,2.94,0,0,0-1.56.48,3.18,3.18,0,0,0-1.27,1.65,2.28,2.28,0,0,0,.16,1.87"/><path class="cls-1" d="M116.41,53.34a2.08,2.08,0,0,0,1.84,1,2.77,2.77,0,0,0,1.54-.48A3,3,0,0,0,121,52.25a2.25,2.25,0,0,0-.15-1.84,2.08,2.08,0,0,0-1.83-1,2.85,2.85,0,0,0-1.54.48,3.13,3.13,0,0,0-1.26,1.62,2.35,2.35,0,0,0,.15,1.85"/><path class="cls-1" d="M111.8,51.44a2.05,2.05,0,0,0,1.81,1,2.73,2.73,0,0,0,1.51-.48,3,3,0,0,0,1.24-1.59,2.24,2.24,0,0,0-.15-1.82,2,2,0,0,0-1.81-1,2.8,2.8,0,0,0-1.52.47,2.67,2.67,0,0,0-1.08,3.42"/><path class="cls-1" d="M108.77,50.87h0a2.7,2.7,0,0,0,1.49-.47,2.61,2.61,0,0,0,1.06-3.35,2,2,0,0,0-1.77-1,2.74,2.74,0,0,0-1.49.46,3,3,0,0,0-1.21,1.57,2.25,2.25,0,0,0,.14,1.79,2,2,0,0,0,1.78,1"/><path class="cls-1" d="M103.68,49.77h0a2.66,2.66,0,0,0,1.46-.45,2.54,2.54,0,0,0,1-3.26,1.94,1.94,0,0,0-1.73-1,2.67,2.67,0,0,0-1.45.46,2.8,2.8,0,0,0-1.17,1.52,2.13,2.13,0,0,0,.14,1.74,1.91,1.91,0,0,0,1.72,1"/><path class="cls-1" d="M98.57,49.2a2.59,2.59,0,0,0,1.42-.45,2.84,2.84,0,0,0,1.16-1.49,2.12,2.12,0,0,0-.14-1.7,1.9,1.9,0,0,0-1.69-.94,2.65,2.65,0,0,0-1.43.45,2.49,2.49,0,0,0-1,3.19,1.89,1.89,0,0,0,1.69.94"/><path class="cls-1" d="M93.31,49a2.49,2.49,0,0,0,1.37-.43,2.4,2.4,0,0,0,1-3.08,1.84,1.84,0,0,0-1.63-.9,2.48,2.48,0,0,0-1.37.42,2.42,2.42,0,0,0-1,3.09,1.84,1.84,0,0,0,1.63.9"/><path class="cls-1" d="M88,49.19a2.44,2.44,0,0,0,1.33-.41,2.33,2.33,0,0,0,1-3,1.77,1.77,0,0,0-1.58-.87,2.42,2.42,0,0,0-1.33.41,2.33,2.33,0,0,0-.95,3,1.77,1.77,0,0,0,1.58.87"/><path class="cls-1" d="M82.62,49.86a2.33,2.33,0,0,0,1.28-.4,2.26,2.26,0,0,0,.92-2.89,1.73,1.73,0,0,0-1.52-.84,2.3,2.3,0,0,0-1.28.4,2.54,2.54,0,0,0-1,1.35A1.91,1.91,0,0,0,81.1,49a1.71,1.71,0,0,0,1.52.84"/><path class="cls-1" d="M77.28,51a2.29,2.29,0,0,0,1.23-.39,2.43,2.43,0,0,0,1-1.3,1.78,1.78,0,0,0-.12-1.47A1.66,1.66,0,0,0,77.92,47a2.34,2.34,0,0,0-1.23.38,2.46,2.46,0,0,0-1,1.3,1.84,1.84,0,0,0,.11,1.48,1.66,1.66,0,0,0,1.48.82"/><path class="cls-1" d="M72,52.46h0a2.13,2.13,0,0,0,1.17-.37,2.35,2.35,0,0,0,.95-1.23,1.73,1.73,0,0,0-.11-1.4,1.58,1.58,0,0,0-1.4-.78,2.13,2.13,0,0,0-1.17.37,2,2,0,0,0-.84,2.63,1.56,1.56,0,0,0,1.4.78"/><path class="cls-1" d="M66.76,54.39A2.05,2.05,0,0,0,67.88,54a2,2,0,0,0,.8-2.51,1.49,1.49,0,0,0-1.34-.74,2.05,2.05,0,0,0-1.12.35,2.21,2.21,0,0,0-.9,1.17,1.65,1.65,0,0,0,.1,1.35,1.5,1.5,0,0,0,1.34.73"/><path class="cls-1" d="M61.66,56.72a1.93,1.93,0,0,0,1.06-.34A1.87,1.87,0,0,0,63.48,54a1.43,1.43,0,0,0-1.26-.7,1.84,1.84,0,0,0-1,.33,2.1,2.1,0,0,0-.87,1.11A1.59,1.59,0,0,0,60.4,56a1.44,1.44,0,0,0,1.26.7"/><path class="cls-1" d="M56.72,59.43a1.86,1.86,0,0,0,1-.31,2.09,2.09,0,0,0,.81-1,1.51,1.51,0,0,0-.1-1.2,1.34,1.34,0,0,0-1.18-.65,1.84,1.84,0,0,0-1,.31,1.89,1.89,0,0,0-.8,1,1.48,1.48,0,0,0,.08,1.19,1.35,1.35,0,0,0,1.19.66"/><path class="cls-1" d="M52,62.66a1.88,1.88,0,0,0,1-.32,2,2,0,0,0,.83-1.07A1.53,1.53,0,0,0,53.71,60a1.4,1.4,0,0,0-1.27-.68,1.83,1.83,0,0,0-1,.3,1.94,1.94,0,0,0-.81,1.06A1.52,1.52,0,0,0,50.72,62a1.42,1.42,0,0,0,1.26.7"/><path class="cls-1" d="M47.45,66.22a2,2,0,0,0,1-.32,2.07,2.07,0,0,0,.83-1.08,1.61,1.61,0,0,0-.11-1.28,1.47,1.47,0,0,0-1.32-.71,1.81,1.81,0,0,0-1,.3A2,2,0,0,0,46,64.21a1.6,1.6,0,0,0,.11,1.29,1.47,1.47,0,0,0,1.3.72"/><path class="cls-1" d="M43.18,70a1.73,1.73,0,0,0,1-.3,1.7,1.7,0,0,0,.67-2.21,1.38,1.38,0,0,0-1.23-.66,1.79,1.79,0,0,0-1,.28,1.87,1.87,0,0,0-.77,1,1.47,1.47,0,0,0,.1,1.2,1.37,1.37,0,0,0,1.21.68"/><path class="cls-1" d="M39.2,74a1.7,1.7,0,0,0,.91-.28,1.8,1.8,0,0,0,.73-.95,1.42,1.42,0,0,0-.09-1.13A1.32,1.32,0,0,0,39.58,71a1.61,1.61,0,0,0-.9.27,1.74,1.74,0,0,0-.72,1,1.38,1.38,0,0,0,.09,1.13A1.3,1.3,0,0,0,39.2,74"/><path class="cls-1" d="M35.45,78.46a1.64,1.64,0,0,0,.89-.28,1.76,1.76,0,0,0,.72-.92,1.42,1.42,0,0,0-.1-1.13,1.31,1.31,0,0,0-1.17-.64,1.62,1.62,0,0,0-.88.26,1.8,1.8,0,0,0-.71.93,1.42,1.42,0,0,0,.09,1.13,1.32,1.32,0,0,0,1.16.65"/><path class="cls-1" d="M30.4,150.89a1.21,1.21,0,0,0-1-.59,1.18,1.18,0,0,0-.7.21,1.35,1.35,0,0,0-.58.73,1.19,1.19,0,0,0,1.13,1.58,1.34,1.34,0,0,0,1.2-1.93"/><path class="cls-1" d="M27.81,146.7a1.21,1.21,0,0,0-1.06-.59,1.32,1.32,0,0,0-.71.21,1.39,1.39,0,0,0-.57.74,1.28,1.28,0,0,0,.1,1,1.2,1.2,0,0,0,1.06.62,1.36,1.36,0,0,0,.73-.22,1.32,1.32,0,0,0,.45-1.74"/><path class="cls-1" d="M29,104.79a1.35,1.35,0,0,0-.09-1.08,1.29,1.29,0,0,0-1.13-.63,1.53,1.53,0,0,0-.83.25,1.48,1.48,0,0,0-.56,2,1.26,1.26,0,0,0,1.12.62,1.47,1.47,0,0,0,.83-.25,1.57,1.57,0,0,0,.66-.86"/><path class="cls-1" d="M157.62,104.68l.42-2.06c.06-.31.11-.61.15-.89a6.05,6.05,0,0,0,.07-.82,3,3,0,0,0-.47-1.84,1.57,1.57,0,0,0-1.29-.6h-.13a2.9,2.9,0,0,0-2.42.9,6.1,6.1,0,0,0-1,2.45l-3.34,15.89a3.83,3.83,0,0,0-.13,1,1.83,1.83,0,0,0,.51,1.39,2.41,2.41,0,0,0,1.72.5,2.82,2.82,0,0,0,1.61-.45,3.53,3.53,0,0,0,1.07-1.14,6.81,6.81,0,0,0,.66-1.5,12.89,12.89,0,0,0,.39-1.54L156,113h7.54l-.82,3.94a13.2,13.2,0,0,1-1.39,3.79,9.71,9.71,0,0,1-2.55,3,11.66,11.66,0,0,1-3.79,1.92,17,17,0,0,1-5.07.69q-4.24,0-6.08-1.73a6.55,6.55,0,0,1-1.85-5,17.71,17.71,0,0,1,.39-3.48l2.74-13.19c.74-3.51,2.11-6.1,4.09-7.76s4.7-2.48,8.15-2.48a11.09,11.09,0,0,1,6.39,1.57c1.52,1,2.27,2.71,2.27,5a12.62,12.62,0,0,1-.3,2.7l-.56,2.69Z"/><polygon class="cls-1" points="176.34 103.96 176.43 103.96 182.46 93.46 190 93.46 178.39 112.1 175.6 125.59 168.07 125.59 170.85 112.1 167.13 93.46 174.75 93.46 176.34 103.96"/><polygon class="cls-1" points="191.42 93.46 210.95 93.46 209.62 99.88 203.54 99.88 198.23 125.59 190.69 125.59 196 99.88 190.09 99.88 191.42 93.46"/><polygon class="cls-1" points="207.22 125.59 213.87 93.46 231.13 93.46 229.8 99.88 220.07 99.88 218.87 105.8 228.3 105.8 226.93 112.23 217.5 112.23 216.09 119.16 226.33 119.16 225 125.59 207.22 125.59"/><path class="cls-1" d="M245.52,104.68l.43-2.06c.06-.31.11-.61.15-.89a6,6,0,0,0,.06-.82,2.92,2.92,0,0,0-.47-1.84,1.53,1.53,0,0,0-1.28-.6h-.13a2.88,2.88,0,0,0-2.42.9,6.1,6.1,0,0,0-1.05,2.45l-3.34,15.89a3.83,3.83,0,0,0-.13,1,1.83,1.83,0,0,0,.51,1.39,2.41,2.41,0,0,0,1.72.5,2.79,2.79,0,0,0,1.6-.45,3.56,3.56,0,0,0,1.08-1.14,6.81,6.81,0,0,0,.66-1.5,11.12,11.12,0,0,0,.38-1.54l.6-2.91h7.54l-.81,3.94a13.22,13.22,0,0,1-1.4,3.79,9.68,9.68,0,0,1-2.54,3,11.76,11.76,0,0,1-3.79,1.92,17,17,0,0,1-5.08.69c-2.83,0-4.85-.58-6.09-1.73a6.62,6.62,0,0,1-1.83-5,18.43,18.43,0,0,1,.38-3.48L233,102.93c.74-3.51,2.11-6.1,4.09-7.76s4.71-2.48,8.17-2.48a11.08,11.08,0,0,1,6.38,1.57,5.67,5.67,0,0,1,2.27,5,12.62,12.62,0,0,1-.3,2.7l-.56,2.69Z"/><path class="cls-1" d="M250.88,125.59l13.66-32.13h9.09l.34,32.13h-7.63l.21-6.25h-5.91l-2.18,6.25Zm17-26.3h-.08l-5.19,14.39H267Z"/><path class="cls-1" d="M283.65,125.59h-7.54l6.64-32.13h11a10.15,10.15,0,0,1,5.81,1.37,5.19,5.19,0,0,1,1.94,4.54,13.35,13.35,0,0,1-.08,1.37c-.06.49-.15,1-.26,1.59a12.58,12.58,0,0,1-1.69,4.39,8.17,8.17,0,0,1-3.79,2.93l-.05.09a4.12,4.12,0,0,1,2.14,1.2,3.17,3.17,0,0,1,.78,2.23v.34a1.89,1.89,0,0,1-.05.38q-.12,1-.36,2.4c-.15.95-.32,1.9-.47,2.88s-.29,1.89-.41,2.78a18.08,18.08,0,0,0-.17,2.09,4.26,4.26,0,0,0,.2.63,1.41,1.41,0,0,0,.31.49l-.08.43H289.3a5.5,5.5,0,0,1-.12-1.16v-.34a1.32,1.32,0,0,1,0-.34c.22-1.43.49-2.78.79-4a28.43,28.43,0,0,0,.62-3.41,1.82,1.82,0,0,0,0-.38v-.43a3.5,3.5,0,0,0-.4-1.8,1.81,1.81,0,0,0-1.53-.77h-2.48Zm3.81-18.46H290a2.73,2.73,0,0,0,1.41-.35,3,3,0,0,0,1-.9,5.55,5.55,0,0,0,.69-1.28,8.86,8.86,0,0,0,.41-1.46,9.24,9.24,0,0,0,.21-1.67c0-1-.3-1.59-.9-1.84a7.13,7.13,0,0,0-2.7-.39h-1.07Z"/><polygon class="cls-1" points="300.1 125.59 306.74 93.46 324 93.46 322.68 99.88 312.95 99.88 311.75 105.8 321.17 105.8 319.81 112.23 310.38 112.23 308.97 119.16 319.2 119.16 317.88 125.59 300.1 125.59"/><path class="cls-1" d="M174.94,138.27h2.95a.23.23,0,0,1,.24.31l-3.56,17.5a.37.37,0,0,1-.36.31h-3a.24.24,0,0,1-.24-.31l1.45-7.09a.1.1,0,0,0-.09-.13h-4a.14.14,0,0,0-.14.13l-1.45,7.09a.37.37,0,0,1-.36.31h-2.92a.25.25,0,0,1-.26-.31l3.56-17.5a.39.39,0,0,1,.38-.31h2.93a.23.23,0,0,1,.23.31l-1.42,7c0,.08,0,.13.1.13h4a.15.15,0,0,0,.14-.13l1.42-7A.37.37,0,0,1,174.94,138.27Z"/><path class="cls-1" d="M181,150.77l1.41-6.88a7,7,0,0,1,7-5.82c3.52,0,5.38,2.3,4.68,5.82l-1.41,6.88a7,7,0,0,1-7,5.85C182.13,156.62,180.27,154.32,181,150.77Zm8.11.16,1.43-7.14c.34-1.56-.36-2.59-1.78-2.59a2.94,2.94,0,0,0-2.8,2.59l-1.45,7.14c-.31,1.53.38,2.56,1.76,2.56A3,3,0,0,0,189.11,150.93Z"/><path class="cls-1" d="M197.58,151.52l.13-.69a.37.37,0,0,1,.36-.32H201a.25.25,0,0,1,.24.32l-.12.51a1.73,1.73,0,0,0,1.92,2.13,2.3,2.3,0,0,0,2.4-1.84c.23-1.22-.66-1.76-2.49-2.85-2-1.16-4.27-2.51-3.6-5.74a6.28,6.28,0,0,1,6.49-5c3.41,0,5.31,2.12,4.67,5.25l-.09.52a.4.4,0,0,1-.36.31h-2.9a.23.23,0,0,1-.24-.31l.09-.47a1.71,1.71,0,0,0-1.87-2.17,2.18,2.18,0,0,0-2.29,1.81c-.25,1.22.48,1.76,2.51,2.92,2.16,1.43,4.25,2.51,3.61,5.54a6.46,6.46,0,0,1-6.7,5.13C198.8,156.6,197,154.55,197.58,151.52Z"/><path class="cls-1" d="M227.11,143.81a6.35,6.35,0,0,1-6.23,5.41h-2.7a.18.18,0,0,0-.16.13l-1.37,6.73a.37.37,0,0,1-.36.31h-2.93a.23.23,0,0,1-.23-.31l3.56-17.52a.37.37,0,0,1,.36-.31h6.08C226.19,138.25,227.79,140.5,227.11,143.81Zm-3.55.08c.3-1.55-.37-2.49-1.67-2.49h-2.12a.18.18,0,0,0-.16.13l-1,4.66c0,.08,0,.13.09.13h2.15A2.78,2.78,0,0,0,223.56,143.89Z"/><path class="cls-1" d="M229.61,156.08l3.56-17.5a.41.41,0,0,1,.39-.31h2.92a.23.23,0,0,1,.24.31l-3.56,17.5a.37.37,0,0,1-.36.31h-2.93C229.69,156.39,229.6,156.26,229.61,156.08Z"/><path class="cls-1" d="M253.7,138.58l-.52,2.54a.37.37,0,0,1-.36.31H249a.16.16,0,0,0-.14.13l-3,14.52a.37.37,0,0,1-.36.31h-2.92a.25.25,0,0,1-.26-.31l3-14.52c0-.08,0-.13-.09-.13h-3.7a.24.24,0,0,1-.23-.31l.51-2.54a.4.4,0,0,1,.36-.31h11.31A.23.23,0,0,1,253.7,138.58Z"/><path class="cls-1" d="M262.71,156.13l0-2.54c0-.07,0-.1-.1-.1h-4.71a.13.13,0,0,0-.14.1l-1.08,2.54a.43.43,0,0,1-.41.26h-3c-.21,0-.3-.1-.2-.34l8.09-17.52a.42.42,0,0,1,.4-.26h3.65a.26.26,0,0,1,.29.26l1,17.52c0,.24-.1.34-.31.34H263A.25.25,0,0,1,262.71,156.13Zm-3.57-5.46h3.31a.17.17,0,0,0,.17-.16l-.21-7.35c0-.12-.1-.1-.13,0l-3.23,7.35C259,150.62,259.06,150.67,259.14,150.67Z"/><path class="cls-1" d="M271.46,156.08l3.56-17.5a.41.41,0,0,1,.39-.31h2.92a.23.23,0,0,1,.24.31l-3,14.55a.1.1,0,0,0,.09.13h6.73c.18,0,.27.13.26.31l-.51,2.51a.4.4,0,0,1-.37.31H271.72C271.54,156.39,271.45,156.26,271.46,156.08Z"/><path class="cls-1" d="M287.59,151.52l.13-.69a.38.38,0,0,1,.37-.32H291a.25.25,0,0,1,.24.32l-.12.51a1.73,1.73,0,0,0,1.92,2.13,2.29,2.29,0,0,0,2.4-1.84c.23-1.22-.66-1.76-2.48-2.85-2-1.16-4.28-2.51-3.6-5.74a6.26,6.26,0,0,1,6.48-5c3.41,0,5.31,2.12,4.67,5.25l-.09.52a.4.4,0,0,1-.36.31h-2.9a.23.23,0,0,1-.23-.31l.08-.47a1.7,1.7,0,0,0-1.86-2.17,2.19,2.19,0,0,0-2.3,1.81c-.25,1.22.48,1.76,2.51,2.92,2.16,1.43,4.25,2.51,3.62,5.54a6.48,6.48,0,0,1-6.71,5.13C288.81,156.6,287,154.55,287.59,151.52Z"/></svg>