<?xml version="1.0" encoding="UTF-8"?>
<svg xmlns="http://www.w3.org/2000/svg" xmlns:xlink="http://www.w3.org/1999/xlink" width="120px" height="45px" viewBox="0 0 120 45" version="1.1">
<g id="surface1">
<path style=" stroke:none;fill-rule:nonzero;fill:rgb(83.921569%,12.156863%,15.294118%);fill-opacity:1;" d="M 72.367188 26.546875 L 72.367188 37.554688 L 69.0625 37.554688 L 69.0625 36.515625 C 68.332031 37.351562 67.257812 37.859375 65.777344 37.859375 C 62.890625 37.859375 60.515625 35.328125 60.515625 32.046875 C 60.515625 28.769531 62.886719 26.234375 65.777344 26.234375 C 67.25 26.234375 68.332031 26.742188 69.0625 27.578125 L 69.0625 26.542969 Z M 69.0625 32.050781 C 69.0625 30.40625 67.96875 29.363281 66.441406 29.363281 C 64.917969 29.363281 63.824219 30.398438 63.824219 32.050781 C 63.824219 33.703125 64.917969 34.738281 66.441406 34.738281 C 67.964844 34.738281 69.0625 33.703125 69.0625 32.050781 Z M 69.0625 32.050781 "/>
<path style=" stroke:none;fill-rule:nonzero;fill:rgb(83.921569%,12.156863%,15.294118%);fill-opacity:1;" d="M 84.519531 26.546875 L 84.519531 37.554688 L 81.214844 37.554688 L 81.214844 36.515625 C 80.621094 37.332031 79.519531 37.859375 78.066406 37.859375 C 75.84375 37.859375 73.949219 36.273438 73.949219 33.292969 L 73.949219 26.539062 L 77.253906 26.539062 L 77.253906 32.8125 C 77.253906 34.179688 78.113281 34.824219 79.167969 34.824219 C 80.378906 34.824219 81.214844 34.117188 81.214844 32.554688 L 81.214844 26.546875 Z M 84.519531 26.546875 "/>
<path style=" stroke:none;fill-rule:nonzero;fill:rgb(83.921569%,12.156863%,15.294118%);fill-opacity:1;" d="M 96.828125 30.792969 L 96.828125 37.550781 L 93.523438 37.550781 L 93.523438 31.28125 C 93.523438 29.914062 92.664062 29.273438 91.609375 29.273438 C 90.398438 29.273438 89.558594 29.976562 89.558594 31.539062 L 89.558594 37.550781 L 86.257812 37.550781 L 86.257812 26.546875 L 89.558594 26.546875 L 89.558594 27.582031 C 90.15625 26.765625 91.257812 26.238281 92.710938 26.238281 C 94.933594 26.238281 96.828125 27.824219 96.828125 30.792969 Z M 96.828125 30.792969 "/>
<path style=" stroke:none;fill-rule:nonzero;fill:rgb(83.921569%,12.156863%,15.294118%);fill-opacity:1;" d="M 97.859375 32.050781 C 97.859375 28.765625 100.347656 26.238281 103.703125 26.238281 C 105.839844 26.238281 107.730469 27.359375 108.679688 29.058594 L 105.792969 30.730469 C 105.417969 29.957031 104.625 29.496094 103.660156 29.496094 C 102.226562 29.496094 101.171875 30.53125 101.171875 32.054688 C 101.171875 33.574219 102.226562 34.609375 103.660156 34.609375 C 104.625 34.609375 105.441406 34.148438 105.792969 33.375 L 108.679688 35.019531 C 107.730469 36.734375 105.859375 37.859375 103.703125 37.859375 C 100.347656 37.863281 97.859375 35.332031 97.859375 32.050781 Z M 97.859375 32.050781 "/>
<path style=" stroke:none;fill-rule:nonzero;fill:rgb(0%,0%,0%);fill-opacity:1;" d="M 39.757812 37.082031 C 47.570312 27.886719 46.734375 14.160156 37.867188 5.976562 C 28.996094 -2.207031 15.25 -1.933594 6.710938 6.589844 L 6.683594 6.617188 C -2.09375 15.402344 -2.082031 29.640625 6.710938 38.410156 C 6.945312 38.648438 7.191406 38.878906 7.441406 39.105469 C 7.972656 39.59375 8.535156 40.050781 9.09375 40.480469 C 9.652344 40.910156 10.28125 41.328125 10.894531 41.707031 C 19.191406 46.78125 29.804688 45.945312 37.207031 39.636719 C 37.660156 39.246094 38.101562 38.839844 38.53125 38.410156 C 38.960938 37.976562 39.378906 37.539062 39.757812 37.082031 Z M 22.550781 14.894531 L 6.484375 30.960938 C 2.789062 23.910156 4.101562 15.28125 9.71875 9.640625 L 9.742188 9.621094 C 16.121094 3.242188 26.207031 2.492188 33.460938 7.855469 C 40.710938 13.222656 42.945312 23.089844 38.707031 31.054688 Z M 19.519531 30.050781 L 12.15625 37.410156 C 11.566406 36.996094 11.003906 36.546875 10.46875 36.066406 L 22.550781 23.984375 L 34.699219 36.136719 C 33.035156 37.613281 31.113281 38.773438 29.027344 39.554688 C 28.613281 39.710938 28.195312 39.851562 27.773438 39.972656 C 27.410156 40.078125 27.058594 40.171875 26.695312 40.253906 C 22.410156 41.234375 17.910156 40.636719 14.03125 38.566406 L 19.519531 33.078125 L 24.0625 37.621094 C 24.472656 37.585938 24.878906 37.527344 25.28125 37.457031 C 25.734375 37.378906 26.183594 37.277344 26.628906 37.15625 L 19.519531 30.046875 "/>
<path style=" stroke:none;fill-rule:nonzero;fill:rgb(0%,0%,0%);fill-opacity:1;" d="M 62.597656 9.3125 C 62.253906 8.96875 62.058594 8.503906 62.058594 8.019531 C 62.058594 7.53125 62.253906 7.066406 62.597656 6.726562 C 63.117188 6.195312 63.910156 6.035156 64.597656 6.316406 C 65.285156 6.601562 65.730469 7.273438 65.726562 8.019531 C 65.730469 8.761719 65.285156 9.433594 64.597656 9.71875 C 63.910156 10.003906 63.117188 9.84375 62.597656 9.3125 Z M 62.316406 22.121094 L 62.316406 11.179688 L 65.464844 11.179688 L 65.464844 22.113281 Z M 62.316406 22.121094 "/>
<path style=" stroke:none;fill-rule:nonzero;fill:rgb(0%,0%,0%);fill-opacity:1;" d="M 71.289062 11.179688 L 71.289062 13.207031 C 71.464844 12.613281 71.8125 12.082031 72.289062 11.683594 C 72.75 11.308594 73.324219 11.105469 73.917969 11.113281 C 74.195312 11.105469 74.472656 11.136719 74.738281 11.203125 L 74.738281 14.179688 C 74.367188 14.011719 73.960938 13.933594 73.550781 13.941406 C 72.917969 13.917969 72.3125 14.195312 71.910156 14.683594 C 71.492188 15.179688 71.28125 15.839844 71.28125 16.65625 L 71.28125 22.113281 L 68.140625 22.113281 L 68.164062 11.179688 Z M 71.289062 11.179688 "/>
<path style=" stroke:none;fill-rule:nonzero;fill:rgb(0%,0%,0%);fill-opacity:1;" d="M 83.042969 11.503906 L 83.042969 14.199219 C 82.226562 13.742188 81.304688 13.507812 80.367188 13.53125 C 80.0625 13.511719 79.761719 13.59375 79.503906 13.757812 C 79.316406 13.886719 79.203125 14.101562 79.203125 14.328125 C 79.203125 14.457031 79.242188 14.585938 79.3125 14.695312 C 79.40625 14.828125 79.53125 14.941406 79.675781 15.019531 C 79.839844 15.117188 80 15.199219 80.152344 15.289062 C 80.300781 15.375 80.515625 15.46875 80.777344 15.578125 C 81.035156 15.6875 81.253906 15.796875 81.414062 15.882812 C 82.011719 16.179688 82.554688 16.585938 83.007812 17.078125 C 83.421875 17.558594 83.636719 18.179688 83.609375 18.8125 C 83.609375 19.890625 83.222656 20.726562 82.449219 21.316406 C 81.671875 21.902344 80.644531 22.199219 79.363281 22.199219 C 78.039062 22.199219 76.933594 21.976562 76.042969 21.53125 L 76.042969 18.730469 C 76.957031 19.394531 78.054688 19.753906 79.179688 19.765625 C 79.972656 19.765625 80.367188 19.511719 80.367188 19.007812 C 80.367188 18.878906 80.332031 18.753906 80.261719 18.644531 C 80.164062 18.507812 80.039062 18.398438 79.894531 18.320312 C 79.742188 18.230469 79.582031 18.148438 79.417969 18.074219 C 79.273438 18.011719 79.066406 17.921875 78.792969 17.804688 C 78.519531 17.691406 78.3125 17.597656 78.167969 17.523438 C 76.714844 16.835938 75.988281 15.800781 75.988281 14.421875 C 75.988281 13.355469 76.394531 12.53125 77.207031 11.9375 C 78.019531 11.347656 79.03125 11.054688 80.238281 11.054688 C 81.359375 11.054688 82.292969 11.203125 83.042969 11.503906 Z M 83.042969 11.503906 "/>
<path style=" stroke:none;fill-rule:nonzero;fill:rgb(0%,0%,0%);fill-opacity:1;" d="M 89.1875 13.488281 L 89.1875 18.515625 C 89.164062 18.84375 89.285156 19.167969 89.519531 19.398438 C 89.765625 19.605469 90.078125 19.714844 90.394531 19.699219 C 90.9375 19.710938 91.46875 19.558594 91.925781 19.269531 L 91.925781 21.878906 C 91.394531 22.109375 90.675781 22.222656 89.769531 22.222656 C 87.28125 22.222656 86.039062 20.980469 86.039062 18.492188 L 86.039062 13.488281 L 84.464844 13.488281 L 84.464844 11.179688 L 86.039062 11.179688 L 86.039062 8.59375 L 89.1875 8.59375 L 89.1875 11.179688 L 91.734375 11.179688 L 91.734375 13.488281 Z M 89.1875 13.488281 "/>
<path style=" stroke:none;fill-rule:nonzero;fill:rgb(83.921569%,12.156863%,15.294118%);fill-opacity:1;" d="M 60.433594 34.164062 L 60.433594 37.554688 L 51.40625 37.554688 L 51.40625 22.140625 L 54.929688 22.140625 L 54.929688 34.164062 Z M 60.433594 34.164062 "/>
<path style=" stroke:none;fill-rule:nonzero;fill:rgb(83.921569%,12.156863%,15.294118%);fill-opacity:1;" d="M 119.878906 30.792969 L 119.878906 37.550781 L 116.574219 37.550781 L 116.574219 31.28125 C 116.574219 29.914062 115.71875 29.273438 114.660156 29.273438 C 113.449219 29.273438 112.609375 29.976562 112.609375 31.539062 L 112.609375 37.550781 L 109.308594 37.550781 L 109.308594 22.140625 L 112.609375 22.140625 L 112.609375 27.582031 C 113.203125 26.765625 114.304688 26.238281 115.757812 26.238281 C 117.984375 26.238281 119.878906 27.824219 119.878906 30.792969 Z M 119.878906 30.792969 "/>
<path style=" stroke:none;fill-rule:nonzero;fill:rgb(0%,0%,0%);fill-opacity:1;" d="M 51.40625 7.609375 L 54.925781 7.609375 L 54.925781 22.144531 L 51.40625 22.144531 Z M 51.40625 7.609375 "/>
<path style=" stroke:none;fill-rule:nonzero;fill:rgb(0%,0%,0%);fill-opacity:1;" d="M 54.929688 7.609375 L 60.714844 7.609375 L 60.714844 10.261719 L 54.929688 10.261719 Z M 54.929688 7.609375 "/>
<path style=" stroke:none;fill-rule:nonzero;fill:rgb(0%,0%,0%);fill-opacity:1;" d="M 54.929688 14.011719 L 59.96875 14.011719 L 59.96875 16.667969 L 54.929688 16.667969 Z M 54.929688 14.011719 "/>
</g>
</svg>
