<svg xmlns="http://www.w3.org/2000/svg" viewBox="0 0 1116.73 180.34">
  <title>Asset 2</title>
  <g id="6515c96e-0a30-4997-a2cb-7a77dbdcb2d7" data-name="Layer 2">
    <g id="2db056ce-c969-4c9b-9a11-58e75af1e6d1" data-name="Layer 1">
      <g>
        <g>
          <path d="M161.35,12.26V74.78H126V44H105.8V148.36h20v32H36.31v-32H56V44H35.35V74.78H0V12.26Z" fill="#0a1e13"/>
          <path d="M246.47,180.34H171v-31.5h10.1V31.26H171V0h58.19V75a22.59,22.59,0,0,1,4.57-4.81,70.74,70.74,0,0,1,8.77-6.37A64.83,64.83,0,0,1,254,58.19a36.28,36.28,0,0,1,12.87-2.4q13.93,0,22.24,4.69A33.52,33.52,0,0,1,301.9,72.74a46.07,46.07,0,0,1,5.77,17.07A137.15,137.15,0,0,1,309,108.69v40.15h11.3v31.5h-61.8v-65.4c0-2.08-.08-4.41-.24-7a23.72,23.72,0,0,0-1.56-7.22A14.2,14.2,0,0,0,252.48,95q-2.88-2.4-8.18-2.4a13.19,13.19,0,0,0-7.57,2A14.22,14.22,0,0,0,232,99.91a23.13,23.13,0,0,0-2.28,7.22,52.15,52.15,0,0,0-.6,7.81v33.9h17.31Z" fill="#0a1e13"/>
          <path d="M397.24,180.34H329.91v-31.5H340V91.37h-10.1V60.11h55.78v88.73h11.55ZM336.64,25a23.2,23.2,0,0,1,1.68-8.42,25.78,25.78,0,0,1,4.93-7.93,25,25,0,0,1,8.18-5.9,26.69,26.69,0,0,1,35.83,13.83,21.86,21.86,0,0,1,1.8,8.42,24.1,24.1,0,0,1-6.73,17.19q-6.74,7.09-19.72,7.09a24.71,24.71,0,0,1-10.46-2.16A28.17,28.17,0,0,1,344,41.48a26,26,0,0,1-5.41-7.82A21.17,21.17,0,0,1,336.64,25Z" fill="#0a1e13"/>
          <path d="M483.32,180.34H409.26v-31.5h10.1V91.37h-10.1V60.11h51.21L466,75A56.51,56.51,0,0,1,480.55,61.2q8.29-5.41,19.84-5.41,14,0,22.48,4.69A34.94,34.94,0,0,1,536.1,72.74a46.28,46.28,0,0,1,6.25,17.07,116.46,116.46,0,0,1,1.57,18.88v40.15h11.3v31.5h-60.6V114.7c0-2.08,0-4.41-.12-7a23.58,23.58,0,0,0-1.32-7.22,13.73,13.73,0,0,0-4-5.77c-1.85-1.6-4.53-2.4-8.06-2.4a13.19,13.19,0,0,0-7.57,2,14.15,14.15,0,0,0-4.69,5.29,22.82,22.82,0,0,0-2.28,7.21,51.11,51.11,0,0,0-.61,7.82v34.14h17.32Z" fill="#0a1e13"/>
          <path d="M568,180.34V149.09h9.86V31.5H568V0H623.5V108.69L651.4,92.1H634.08V60.36h67.33V92.1H682.9l-16.35,10.34L699,148.84h12v31.5H639.85v-31.5H650l-18.27-26-8.42,5.78v20.19h8.9v31.5Z" fill="#0a1e13"/>
          <path d="M724,39.43a88.4,88.4,0,0,1,28.62-22.24,77.69,77.69,0,0,1,33.9-7.57A68.42,68.42,0,0,1,809,13.23a52.91,52.91,0,0,1,18.15,10.45,49.47,49.47,0,0,1,12.15,16.6,52.43,52.43,0,0,1,4.44,22,58.32,58.32,0,0,1-2.4,17.79,40.88,40.88,0,0,1-7.21,13.35,65.19,65.19,0,0,1-12,11.18q-7.22,5.3-16.83,11.54Q801,119,795.55,123T785,131.41a126.51,126.51,0,0,0-9.38,8.9,49,49,0,0,0-6.37,8.05h42.32V129.13h40.4v51.21H722.09V145.48q5.05-8.17,8.9-13.83a99.41,99.41,0,0,1,7.81-10.1q4-4.44,8.3-8.42t10.1-8.53A114,114,0,0,1,771.14,94q7.46-4.8,13.83-9.5a62.74,62.74,0,0,0,10.58-9.62,15.89,15.89,0,0,0,4.21-10.46q0-9.13-5.89-12.5a28.47,28.47,0,0,0-14.31-3.37,22.54,22.54,0,0,0-9,1.81,42.81,42.81,0,0,0-7.93,4.44,47.85,47.85,0,0,0-6.85,5.9c-2.09,2.16-4,4.2-5.78,6.13Z" fill="#0a1e13"/>
        </g>
        <path d="M1009.49,43.24q5-2.4,9.85-4.81a92.33,92.33,0,0,0,9.74-5.65,92.09,92.09,0,0,0,10.46-8.17,114.6,114.6,0,0,0,12-12.87h42.8v136.1h22.36v32h-96.18v-32h24V58.63l-24,11.3Z" fill="#0a1e13"/>
        <path d="M951.63,82.88a28,28,0,0,1,9.27.38,20.93,20.93,0,0,1,4,1.89c4.06,2.19,6.53,5.12,8.7,9.65a15,15,0,0,1,1.7,4.92c.72,3.83-.21,8.57-1.7,12.1-2.27,5.38-7.06,9.79-11.91,13.24-5.12,3.63-12.24,5.57-19.67,5.29a26.83,26.83,0,0,1-5.3-.75,46.23,46.23,0,0,1-9.83-4,29.11,29.11,0,0,1-5.87-4.35c-.62-.58-1.44-1-1.89-1.52a42.27,42.27,0,0,1-3.21-5.29,40.16,40.16,0,0,1-3.41-28.75,44.72,44.72,0,0,1,3.22-7.56c.6-1.23,1.08-2.45,1.7-3.6a41.62,41.62,0,0,1,7.19-8.88c1.8-1.81,3.92-3.1,5.67-4.92a71,71,0,0,1,18.91-7c7.26-1.46,15.93-.83,23.45.76a60.69,60.69,0,0,1,11.73,4.16,42.18,42.18,0,0,1,5.11,2.83,35.94,35.94,0,0,1,8.32,6.81c1.17,1.31,2.14,2.69,3.21,4,2.25,2.7,4.66,5.36,6.24,8.33,6.19,11.58,7.38,30.8,3.22,44.25-.62,2-1.34,3.95-2.08,5.86a59.84,59.84,0,0,1-8.32,15.13,78.46,78.46,0,0,1-7.19,8.51,80.69,80.69,0,0,1-11.92,9.08c-5.4,3.54-10.72,7-17.39,8.89A110.54,110.54,0,0,1,932,177.07c-7-.07-13.6-1.58-19.66-3-15-3.58-27.82-10.15-36.7-20-1.73-1.93-3.53-3.81-5.29-5.86A53.78,53.78,0,0,1,861.8,134a101.6,101.6,0,0,1-6-22.32c-2-11.62.65-24.54,4-34,3.63-10.4,10.68-19.49,17.59-27.8,1.31-1.58,2.6-3,4-4.54a35.14,35.14,0,0,1,4.16-4.35c3-2.45,6-5.25,9.64-7.38a82.91,82.91,0,0,1,15.51-7,131.3,131.3,0,0,1,18-4.73,51.88,51.88,0,0,1,10.21-.57A91.36,91.36,0,0,1,949,22.37c7.72,1,14.67,3.4,21.56,5.48a49.39,49.39,0,0,1,5.3,1.51c1.68.72,3,1.83,4.54,2.65s3.06,1.17,4.54,2.46a15.7,15.7,0,0,1,2.46,2.84,5.13,5.13,0,0,1,.56,4.16c-.89,3-5,2.67-8.7,2.27-2.82-.31-5.52-1.37-8.32-1.89s-5.74-1.25-8.7-1.52a147.43,147.43,0,0,0-19.67-.19,70.14,70.14,0,0,0-24.77,5.68c-1.76.75-3.46,1.58-5.11,2.46-4.19,2.23-7.48,5.68-11,8.88a69,69,0,0,0-7.94,9.27c-2.52,3.33-4.29,7-6.62,10.78-.58.94-1.2,1.67-1.7,2.65s-.88,1.93-1.32,3a52.08,52.08,0,0,0-2.46,6.06,67.92,67.92,0,0,0-1.14,7,47.67,47.67,0,0,0,1.33,21.37,52.68,52.68,0,0,0,20.42,27.81A54.19,54.19,0,0,0,912.48,151a69.2,69.2,0,0,0,19.67,4.54,73.83,73.83,0,0,0,14.94,0c1.57-.18,3.26-.78,4.92-1.14,11.59-2.49,20.65-6.78,28.18-13.61a45.51,45.51,0,0,0,10.59-13.43,62.08,62.08,0,0,0,3.4-8.51c1.61-5,3.13-10.6,2.46-17.78A51.49,51.49,0,0,0,994,90.26c-1.13-3.36-2.32-6.91-4-9.45a39.78,39.78,0,0,0-3.59-4.36,26.52,26.52,0,0,0-3.78-4c-.78-.57-2-.92-3-1.51s-1.83-1.26-2.84-1.7a55.26,55.26,0,0,0-22.5-4.35A38.37,38.37,0,0,0,928.94,75.7c-5.84,6.81-10.81,17.23-8.51,28a25.25,25.25,0,0,0,1.7,5.1,25.57,25.57,0,0,0,9.45,11.35c.9.55,2.22,1,3.41,1.52a24.72,24.72,0,0,0,8.7,2.64,27.57,27.57,0,0,0,18.15-5.67c2.42-1.83,4.53-3.35,6-5.86a30,30,0,0,0,2.46-6.06,17.88,17.88,0,0,0,1.14-7.37c-.39-3.36-3-6.91-5.49-9.27a24.32,24.32,0,0,0-6-4c-.16-.08-3-1.27-4.35-1.7S952.5,84,951.63,82.88Z" fill="#b01f24" fill-rule="evenodd"/>
      </g>
    </g>
  </g>
</svg>
